STARTFONT 2.1
COMMENT
COMMENT Converted from OpenType font "BeVietnam-Italic.ttf" by "otf2bdf 3.0".
COMMENT
FONT -FreeType-Be Vietnam-Medium-I-Normal--50-360-100-100-P-254-ISO10646-1
SIZE 36 100 100
FONTBOUNDINGBOX 72 68 -13 -13
STARTPROPERTIES 19
FOUNDRY "FreeType"
FAMILY_NAME "Be Vietnam"
WEIGHT_NAME "Medium"
SLANT "I"
SETWIDTH_NAME "Normal"
ADD_STYLE_NAME ""
PIXEL_SIZE 50
POINT_SIZE 360
RESOLUTION_X 100
RESOLUTION_Y 100
SPACING "P"
AVERAGE_WIDTH 254
CHARSET_REGISTRY "ISO10646"
CHARSET_ENCODING "1"
FONT_ASCENT 59
FONT_DESCENT 13
COPYRIGHT "Copyright 2019 The Bevietnam Project Authors (https://github.com/bettergui/beVietnam)"
_OTF_FONTFILE "BeVietnam-Italic.ttf"
_OTF_PSNAME "BeVietnam-Italic"
ENDPROPERTIES
CHARS 445
STARTCHAR 000D
ENCODING 13
SWIDTH 600 0
DWIDTH 30 0
BBX 0 0 0 0
BITMAP
ENDCHAR
STARTCHAR 0020
ENCODING 32
SWIDTH 220 0
DWIDTH 11 0
BBX 0 0 0 0
BITMAP
ENDCHAR
STARTCHAR 0021
ENCODING 33
SWIDTH 240 0
DWIDTH 12 0
BBX 11 38 4 0
BITMAP
03E0
03C0
03C0
07C0
07C0
07C0
07C0
0780
0780
0780
0F80
0F80
0F00
0F00
0F00
0F00
0F00
0E00
1E00
1E00
1E00
1E00
1C00
1C00
1C00
1C00
3C00
3800
3800
0000
0000
0000
0000
7800
F800
F800
F800
F000
ENDCHAR
STARTCHAR 0022
ENCODING 34
SWIDTH 560 0
DWIDTH 28 0
BBX 17 13 8 24
BITMAP
020080
0E0380
180600
300C00
700C00
601800
601800
7C1F00
FE1F80
FE3F80
FE3F80
7C1F00
300400
ENDCHAR
STARTCHAR 0023
ENCODING 35
SWIDTH 860 0
DWIDTH 43 0
BBX 38 35 6 0
BITMAP
00007803C0
00007803C0
0000F00780
0000F00780
0000F00780
0001E00F00
0001E00F00
0001C00E00
0003C01E00
0003C01E00
07FFFFFFFC
0FFFFFFFF8
0FFFFFFFF8
000F007800
000F007800
001E00F000
001E00F000
001E00E000
003C01E000
003C01E000
003801C000
007803C000
7FFFFFFFC0
FFFFFFFF80
FFFFFFFF80
FFFFFFFF80
01E00F0000
01E00F0000
03C01E0000
03C01E0000
03801C0000
07803C0000
07803C0000
0700780000
0F00780000
ENDCHAR
STARTCHAR 0024
ENCODING 36
SWIDTH 560 0
DWIDTH 28 0
BBX 26 42 4 -4
BITMAP
0000C000
0000C000
00018000
0003E000
003FFC00
00FFFE00
01FFFF00
03F19F80
07C30F80
078307C0
0F0307C0
0F0303C0
1F0303C0
1F0303C0
1F060000
1F060000
1F860000
0FC60000
0FFE0000
07FFC000
03FFF000
007FFC00
000FFE00
000C7F00
000C1F00
00080F00
00180F00
F0180F00
F8180F00
F8180F00
F8181F00
F8301E00
7C303C00
7E30FC00
3FF7F800
1FFFF000
0FFFC000
03FF0000
00600000
00600000
00600000
00600000
ENDCHAR
STARTCHAR 0025
ENCODING 37
SWIDTH 820 0
DWIDTH 41 0
BBX 35 37 6 -1
BITMAP
0080000000
07F0001E00
1FF8001E00
3C38003C00
381C007800
701C007000
701C00F000
F01C01E000
F01C01C000
F03803C000
F038078000
7070070000
7FF00F0000
3FE01E0000
1F803C0000
00003C0000
0000780000
0000F00000
0000F00000
0001E00000
0003C00000
0003C00000
0007801F00
000F007FC0
000E00FFC0
001E01E1E0
003C03C0E0
00380380E0
00780380E0
00F00780E0
00E00781E0
01E00781C0
03C00383C0
078003C780
078003FF00
0F0001FE00
0000002000
ENDCHAR
STARTCHAR 0026
ENCODING 38
SWIDTH 620 0
DWIDTH 31 0
BBX 29 36 4 0
BITMAP
00003000
0003FF00
000FFF80
001FFFC0
003F8FE0
007E03E0
007C01E0
00F801E0
00F801E0
00F001E0
00F001E0
00F00000
00F80000
00780000
007C0000
003E0000
003E0000
001F0000
00FF80F0
03FF81F0
0FE7C3E0
1F03E3C0
3E03E780
3C01FF80
7800FF00
78007E00
F8007C00
F0003E00
F0007F00
F800FF00
F801EF80
FC07C7C0
7FBF83C0
7FFF03E0
3FFE01F0
0FF800F8
ENDCHAR
STARTCHAR 0027
ENCODING 39
SWIDTH 300 0
DWIDTH 15 0
BBX 7 12 7 24
BITMAP
3C
7E
7E
7E
7E
0E
0C
0C
1C
38
70
C0
ENDCHAR
STARTCHAR 0028
ENCODING 40
SWIDTH 460 0
DWIDTH 23 0
BBX 19 49 7 -10
BITMAP
0000E0
0001C0
000780
000F00
001E00
003C00
007C00
007800
00F000
01E000
01E000
03C000
07C000
078000
0F8000
0F0000
1F0000
1F0000
1E0000
3E0000
3C0000
3C0000
7C0000
7C0000
780000
780000
780000
780000
780000
F80000
F80000
F80000
780000
780000
780000
780000
780000
780000
380000
3C0000
3C0000
1C0000
1E0000
0E0000
0F0000
070000
038000
03C000
01C000
ENDCHAR
STARTCHAR 0029
ENCODING 41
SWIDTH 460 0
DWIDTH 23 0
BBX 18 49 3 -10
BITMAP
00C000
00E000
007000
007800
003C00
003C00
001E00
001E00
000F00
000F00
000F00
000780
000780
000780
000780
000780
0007C0
0007C0
0007C0
0007C0
0007C0
0007C0
000780
000780
000780
000780
000F80
000F80
000F00
000F00
001F00
001E00
001E00
003E00
003C00
007C00
007800
00F800
00F000
01E000
01E000
03C000
078000
0F0000
0E0000
1C0000
380000
700000
E00000
ENDCHAR
STARTCHAR 002A
ENCODING 42
SWIDTH 460 0
DWIDTH 23 0
BBX 18 18 9 20
BITMAP
007000
007000
007000
106080
3863C0
7EE7C0
3FDF00
0FFC00
03E000
07F800
3FFE00
FD9F80
F18F00
C38600
838200
038000
078000
070000
ENDCHAR
STARTCHAR 002B
ENCODING 43
SWIDTH 560 0
DWIDTH 28 0
BBX 20 19 7 6
BITMAP
003C00
007800
007800
007800
007800
007800
007000
7FFFF0
FFFFF0
FFFFF0
FFFFF0
00F000
00E000
01E000
01E000
01E000
01E000
01E000
01C000
ENDCHAR
STARTCHAR 002C
ENCODING 44
SWIDTH 280 0
DWIDTH 14 0
BBX 7 13 4 -8
BITMAP
3C
7E
FE
FE
FE
1C
0C
0C
18
38
70
E0
80
ENDCHAR
STARTCHAR 002D
ENCODING 45
SWIDTH 600 0
DWIDTH 30 0
BBX 19 3 11 14
BITMAP
FFFFE0
FFFFC0
FFFFC0
ENDCHAR
STARTCHAR 002E
ENCODING 46
SWIDTH 260 0
DWIDTH 13 0
BBX 6 5 4 0
BITMAP
7C
7C
FC
FC
78
ENDCHAR
STARTCHAR 002F
ENCODING 47
SWIDTH 500 0
DWIDTH 25 0
BBX 32 48 1 -8
BITMAP
0000000F
0000001E
0000001E
0000003C
0000007C
00000078
000000F0
000000F0
000001E0
000003E0
000003C0
00000780
00000780
00000F00
00001F00
00001E00
00003C00
00003C00
00007800
0000F800
0000F000
0001E000
0001E000
0003C000
0007C000
00078000
000F8000
000F0000
001E0000
001E0000
003C0000
007C0000
00780000
00F00000
00F00000
01E00000
03E00000
03C00000
07800000
07800000
0F000000
1F000000
1E000000
3C000000
3C000000
78000000
F8000000
F0000000
ENDCHAR
STARTCHAR 0030
ENCODING 48
SWIDTH 600 0
DWIDTH 30 0
BBX 26 37 5 -1
BITMAP
0003E000
003FFC00
00FFFE00
01FFFF00
03F83F80
07E00F80
07C007C0
0F8007C0
1F0007C0
1F0003C0
3E0003C0
3E0003C0
3C0003C0
7C0003C0
7C0003C0
7C0007C0
7C0007C0
780007C0
780007C0
F8000780
F8000780
F8000F80
F8000F80
F0000F80
F0000F00
F0001F00
F0001F00
F8003E00
F8003E00
F8007C00
7C00F800
7E01F800
7F8FF000
3FFFE000
1FFF8000
07FE0000
00400000
ENDCHAR
STARTCHAR 0031
ENCODING 49
SWIDTH 480 0
DWIDTH 24 0
BBX 18 35 5 0
BITMAP
000F80
001F80
003F80
00FF00
01FF00
03EF00
07CF00
0F8F00
0F1E00
0C1E00
081E00
001E00
001E00
001E00
003C00
003C00
003C00
003C00
003C00
003C00
007800
007800
007800
007800
007800
00F800
00F000
00F000
00F000
00F000
00F000
FFFFC0
FFFFC0
FFFFC0
FFFFC0
ENDCHAR
STARTCHAR 0032
ENCODING 50
SWIDTH 580 0
DWIDTH 29 0
BBX 27 36 4 0
BITMAP
0003F000
001FFE00
003FFF00
00FFFF80
01FC1FC0
01F007C0
03C003E0
07C003E0
078001E0
078001E0
0F8003E0
0F0003C0
000003C0
000003C0
00000780
00000F80
00000F00
00001E00
00003E00
00007C00
0001F800
0003F000
0007C000
001F8000
003F0000
007E0000
00F80000
03F00000
07E00000
0F800000
3F000000
7E000000
FFFFFE00
FFFFFE00
FFFFFE00
FFFFFE00
ENDCHAR
STARTCHAR 0033
ENCODING 51
SWIDTH 580 0
DWIDTH 29 0
BBX 26 36 5 0
BITMAP
0007E000
003FFC00
00FFFE00
01FFFF00
03F01F80
07C00F80
078007C0
0F0007C0
0F0003C0
000003C0
000007C0
00000780
00000780
00000F00
00001F00
00007E00
003FF800
003FF000
003FF000
003FF800
00007C00
00003E00
00001E00
00001E00
00001E00
00001E00
00001E00
F0001E00
F0003E00
F8003C00
F8007C00
FC01F800
7FFFF000
3FFFE000
1FFFC000
07FF0000
ENDCHAR
STARTCHAR 0034
ENCODING 52
SWIDTH 600 0
DWIDTH 30 0
BBX 26 35 4 0
BITMAP
00001F80
00003F00
00007F00
0000FF00
0001FF00
0001FF00
0003DF00
0007DE00
000F9E00
001F1E00
003E1E00
003C3E00
00783C00
00F03C00
01F03C00
03E03C00
07C03C00
07807C00
0F007800
1E007800
3C007800
7C007800
F8007800
FFFFFFC0
FFFFFF80
FFFFFF80
0000F000
0000F000
0001F000
0001F000
0001E000
0001E000
0001E000
0001E000
0003E000
ENDCHAR
STARTCHAR 0035
ENCODING 53
SWIDTH 600 0
DWIDTH 30 0
BBX 26 35 5 0
BITMAP
03FFFFC0
03FFFFC0
03FFFFC0
07FFFFC0
07800000
07800000
07800000
07000000
0F000000
0F000000
0F000000
0E038000
1E3FF000
1E7FFC00
1FFFFE00
1FC03F00
3F801F00
3F000F00
3E000F80
00000F80
00000F80
00000F80
00000F80
00000F00
00000F00
00000F00
F8001F00
F8003E00
78003E00
7C00FC00
7F01F800
3FFFF000
1FFFE000
0FFF8000
03FE0000
ENDCHAR
STARTCHAR 0036
ENCODING 54
SWIDTH 580 0
DWIDTH 29 0
BBX 24 35 5 0
BITMAP
0001E0
0003C0
0007C0
000F80
001F00
001E00
003C00
007800
00F000
01F000
03E000
03C000
078000
0F3FE0
1EFFF8
1FFFFC
3FC0FC
3F007E
7E003E
7C001F
F8001F
F8001F
F0001F
F0001F
F0001E
F0001E
F0001E
F0003C
F0007C
F800F8
7C01F8
7F07F0
3FFFC0
1FFF80
07FE00
ENDCHAR
STARTCHAR 0037
ENCODING 55
SWIDTH 500 0
DWIDTH 25 0
BBX 23 35 6 0
BITMAP
7FFFFE
7FFFFE
7FFFFE
7FFFFE
00003E
00003C
000078
000078
0000F0
0001F0
0001E0
0003C0
0007C0
000780
000F80
000F00
001E00
003E00
003C00
007C00
007800
00F000
01F000
01E000
03E000
07C000
078000
0F8000
0F0000
1F0000
3E0000
3C0000
7C0000
780000
F80000
ENDCHAR
STARTCHAR 0038
ENCODING 56
SWIDTH 600 0
DWIDTH 30 0
BBX 27 37 4 -1
BITMAP
0000F000
000FFE00
003FFF80
00FFFFC0
01FC0FC0
01F003E0
03E003E0
07C001E0
078001E0
078001E0
078001E0
078001E0
078003C0
078007C0
07C00F80
03E01F00
01FFFE00
00FFF800
03FFFC00
07E07F00
0F801F00
1E000F80
3C000780
7C0007C0
780007C0
780007C0
F80007C0
F8000780
F8000F80
F8000F80
7C001F00
7E007E00
3F81FC00
3FFFF800
0FFFF000
07FFC000
00100000
ENDCHAR
STARTCHAR 0039
ENCODING 57
SWIDTH 580 0
DWIDTH 29 0
BBX 24 36 7 0
BITMAP
000F00
00FFE0
03FFF8
07FFFC
0FC0FC
1F003E
3E001E
7C001F
78000F
78000F
F0000F
F0000F
F0001F
F0001F
F0001E
F0003E
F8003E
F8007C
7C01FC
7F07F8
3FFF78
1FFEF0
07F9E0
0003E0
0007C0
000780
000F00
001E00
003E00
007C00
00F800
01F000
01E000
03C000
07C000
0F8000
ENDCHAR
STARTCHAR 003A
ENCODING 58
SWIDTH 280 0
DWIDTH 14 0
BBX 6 26 4 0
BITMAP
78
7C
FC
FC
F8
70
00
00
00
00
00
00
00
00
00
00
00
00
00
00
00
78
FC
FC
F8
78
ENDCHAR
STARTCHAR 003B
ENCODING 59
SWIDTH 300 0
DWIDTH 15 0
BBX 10 34 4 -8
BITMAP
0380
07C0
0FC0
0FC0
0780
0300
0000
0000
0000
0000
0000
0000
0000
0000
0000
0000
0000
0000
0000
0000
0000
3E00
7E00
7E00
7E00
7E00
0E00
0E00
0C00
0C00
1800
3800
E000
C000
ENDCHAR
STARTCHAR 003C
ENCODING 60
SWIDTH 560 0
DWIDTH 28 0
BBX 20 22 8 5
BITMAP
000030
0001F0
0007F0
001FE0
007F80
01FE00
07F800
1FE000
7F8000
FC0000
F00000
FC0000
FE0000
3F8000
0FE000
07F800
01FE00
007F00
003F80
000F80
000300
000100
ENDCHAR
STARTCHAR 003D
ENCODING 61
SWIDTH 700 0
DWIDTH 35 0
BBX 26 15 7 8
BITMAP
1FFFFFC0
1FFFFFC0
3FFFFFC0
3FFFFFC0
00000000
00000000
00000000
00000000
00000000
00000000
00000000
7FFFFF00
7FFFFF00
7FFFFF00
FFFFFF00
ENDCHAR
STARTCHAR 003E
ENCODING 62
SWIDTH 560 0
DWIDTH 28 0
BBX 20 22 6 5
BITMAP
0C0000
1F0000
1F8000
1FE000
07F800
01FC00
007F00
003FC0
000FE0
0003F0
0000F0
0003F0
000FE0
003F80
00FE00
03F800
1FE000
7F8000
FE0000
F80000
E00000
800000
ENDCHAR
STARTCHAR 003F
ENCODING 63
SWIDTH 560 0
DWIDTH 28 0
BBX 22 36 8 0
BITMAP
003F00
03FFC0
07FFF0
1FFFF8
3FC3F8
7E00FC
7C007C
F8003C
F0003C
F0003C
F0003C
F0003C
00007C
000078
0000F8
0001F0
0003E0
0007C0
000F80
003F00
007C00
00F800
01F000
01E000
03E000
03C000
03C000
000000
000000
000000
000000
078000
0F8000
0F8000
0F8000
0F0000
ENDCHAR
STARTCHAR 0040
ENCODING 64
SWIDTH 1000 0
DWIDTH 50 0
BBX 45 44 5 -8
BITMAP
000000300000
00001FFFC000
0000FFFFF000
0003FFFFFC00
000FF001FE00
001F80003F00
003E00000F80
0078000007C0
00F0000003E0
01E0000001E0
03C0000000F0
0780000000F0
0F001F8F0070
0F007FEF0078
1E00FFEE0078
1C01F07E0078
3C03C03E0038
3C07803E0038
3807801E0038
7807001E0078
780F001C0078
700F001C0078
700E001C0070
700E003C0070
700E003C00F0
F00E003C00E0
F00F007C01E0
F00F00FC03C0
700F81DE0780
7007FF9F1F00
7007FF0FFE00
7803FE07F800
780070008000
3C0000000000
3C0000000000
3E0000000000
1F0000000000
0F8000000000
0FC000000000
07F000000000
01FF00000000
00FFFFFF8000
003FFFFF8000
0007FFFF8000
ENDCHAR
STARTCHAR 0041
ENCODING 65
SWIDTH 680 0
DWIDTH 34 0
BBX 30 35 2 0
BITMAP
00001E00
00003E00
00003F00
00007F00
0000FF00
0000FF00
0001EF00
0001E780
0003C780
0003C780
00078780
00078780
000F03C0
000F03C0
001E03C0
003E03C0
003C03C0
007C03E0
007801E0
00F001E0
00F001E0
01FFFFE0
01FFFFF0
03FFFFF0
03FFFFF0
078000F0
0F8000F8
0F0000F8
1F000078
1E000078
3E000078
3C00007C
7C00007C
7800003C
F000003C
ENDCHAR
STARTCHAR 0042
ENCODING 66
SWIDTH 620 0
DWIDTH 31 0
BBX 28 35 4 0
BITMAP
03FFFE00
07FFFF80
07FFFFE0
07FFFFE0
078003F0
078001F0
078000F0
0F8000F0
0F0000F0
0F0000F0
0F0000F0
0F0001E0
0F0003E0
1F0007C0
1E000F80
1FFFFE00
1FFFF800
1FFFFE00
1FFFFF80
3E000FC0
3C0003C0
3C0003E0
3C0001E0
3C0001E0
3C0001E0
7C0001E0
780003E0
780003C0
780007C0
78000F80
F8003F00
FFFFFF00
FFFFFC00
FFFFF800
FFFFC000
ENDCHAR
STARTCHAR 0043
ENCODING 67
SWIDTH 700 0
DWIDTH 35 0
BBX 32 36 5 0
BITMAP
00007E00
0007FFC0
001FFFF0
007FFFF8
00FF03FC
01F800FC
03F0007E
07E0003E
07C0001F
0F80001F
1F00000F
1F00000F
3E00000F
3E000000
3C000000
7C000000
7C000000
78000000
78000000
F8000000
F8000000
F8000000
F8000000
F8000000
F8000000
7800007C
78000078
7C0000F8
7C0001F0
3E0003E0
3F0007C0
1FC01FC0
0FFFFF00
07FFFE00
03FFF800
00FFE000
ENDCHAR
STARTCHAR 0044
ENCODING 68
SWIDTH 680 0
DWIDTH 34 0
BBX 32 35 4 0
BITMAP
03FFFE00
07FFFF80
07FFFFE0
07FFFFF0
078007F8
078001FC
078000FC
0F80007E
0F00003E
0F00003E
0F00001E
0F00001E
0F00001F
1F00001F
1E00001F
1E00001E
1E00001E
1E00001E
1E00003E
3E00003E
3C00003E
3C00003C
3C00007C
3C000078
3C0000F8
7C0001F0
780001F0
780003E0
78000FC0
78001F80
F800FF00
FFFFFE00
FFFFFC00
FFFFF000
FFFF8000
ENDCHAR
STARTCHAR 0045
ENCODING 69
SWIDTH 560 0
DWIDTH 28 0
BBX 27 35 4 0
BITMAP
03FFFFE0
07FFFFE0
07FFFFE0
07FFFFE0
07800000
07800000
07800000
0F800000
0F800000
0F000000
0F000000
0F000000
0F000000
1F000000
1F000000
1FFFFE00
1FFFFC00
1FFFFC00
1FFFFC00
3E000000
3E000000
3C000000
3C000000
3C000000
3C000000
7C000000
7C000000
78000000
78000000
78000000
F8000000
FFFFFC00
FFFFFC00
FFFFFC00
FFFFF800
ENDCHAR
STARTCHAR 0046
ENCODING 70
SWIDTH 500 0
DWIDTH 25 0
BBX 27 35 4 0
BITMAP
03FFFFE0
07FFFFC0
07FFFFC0
07FFFFC0
07800000
07800000
07800000
0F800000
0F800000
0F000000
0F000000
0F000000
0F000000
1F000000
1F000000
1FFFFC00
1FFFFC00
1FFFFC00
1FFFFC00
3E000000
3E000000
3C000000
3C000000
3C000000
3C000000
7C000000
7C000000
78000000
78000000
78000000
F8000000
F8000000
F8000000
F0000000
F0000000
ENDCHAR
STARTCHAR 0047
ENCODING 71
SWIDTH 700 0
DWIDTH 35 0
BBX 32 36 5 0
BITMAP
0000FC00
0007FFC0
001FFFE0
007FFFF0
00FF07F8
01F800FC
03F0007C
07C0003E
0780001E
0F80001F
1F00001F
1E000000
3E000000
3C000000
7C000000
7C000000
78000000
78000000
78007FFE
F8007FFE
F8007FFC
F800003C
F800003C
F800003C
F800007C
F8000078
780000F8
7C0000F8
7C0001F8
3E0003F8
3F0007F8
1F801F70
1FF0FE70
0FFFFC70
03FFF070
00FFC0F0
ENDCHAR
STARTCHAR 0048
ENCODING 72
SWIDTH 660 0
DWIDTH 33 0
BBX 32 35 4 0
BITMAP
03C0000F
07C0000F
07C0001F
0780001F
0780001E
0780001E
0780001E
0F80001E
0F80003E
0F00003E
0F00003C
0F00003C
0F00003C
1F00003C
1F00007C
1E00007C
1FFFFFF8
1FFFFFF8
1FFFFFF8
3E0000F8
3E0000F8
3C0000F8
3C0000F0
3C0000F0
3C0000F0
7C0001F0
7C0001F0
780001F0
780001E0
780001E0
F80001E0
F80003E0
F00003E0
F00003C0
F00003C0
ENDCHAR
STARTCHAR 0049
ENCODING 73
SWIDTH 240 0
DWIDTH 12 0
BBX 10 35 4 0
BITMAP
03C0
03C0
07C0
07C0
0780
0780
0780
0780
0F80
0F80
0F00
0F00
0F00
0F00
1F00
1F00
1E00
1E00
1E00
1E00
3E00
3E00
3C00
3C00
3C00
7C00
7C00
7C00
7800
7800
7800
F800
F800
F800
F000
ENDCHAR
STARTCHAR 004A
ENCODING 74
SWIDTH 340 0
DWIDTH 17 0
BBX 16 35 3 0
BITMAP
000F
001F
001F
001E
001E
001E
001E
003E
003E
003C
003C
003C
003C
007C
007C
0078
0078
0078
0078
00F8
00F8
00F0
00F0
00F0
00F0
01F0
01F0
01E0
01E0
03E0
03E0
07C0
FF80
FF80
FE00
ENDCHAR
STARTCHAR 004B
ENCODING 75
SWIDTH 620 0
DWIDTH 31 0
BBX 29 35 4 0
BITMAP
07C001F8
07C003F0
07C007E0
07800FC0
07801F00
07803E00
0F807C00
0F80F800
0F01F000
0F03E000
0F07C000
0F0F8000
1F1F0000
1F3E0000
1E7C0000
1FF80000
1FFC0000
1FFC0000
3FBE0000
3F3F0000
3E1F0000
3C0F8000
3C0F8000
3C07C000
7C07C000
7C03E000
7803F000
7801F000
7800F800
7800F800
F8007C00
F8007C00
F0003E00
F0003F00
F0001F00
ENDCHAR
STARTCHAR 004C
ENCODING 76
SWIDTH 520 0
DWIDTH 26 0
BBX 21 35 4 0
BITMAP
03C000
07C000
07C000
078000
078000
078000
078000
0F8000
0F8000
0F0000
0F0000
0F0000
0F0000
1F0000
1F0000
1E0000
1E0000
1E0000
1E0000
3E0000
3E0000
3C0000
3C0000
3C0000
3C0000
7C0000
7C0000
780000
780000
780000
F80000
FFFFF8
FFFFF8
FFFFF8
FFFFF8
ENDCHAR
STARTCHAR 004D
ENCODING 77
SWIDTH 820 0
DWIDTH 41 0
BBX 39 35 4 0
BITMAP
03F000007E
07F00000FE
07F80000FE
07F80001FE
07F80003FE
07F80003FC
07F80007FC
0FFC0007BC
0FFC000FBC
0F3C000F7C
0F3C001F7C
0F3E001E78
0F3E003E78
1F3E007C78
1F1E007878
1E1E00F8F8
1E1F00F0F8
1E1F01F0F0
1E0F01E0F0
3E0F03E0F0
3C0F03C0F0
3C0F87C1F0
3C0F8F81F0
3C078F01E0
3C079F01E0
7C07DE01E0
7807FE01E0
7807FC03E0
7803FC03E0
7803F803C0
F803F803C0
F803F003C0
F003E003C0
F001E007C0
F001C007C0
ENDCHAR
STARTCHAR 004E
ENCODING 78
SWIDTH 700 0
DWIDTH 35 0
BBX 34 35 4 0
BITMAP
03E00007C0
07E00007C0
07F0000780
07F0000780
07F8000780
07F8000780
07FC000F80
0FFC000F00
0FBE000F00
0F3E000F00
0F1F000F00
0F1F000F00
0F0F801F00
1F0F801E00
1F07C01E00
1E07C01E00
1E03E01E00
1E03E03E00
1E01F03E00
3E01F03C00
3E00F83C00
3C00F83C00
3C007C3C00
3C007C7C00
3C003E7C00
7C003E7800
78001F7800
78001F7800
78000FF800
78000FF800
F80007F800
F80007F000
F00003F000
F00003F000
F00001F000
ENDCHAR
STARTCHAR 004F
ENCODING 79
SWIDTH 720 0
DWIDTH 36 0
BBX 32 36 5 0
BITMAP
0000FE00
0007FFC0
001FFFE0
007FFFF8
00FF07FC
01FC00FC
03F0007E
07E0003E
0FC0001F
0F80001F
1F00001F
1E00000F
3E00000F
3C00000F
7C00000F
7C00000F
7800000F
7800000F
F800000F
F800001F
F800001F
F800001E
F800003E
F800003E
F800003C
F800007C
780000F8
7C0000F8
7C0001F0
7E0003E0
3F000FE0
1FC03F80
1FFFFF00
0FFFFE00
03FFF800
00FFE000
ENDCHAR
STARTCHAR 0050
ENCODING 80
SWIDTH 580 0
DWIDTH 29 0
BBX 28 35 4 0
BITMAP
03FFFC00
07FFFF00
07FFFF80
07FFFFC0
07800FE0
078003E0
078001F0
0F8001F0
0F0000F0
0F0000F0
0F0000F0
0F0000F0
0F0001F0
1F0001E0
1E0001E0
1E0003C0
1E0007C0
1E000F80
1E003F80
3FFFFE00
3FFFFC00
3FFFF000
3FFFC000
3C000000
3C000000
7C000000
78000000
78000000
78000000
78000000
F8000000
F8000000
F0000000
F0000000
F0000000
ENDCHAR
STARTCHAR 0051
ENCODING 81
SWIDTH 720 0
DWIDTH 36 0
BBX 32 39 5 -3
BITMAP
0000FE00
0007FFC0
001FFFE0
007FFFF8
00FF07FC
01FC00FC
03F0007E
07E0003E
0FC0001F
0F80001F
1F00001F
1E00000F
3E00000F
3C00000F
7C00000F
7C00000F
7800000F
7800000F
F800000F
F800001F
F800001F
F800001E
F800003E
F803C03E
F801E03C
F801E07C
7800F0F8
7C0078F8
7C0079F0
7E003FE0
3F003FC0
1FC03FC0
1FFFFF00
0FFFFF00
03FFFF80
00FFE3C0
000003C0
000001E0
000001F0
ENDCHAR
STARTCHAR 0052
ENCODING 82
SWIDTH 600 0
DWIDTH 30 0
BBX 28 35 4 0
BITMAP
03FFFC00
07FFFF00
07FFFFC0
07FFFFC0
07800FE0
078003F0
078001F0
0F8000F0
0F8000F0
0F0000F0
0F0000F0
0F0000F0
0F0001E0
1F0001E0
1F0003E0
1E0007C0
1E001F80
1FFFFF00
1FFFFE00
3FFFF800
3FFFE000
3C07C000
3C07C000
3C03E000
3C03E000
7C01F000
7801F000
7800F000
7800F800
78007800
F8007C00
F8003C00
F0003E00
F0001E00
F0001F00
ENDCHAR
STARTCHAR 0053
ENCODING 83
SWIDTH 580 0
DWIDTH 29 0
BBX 28 36 4 0
BITMAP
0001E000
001FFE00
007FFF00
00FFFF80
01F81FC0
03E007E0
07C003E0
078003E0
0F8003F0
0F0001F0
0F0001F0
0F000000
0F000000
0F800000
0FC00000
07F00000
07FF8000
03FFF000
00FFFC00
001FFE00
0000FF00
00001F80
00000F80
00000F80
00000780
F8000780
F8000780
F8000F80
FC000F80
7C001F00
7E003E00
3F00FE00
3FFFFC00
1FFFF000
0FFFE000
03FF8000
ENDCHAR
STARTCHAR 0054
ENCODING 84
SWIDTH 580 0
DWIDTH 29 0
BBX 25 35 8 0
BITMAP
FFFFFF80
FFFFFF80
FFFFFF80
FFFFFF80
003C0000
003C0000
007C0000
007C0000
00780000
00780000
00780000
00780000
00F80000
00F80000
00F00000
00F00000
00F00000
00F00000
01F00000
01F00000
01E00000
01E00000
01E00000
03E00000
03E00000
03C00000
03C00000
03C00000
03C00000
07C00000
07C00000
07800000
07800000
07800000
07800000
ENDCHAR
STARTCHAR 0055
ENCODING 85
SWIDTH 680 0
DWIDTH 34 0
BBX 32 35 5 0
BITMAP
0F00000F
0F00001F
0F00001F
0F00001E
1F00001E
1F00001E
1E00001E
1E00003E
1E00003C
1E00003C
3E00003C
3E00003C
3C00007C
3C00007C
3C000078
3C000078
7C000078
78000078
780000F8
780000F8
780000F0
780000F0
780001F0
F80001F0
F80001E0
780003E0
780003C0
7C0007C0
7C000F80
7E001F80
3F807F00
1FFFFE00
1FFFFC00
07FFF000
03FFC000
ENDCHAR
STARTCHAR 0056
ENCODING 86
SWIDTH 620 0
DWIDTH 31 0
BBX 30 35 7 0
BITMAP
F000007C
F0000078
F00000F8
F80000F0
F80001F0
780001E0
780003E0
780003C0
7C0007C0
7C000780
3C000F00
3C000F00
3C001E00
3C001E00
3E003C00
3E003C00
1E007800
1E00F800
1E00F000
1E01F000
1F01E000
1F03E000
0F03C000
0F07C000
0F078000
0F8F8000
0F8F0000
079F0000
079E0000
07BE0000
07BC0000
07FC0000
07F80000
03F80000
03F00000
ENDCHAR
STARTCHAR 0057
ENCODING 87
SWIDTH 980 0
DWIDTH 49 0
BBX 48 35 7 0
BITMAP
F00003C0001F
F00007C0001E
F00007C0003E
F0000FC0003C
F0000FC0003C
F0001FE00078
F8001FE00078
F8003FE000F8
78003DE000F0
780079E001F0
780079E001E0
7800F1F001E0
7800F1F003C0
7801E0F003C0
7801E0F007C0
7803C0F00780
7803C0F00F80
7C0780F00F00
7C0780F80F00
3C0F80F81E00
3C0F00781E00
3C1F00783C00
3C1E00783C00
3C3E00787C00
3C3C00787800
3C7C007CF800
3C78003CF000
3CF8003CF000
3EF0003DE000
1FF0003DE000
1FE0003FC000
1FE0003FC000
1FC0003FC000
1FC0001F8000
1F80001F8000
ENDCHAR
STARTCHAR 0058
ENCODING 88
SWIDTH 640 0
DWIDTH 32 0
BBX 35 35 2 0
BITMAP
03E00003E0
01F00007C0
01F0000F80
00F8001F00
00F8003E00
0078003C00
007C007C00
003C00F800
003E01F000
001E03E000
001F07C000
000F078000
000F8F8000
00079F0000
0007FE0000
0003FC0000
0003F80000
0001F00000
0003F80000
0007F80000
000FFC0000
001F3C0000
003E3E0000
003C1E0000
007C1F0000
00F80F0000
01F00F8000
03E0078000
07C007C000
078003C000
0F8003E000
1F0003E000
3E0001F000
7C0001F000
F80000F800
ENDCHAR
STARTCHAR 0059
ENCODING 89
SWIDTH 600 0
DWIDTH 30 0
BBX 26 35 8 0
BITMAP
F80003C0
F80007C0
F8000F80
78000F00
7C001F00
3C003E00
3C003C00
3E007C00
1E00F800
1E00F000
1F01F000
0F03E000
0F03C000
0F87C000
078F8000
078F0000
07DF0000
03FE0000
03FC0000
03FC0000
01F80000
01F00000
01F00000
01E00000
01E00000
01E00000
01E00000
03E00000
03E00000
03C00000
03C00000
03C00000
03C00000
07C00000
07C00000
ENDCHAR
STARTCHAR 005A
ENCODING 90
SWIDTH 600 0
DWIDTH 30 0
BBX 30 35 3 0
BITMAP
07FFFFFC
07FFFFFC
07FFFFFC
07FFFFFC
000000F8
000001F0
000003E0
000007E0
00000FC0
00000F80
00001F00
00003E00
00007C00
0000F800
0001F000
0003E000
0007C000
000FC000
001F8000
001F0000
003E0000
007C0000
00F80000
01F00000
03E00000
07C00000
0F800000
1F800000
3F000000
3E000000
7C000000
FFFFFF80
FFFFFF80
FFFFFF80
FFFFFF00
ENDCHAR
STARTCHAR 005B
ENCODING 91
SWIDTH 440 0
DWIDTH 22 0
BBX 22 50 3 -9
BITMAP
00FFFC
00FFFC
00FFFC
00FFFC
01E000
01E000
01E000
01C000
01C000
01C000
03C000
03C000
03C000
038000
038000
038000
078000
078000
078000
070000
070000
0F0000
0F0000
0F0000
0E0000
0E0000
0E0000
1E0000
1E0000
1E0000
1C0000
1C0000
1C0000
3C0000
3C0000
3C0000
380000
380000
380000
780000
780000
780000
700000
700000
F00000
F00000
F00000
FFFC00
FFFC00
FFFC00
ENDCHAR
STARTCHAR 005C
ENCODING 92
SWIDTH 500 0
DWIDTH 25 0
BBX 16 48 6 -8
BITMAP
F000
F000
F000
F800
7800
7800
7800
7C00
3C00
3C00
3C00
3E00
1E00
1E00
1E00
0F00
0F00
0F00
0F00
0780
0780
0780
07C0
03C0
03C0
03C0
03E0
01E0
01E0
01E0
01F0
00F0
00F0
00F0
0078
0078
0078
0078
003C
003C
003C
003E
001E
001E
001E
001F
000F
000F
ENDCHAR
STARTCHAR 005D
ENCODING 93
SWIDTH 420 0
DWIDTH 21 0
BBX 23 50 2 -9
BITMAP
007FFE
007FFE
00FFFE
00FFFC
00001C
00001C
00003C
00003C
00003C
000038
000038
000078
000078
000078
000070
000070
000070
0000F0
0000F0
0000F0
0000E0
0000E0
0000E0
0001E0
0001E0
0001E0
0001C0
0001C0
0003C0
0003C0
0003C0
000380
000380
000380
000780
000780
000780
000700
000700
000700
000F00
000F00
000F00
000E00
000E00
001E00
001E00
FFFE00
FFFC00
FFFC00
ENDCHAR
STARTCHAR 005E
ENCODING 94
SWIDTH 400 0
DWIDTH 20 0
BBX 18 10 6 28
BITMAP
00F800
01FC00
03FC00
07DE00
079F00
0F0F00
1E0F80
3C0780
7803C0
F003C0
ENDCHAR
STARTCHAR 005F
ENCODING 95
SWIDTH 700 0
DWIDTH 35 0
BBX 24 4 6 0
BITMAP
FFFFFF
FFFFFF
FFFFFF
FFFFFF
ENDCHAR
STARTCHAR 0060
ENCODING 96
SWIDTH 240 0
DWIDTH 12 0
BBX 7 9 9 31
BITMAP
F0
F0
78
78
3C
3C
1C
1E
0E
ENDCHAR
STARTCHAR 0061
ENCODING 97
SWIDTH 600 0
DWIDTH 30 0
BBX 27 27 4 0
BITMAP
003F8000
00FFE1E0
03FFF1E0
07FFFBE0
0FE03BE0
0F801FC0
1F000FC0
3E000FC0
3C0007C0
7C0007C0
780007C0
78000780
F8000780
F8000780
F8000F80
F0000F80
F0000F80
F0001F00
F8001F00
F8003F00
F8007F00
7C00FF00
7E01DF00
7F8F9E00
3FFF1E00
1FFE1E00
07F83E00
ENDCHAR
STARTCHAR 0062
ENCODING 98
SWIDTH 620 0
DWIDTH 31 0
BBX 27 38 4 0
BITMAP
03C00000
03C00000
03C00000
03C00000
07C00000
07C00000
07800000
07800000
07800000
07800000
0F800000
0F83F800
0F0FFE00
0F1FFF00
0F3FFF80
0F700FC0
1FE007C0
1FC007E0
1F8003E0
1F0003E0
1F0003E0
3E0001E0
3E0001E0
3E0003E0
3C0003E0
3C0003E0
3C0003C0
7C0003C0
7C0007C0
7C000780
7E000F80
7E001F00
7F003F00
FB807E00
FBE3FC00
F1FFF800
F0FFF000
F07FC000
ENDCHAR
STARTCHAR 0063
ENCODING 99
SWIDTH 560 0
DWIDTH 28 0
BBX 25 27 4 0
BITMAP
001FE000
00FFF800
01FFFC00
03FFFE00
07E03F00
0F801F00
1F000F00
3E000F80
3C000F80
7C000780
78000000
78000000
F8000000
F8000000
F0000000
F0000000
F0000000
F0001E00
F0001E00
F8003E00
78003C00
7C007800
7E01F800
3F8FF000
1FFFE000
0FFF8000
03FE0000
ENDCHAR
STARTCHAR 0064
ENCODING 100
SWIDTH 600 0
DWIDTH 30 0
BBX 29 38 4 0
BITMAP
00000078
00000078
000000F8
000000F8
000000F0
000000F0
000000F0
000000F0
000001F0
000001F0
000001E0
003F81E0
00FFE1E0
03FFF1E0
07FFFBE0
0FE03BE0
0F801FC0
1F000FC0
3E000FC0
3E000FC0
7C0007C0
7C0007C0
78000780
F8000780
F8000780
F8000F80
F0000F80
F0000F80
F0001F00
F8001F00
F8003F00
F8007F00
7C00FF00
7E01DF00
7F8F9E00
3FFF1E00
1FFE1E00
07F81E00
ENDCHAR
STARTCHAR 0065
ENCODING 101
SWIDTH 560 0
DWIDTH 28 0
BBX 25 27 4 0
BITMAP
003FF000
00FFFC00
01FFFE00
07F07F00
0FC01F00
1F000F00
1E000F80
3E000F80
3C000F00
7C000F00
78001F00
7800FE00
FFFFFC00
FFFFF000
FFFF8000
F0000000
F0000000
F0000000
F0000000
F8003E00
78003C00
7C007C00
3E01F800
3FFFF000
1FFFE000
0FFF8000
03FE0000
ENDCHAR
STARTCHAR 0066
ENCODING 102
SWIDTH 360 0
DWIDTH 18 0
BBX 25 49 -2 -12
BITMAP
00003F80
0000FF80
0001FF00
0003F000
0003C000
0007C000
0007C000
00078000
00078000
00078000
000F8000
007FFE00
007FFE00
00FFFE00
000F0000
000F0000
001F0000
001F0000
001F0000
001E0000
001E0000
001E0000
003E0000
003E0000
003C0000
003C0000
003C0000
003C0000
007C0000
007C0000
00780000
00780000
00780000
00780000
00F80000
00F80000
00F00000
00F00000
00F00000
01F00000
01F00000
01F00000
01E00000
01E00000
03E00000
07C00000
FFC00000
FF800000
FE000000
ENDCHAR
STARTCHAR 0067
ENCODING 103
SWIDTH 600 0
DWIDTH 30 0
BBX 27 38 4 -11
BITMAP
003F8000
00FFE1E0
03FFF1E0
07FFFBE0
0FE03BE0
1F801FC0
1F000FC0
3E000FC0
3C0007C0
7C0007C0
780007C0
78000780
F8000780
F8000780
F8000F80
F8000F80
F8000F80
F8001F00
F8001F00
F8003F00
7C007F00
7E00FF00
7F87DF00
3FFF9E00
1FFF1E00
0FFC1E00
00803E00
00003E00
00003C00
00007C00
00007800
0000F800
0003F000
060FE000
07FFC000
07FF8000
07FE0000
00600000
ENDCHAR
STARTCHAR 0068
ENCODING 104
SWIDTH 600 0
DWIDTH 30 0
BBX 26 37 4 0
BITMAP
03C00000
03C00000
03C00000
07C00000
07C00000
07800000
07800000
07800000
07800000
0F800000
0F83F800
0F0FFE00
0F1FFF00
0F3FFF80
0F701F80
1FC00FC0
1F8007C0
1F0007C0
1F0003C0
1E0003C0
1E0003C0
3E0003C0
3E0007C0
3C000780
3C000780
3C000780
3C000780
7C000780
7C000F80
78000F00
78000F00
78000F00
F8000F00
F8001F00
F0001F00
F0001E00
F0001E00
ENDCHAR
STARTCHAR 0069
ENCODING 105
SWIDTH 240 0
DWIDTH 12 0
BBX 11 37 4 0
BITMAP
01C0
03E0
07E0
07E0
07C0
0380
0000
0000
0000
0000
0000
0F80
0F80
0F00
0F00
0F00
0F00
1F00
1F00
1E00
1E00
1E00
1E00
3E00
3E00
3C00
3C00
3C00
3C00
7C00
7C00
7800
7800
7800
F800
F800
F800
ENDCHAR
STARTCHAR 006A
ENCODING 106
SWIDTH 240 0
DWIDTH 12 0
BBX 19 48 -4 -11
BITMAP
0001C0
0003E0
0003E0
0003E0
0003C0
000180
000000
000000
000000
000000
000780
000780
000F80
000F80
000F00
000F00
000F00
000F00
001F00
001F00
001E00
001E00
001E00
001E00
003E00
003E00
003C00
003C00
003C00
003C00
007C00
007C00
007800
007800
007800
007800
00F800
00F800
00F000
00F000
00F000
01F000
01F000
03E000
0FE000
7FC000
FF8000
FE0000
ENDCHAR
STARTCHAR 006B
ENCODING 107
SWIDTH 500 0
DWIDTH 25 0
BBX 23 37 4 0
BITMAP
03C000
03C000
03C000
03C000
07C000
07C000
078000
078000
078000
078000
0F8000
0F803E
0F007C
0F01F8
0F03E0
0F07C0
1F0F80
1F1F00
1E3E00
1EFC00
1FF800
1FE000
3FC000
3FE000
3DF000
3CF000
3CF800
7C7C00
7C7C00
7C3E00
781F00
781F00
780F80
F807C0
F807C0
F803E0
F001F0
ENDCHAR
STARTCHAR 006C
ENCODING 108
SWIDTH 300 0
DWIDTH 15 0
BBX 10 38 5 0
BITMAP
07C0
0780
0780
0780
0780
0F80
0F80
0F00
0F00
0F00
0F00
1F00
1F00
1E00
1E00
1E00
1E00
3E00
3E00
3C00
3C00
3C00
7C00
7C00
7C00
7800
7800
7800
F800
F800
F800
F000
F000
F000
F800
FF80
FF80
3F80
ENDCHAR
STARTCHAR 006D
ENCODING 109
SWIDTH 940 0
DWIDTH 47 0
BBX 43 27 4 0
BITMAP
0003F800FE00
0F0FFC03FF80
0F1FFE0FFFC0
0F3FFF1FFFC0
0F703F3C0FE0
1FC01FB803E0
1F800FE003E0
1F000FE001E0
1F0007C001E0
1E0007C001E0
1E00078001E0
3E00078001E0
3E000F8001E0
3C000F8001E0
3C000F0003E0
3C000F0003C0
3C000F0003C0
7C000F0003C0
78001F0003C0
78001F0007C0
78001E0007C0
78001E000780
F8001E000780
F8001E000780
F0003E000780
F0003E000F80
F0003C000F80
ENDCHAR
STARTCHAR 006E
ENCODING 110
SWIDTH 600 0
DWIDTH 30 0
BBX 26 27 4 0
BITMAP
0003F800
0F0FFE00
0F1FFF00
0F3FFF80
0F701F80
1FC00FC0
1F8007C0
1F0007C0
1F0003C0
1E0003C0
1E0003C0
3E0003C0
3E0007C0
3C000780
3C000780
3C000780
3C000780
7C000780
7C000F80
78000F00
78000F00
78000F00
F8000F00
F8001F00
F0001F00
F0001E00
F0001E00
ENDCHAR
STARTCHAR 006F
ENCODING 111
SWIDTH 580 0
DWIDTH 29 0
BBX 25 27 4 0
BITMAP
001FE000
007FF800
01FFFC00
03FFFE00
07E03F00
0F801F00
1F000F00
3E000F80
3C000F80
7C000780
78000780
78000780
F8000780
F0000780
F0000F80
F0000F00
F0000F00
F0001F00
F0001E00
F8003E00
F8007C00
7C00FC00
7E01F800
3F8FF000
1FFFC000
0FFF8000
07FE0000
ENDCHAR
STARTCHAR 0070
ENCODING 112
SWIDTH 620 0
DWIDTH 31 0
BBX 29 37 2 -10
BITMAP
0000FE00
03C3FF80
03C7FFC0
03CFFFE0
03DC03F0
07F801F0
07F001F8
07E000F8
07C000F8
07C000F8
0F800078
0F800078
0F8000F8
0F0000F8
0F0000F8
0F0000F0
1F0000F0
1F0001F0
1F0001E0
1F8003E0
1F8007C0
1FC00FC0
3EE01F80
3EF8FF00
3C7FFE00
3C3FFC00
3C1FF000
3C000000
7C000000
7C000000
78000000
78000000
78000000
78000000
F8000000
F8000000
F0000000
ENDCHAR
STARTCHAR 0071
ENCODING 113
SWIDTH 600 0
DWIDTH 30 0
BBX 27 37 4 -10
BITMAP
003F8000
00FFE1E0
03FFF1E0
07FFFBE0
0FE03BE0
0F801FC0
1F000FC0
3E000FC0
3E000FC0
7C0007C0
7C0007C0
78000780
F8000780
F8000780
F8000F80
F0000F80
F0000F80
F0001F00
F8001F00
F8003F00
F8007F00
7C00FF00
7E01DF00
7F8F9E00
3FFF1E00
1FFE1E00
07F83E00
00003E00
00003E00
00003C00
00003C00
00003C00
00007C00
00007C00
00007800
00007800
00007800
ENDCHAR
STARTCHAR 0072
ENCODING 114
SWIDTH 340 0
DWIDTH 17 0
BBX 17 26 4 0
BITMAP
0F1F80
0F3F80
0F7F80
1FFF80
1FC000
1F8000
1F0000
1F0000
1E0000
3E0000
3E0000
3C0000
3C0000
3C0000
7C0000
7C0000
780000
780000
780000
780000
F80000
F80000
F00000
F00000
F00000
F00000
ENDCHAR
STARTCHAR 0073
ENCODING 115
SWIDTH 480 0
DWIDTH 24 0
BBX 22 27 4 0
BITMAP
007F80
01FFE0
07FFF0
0FE3F8
1F00F8
1E0078
1E007C
3C007C
3C0000
3E0000
3E0000
1FC000
1FFE00
07FFC0
01FFE0
000FE0
0001F0
0000F0
F000F0
F000F0
F001F0
F801E0
F803E0
7F1FC0
7FFF80
3FFF00
0FFC00
ENDCHAR
STARTCHAR 0074
ENCODING 116
SWIDTH 400 0
DWIDTH 20 0
BBX 15 35 6 0
BITMAP
03E0
03E0
03C0
03C0
03C0
07C0
07C0
07C0
0780
FFFE
FFFE
FFFE
0F80
0F00
0F00
0F00
0F00
1F00
1F00
1E00
1E00
1E00
1E00
3E00
3E00
3C00
3C00
3C00
3C00
7C00
7C00
7C00
7FF0
3FE0
1FE0
ENDCHAR
STARTCHAR 0075
ENCODING 117
SWIDTH 600 0
DWIDTH 30 0
BBX 26 26 5 0
BITMAP
1E0003C0
1E0007C0
1E0007C0
3E000780
3E000780
3C000780
3C000780
3C000F80
3C000F80
7C000F00
7C000F00
78000F00
78001F00
78001F00
78001F00
F8001E00
F8001E00
F8003E00
F8003E00
F8007E00
FC00FE00
7E01BC00
7FCFBC00
3FFF3C00
1FFC7C00
0FF87C00
ENDCHAR
STARTCHAR 0076
ENCODING 118
SWIDTH 540 0
DWIDTH 27 0
BBX 24 26 6 0
BITMAP
F0000F
F8001F
78001E
78003E
78003C
780078
7C0078
3C00F0
3C00F0
3C01E0
3C01E0
3E03C0
1E07C0
1E0780
1E0F80
1E0F00
1F1F00
0F1E00
0F3C00
0F3C00
0F7800
0FF800
0FF000
07F000
07E000
07E000
ENDCHAR
STARTCHAR 0077
ENCODING 119
SWIDTH 800 0
DWIDTH 40 0
BBX 37 26 6 0
BITMAP
F000780078
F000F80078
F800F800F0
7801F800F0
7801FC00F0
7803FC01E0
7803FC01E0
7807BC03C0
7807BC03C0
780F3C0780
780F3C0780
781E1E0F00
3C1E1E0F00
3C3C1E0F00
3C3C1E1E00
3C781E1E00
3C781E3C00
3CF81E3C00
3CF00F7800
3DF00F7800
3DE00FF000
3FE00FF000
1FC00FF000
1FC00FE000
1F800FE000
1F800FC000
ENDCHAR
STARTCHAR 0078
ENCODING 120
SWIDTH 540 0
DWIDTH 27 0
BBX 27 26 2 0
BITMAP
078003E0
07C007C0
03C00F80
03E00F00
01E01E00
01F03E00
00F07C00
00F8F800
0078F000
007DE000
003FE000
003FC000
001F8000
003F8000
007F8000
00FFC000
00F3C000
01E3E000
03E1E000
07C1F000
0F80F000
1F00F800
1E007800
3E007C00
7C007C00
F8003E00
ENDCHAR
STARTCHAR 0079
ENCODING 121
SWIDTH 480 0
DWIDTH 24 0
BBX 29 36 0 -10
BITMAP
07C000F8
07C000F0
07C001F0
03C001E0
03C003C0
03C007C0
03E00780
01E00F80
01E00F00
01E01E00
01E01E00
01F03C00
00F03C00
00F07800
00F0F800
00F0F000
0079E000
0079E000
007BC000
007BC000
007F8000
003F8000
003F0000
003E0000
003E0000
003C0000
007C0000
00780000
00F00000
00F00000
01E00000
03E00000
0FC00000
FF800000
FF000000
FC000000
ENDCHAR
STARTCHAR 007A
ENCODING 122
SWIDTH 480 0
DWIDTH 24 0
BBX 24 26 3 0
BITMAP
07FFFF
07FFFF
0FFFFF
00001E
00003C
000078
0000F0
0001E0
0003C0
000780
000F00
001F00
003E00
007C00
00F800
01F000
03E000
07C000
0F8000
1F0000
3E0000
7C0000
FFFFF0
FFFFF0
FFFFF0
FFFFF0
ENDCHAR
STARTCHAR 007B
ENCODING 123
SWIDTH 440 0
DWIDTH 22 0
BBX 20 53 7 -11
BITMAP
0001F0
001FF0
003FF0
007F00
007800
00F000
00F000
00F000
00E000
01E000
01E000
01E000
01E000
01E000
01C000
03C000
03C000
03C000
03C000
03C000
038000
078000
078000
078000
070000
7F0000
FC0000
FE0000
0F0000
0F0000
0F0000
0F0000
0E0000
0E0000
1E0000
1E0000
1E0000
1E0000
1E0000
1C0000
3C0000
3C0000
3C0000
3C0000
3C0000
380000
780000
780000
780000
3E0000
3FF000
1FF000
07E000
ENDCHAR
STARTCHAR 007C
ENCODING 124
SWIDTH 280 0
DWIDTH 14 0
BBX 14 60 3 -12
BITMAP
003C
003C
003C
003C
0038
0038
0078
0078
0078
0078
0070
0070
00F0
00F0
00F0
00F0
00E0
00E0
01E0
01E0
01E0
01E0
01C0
01C0
03C0
03C0
03C0
03C0
0380
0380
0780
0780
0780
0780
0700
0700
0F00
0F00
0F00
0F00
0E00
0E00
1E00
1E00
1E00
1E00
1C00
3C00
3C00
3C00
3C00
3800
3800
7800
7800
7800
7800
7000
7000
F000
ENDCHAR
STARTCHAR 007D
ENCODING 125
SWIDTH 460 0
DWIDTH 23 0
BBX 20 53 4 -11
BITMAP
007E00
007FC0
007FE0
0007E0
0001E0
0001E0
0001E0
0001E0
0001E0
0001E0
0001E0
0001C0
0003C0
0003C0
0003C0
0003C0
000380
000780
000780
000780
000780
000780
000700
000700
000700
0007F0
0003F0
0007F0
000F00
000E00
001E00
001E00
001E00
001C00
003C00
003C00
003C00
003C00
003C00
003800
007800
007800
007800
007800
007800
007000
00F000
00F000
01E000
03E000
FFC000
FF8000
FC0000
ENDCHAR
STARTCHAR 007E
ENCODING 126
SWIDTH 560 0
DWIDTH 28 0
BBX 19 6 8 16
BITMAP
0F00E0
3FC1E0
7FFFC0
F1FF80
E07F00
C00C00
ENDCHAR
STARTCHAR 00A0
ENCODING 160
SWIDTH 220 0
DWIDTH 11 0
BBX 0 0 0 0
BITMAP
ENDCHAR
STARTCHAR 00A1
ENCODING 161
SWIDTH 260 0
DWIDTH 13 0
BBX 11 39 4 -13
BITMAP
0080
03E0
03E0
03E0
03E0
01C0
0000
0000
0000
0000
0700
0700
0700
0700
0F00
0F00
0E00
0E00
0E00
1E00
1E00
1E00
1E00
1E00
3C00
3C00
3C00
3C00
3C00
7C00
7C00
7C00
7800
7800
F800
F800
F800
F800
F800
ENDCHAR
STARTCHAR 00A2
ENCODING 162
SWIDTH 600 0
DWIDTH 30 0
BBX 24 33 5 -3
BITMAP
000300
000600
000600
001FC0
00FFF8
03FFFC
07FFFE
0FCC3E
1F8C1F
1F0C1F
3E0C0F
7C0C0F
7C0C0F
781800
F81800
F01800
F01800
F01800
F01000
F03000
F0301E
F0303E
F0303C
F8307C
7820F8
7C61F0
3FE7E0
3FFFC0
1FFF80
07FE00
004000
00C000
00C000
ENDCHAR
STARTCHAR 00A3
ENCODING 163
SWIDTH 580 0
DWIDTH 29 0
BBX 29 36 2 0
BITMAP
00007C00
0007FF80
001FFFC0
003FFFE0
007E07F0
00FC01F0
01F001F0
01F000F8
03E000F8
03E000F8
03E000F8
03E00000
03E00000
03E00000
03F00000
01F00000
01F80000
00F80000
00FC0000
007C0000
1FFFFC00
1FFFFC00
1FFFF800
003C0000
003C0000
007C0000
00780000
00780000
00F00000
01E00000
03C00000
07800000
7FFFFFC0
7FFFFFC0
FFFFFF80
FFFFFF80
ENDCHAR
STARTCHAR 00A4
ENCODING 164
SWIDTH 580 0
DWIDTH 29 0
BBX 25 24 5 6
BITMAP
04000100
0E020380
1F3FE780
0FFFFF00
07FFFE00
07E07C00
07803E00
0F001E00
1E000E00
1C000F00
3C000F00
38000F00
38000E00
38000E00
38001E00
38001C00
3C003C00
3E007800
1F01F000
3FEFF800
7FFFF800
F3FF3C00
E0FC3C00
40001800
ENDCHAR
STARTCHAR 00A5
ENCODING 165
SWIDTH 620 0
DWIDTH 31 0
BBX 28 35 7 0
BITMAP
7C0001F0
7C0003E0
3C0007C0
3E000780
3E000F80
1E001F00
1E001E00
1F003E00
0F007C00
0F007800
0F80F800
0781F000
0781E000
07C3E000
03C7C000
03C78000
03EF8000
01FF0000
01FE0000
01FE0000
7FFFF000
7FFFF000
7FFFF000
00F00000
00F00000
00F00000
FFFFE000
FFFFE000
FFFFE000
01E00000
01E00000
01E00000
01E00000
03E00000
03E00000
ENDCHAR
STARTCHAR 00A6
ENCODING 166
SWIDTH 280 0
DWIDTH 14 0
BBX 14 60 3 -12
BITMAP
003C
003C
003C
003C
0038
0038
0078
0078
0078
0078
0070
0070
00F0
00F0
00F0
00F0
00E0
00E0
01E0
01E0
01E0
01E0
01C0
01C0
03C0
03C0
03C0
0000
0000
0000
0000
0000
0000
0000
0000
0700
0F00
0F00
0F00
0F00
0E00
1E00
1E00
1E00
1E00
1E00
1C00
3C00
3C00
3C00
3C00
3800
3800
7800
7800
7800
7800
7000
7000
F000
ENDCHAR
STARTCHAR 00A7
ENCODING 167
SWIDTH 540 0
DWIDTH 27 0
BBX 24 36 4 0
BITMAP
0007C0
003FF8
00FFFC
01FFFE
03E03F
03C01F
07800F
07800F
078000
07C000
07E000
03FF80
03FFF0
0FFFFC
1F07FE
3E007F
3C001F
3C000F
3C000F
3C000F
3F001F
1FE03E
0FFFFC
07FFF8
00FFE0
0007F0
0000F8
0000F8
F80078
F800F8
7800F8
7C01F0
7F07E0
3FFFC0
1FFF80
07FE00
ENDCHAR
STARTCHAR 00A8
ENCODING 168
SWIDTH 360 0
DWIDTH 18 0
BBX 16 6 7 31
BITMAP
380E
7C1F
7C3F
FC3F
783E
301C
ENDCHAR
STARTCHAR 00A9
ENCODING 169
SWIDTH 800 0
DWIDTH 40 0
BBX 37 37 5 -1
BITMAP
00001F0000
0003FFF000
000FFFFC00
003FC1FF00
007C001F80
01F00007C0
03E00003C0
07800001E0
0700FF00E0
0E03FFC0F0
1E07FFE070
1C0F01F070
381E007070
383C007078
7078003838
7070002038
7070000038
E0E0000070
E0E0000070
E0E0000070
E0E0000070
E0E00070F0
E0E000E0E0
E0F001E0E0
E07803C1C0
F07C0781C0
703FFF0380
701FFE0780
7807F00F00
3C00001E00
3E00003C00
1F0000F800
0FC003F000
07FFFFC000
01FFFF0000
007FFC0000
0003000000
ENDCHAR
STARTCHAR 00AA
ENCODING 170
SWIDTH 140 0
DWIDTH 7 0
BBX 7 8 4 19
BITMAP
10
7E
66
C6
C6
CE
F6
6C
ENDCHAR
STARTCHAR 00AB
ENCODING 171
SWIDTH 620 0
DWIDTH 31 0
BBX 29 21 5 5
BITMAP
003E00F8
007C01E0
00F803C0
01F00780
03E01F00
07803E00
0F007C00
1E00F800
3C01F000
F803E000
F807C000
7803E000
7C01F000
3E00F000
1F00F800
0F007C00
07803E00
07C01E00
03E00F00
01E00F80
00F007C0
ENDCHAR
STARTCHAR 00AC
ENCODING 172
SWIDTH 640 0
DWIDTH 32 0
BBX 25 13 8 14
BITMAP
FFFFFF80
FFFFFF80
FFFFFF80
FFFFFF80
00000780
00000700
00000700
00000700
00000F00
00000F00
00000F00
00000E00
00000E00
ENDCHAR
STARTCHAR 00AD
ENCODING 173
SWIDTH 600 0
DWIDTH 30 0
BBX 19 3 11 14
BITMAP
FFFFE0
FFFFC0
FFFFC0
ENDCHAR
STARTCHAR 00AE
ENCODING 174
SWIDTH 340 0
DWIDTH 17 0
BBX 13 13 7 22
BITMAP
07C0
1EE0
3030
6790
4498
CC98
CF18
C910
C930
C060
60C0
3F80
0400
ENDCHAR
STARTCHAR 00AF
ENCODING 175
SWIDTH 360 0
DWIDTH 18 0
BBX 15 2 7 32
BITMAP
FFFE
FFFE
ENDCHAR
STARTCHAR 00B0
ENCODING 176
SWIDTH 300 0
DWIDTH 15 0
BBX 10 9 9 34
BITMAP
1F00
3F80
71C0
60C0
C0C0
E1C0
E380
7F00
3E00
ENDCHAR
STARTCHAR 00B1
ENCODING 177
SWIDTH 600 0
DWIDTH 30 0
BBX 23 27 5 0
BITMAP
000780
000780
000700
000F00
000F00
000F00
000F00
000E00
0FFFFE
1FFFFE
1FFFFE
001E00
001E00
001C00
003C00
003C00
003C00
003C00
003C00
000000
000000
000000
000000
000000
7FFFF8
7FFFF0
FFFFF0
ENDCHAR
STARTCHAR 00B2
ENCODING 178
SWIDTH 300 0
DWIDTH 15 0
BBX 14 19 5 19
BITMAP
03F0
07F8
0F7C
1C1C
381C
381C
001C
0018
0038
0070
01E0
03C0
0780
0E00
3C00
7800
FFF8
FFF0
FFF0
ENDCHAR
STARTCHAR 00B3
ENCODING 179
SWIDTH 300 0
DWIDTH 15 0
BBX 15 19 5 19
BITMAP
03F0
07FC
0F3C
1C0E
380E
000E
001C
003C
03F8
03E0
03F8
0038
001C
001C
E038
F038
78F0
7FE0
1FC0
ENDCHAR
STARTCHAR 00B4
ENCODING 180
SWIDTH 240 0
DWIDTH 12 0
BBX 10 9 7 31
BITMAP
03C0
07C0
0F80
0F00
1E00
3C00
3800
7000
F000
ENDCHAR
STARTCHAR 00B5
ENCODING 181
SWIDTH 640 0
DWIDTH 32 0
BBX 29 36 2 -10
BITMAP
03C001E0
03C001E0
07C003E0
07C003E0
078003C0
078003C0
078003C0
078003C0
0F8007C0
0F8007C0
0F000780
0F000780
0F000780
0F000780
1F000F80
1F000F80
1E000F00
1E001F00
1E001F00
3E003F00
3F007F00
3F00EF00
3FC3CF80
3FFF8FF8
3FFF0FF8
7DFC07F0
7C000000
78000000
78000000
78000000
78000000
F8000000
F8000000
F0000000
F0000000
F0000000
ENDCHAR
STARTCHAR 00B6
ENCODING 182
SWIDTH 520 0
DWIDTH 26 0
BBX 24 35 5 0
BITMAP
00FFFF
03FFFF
0FFFFF
1FFFFF
1FFF86
3FFF8E
7FFF8E
7FFF0E
7FFF0E
7FFF0E
FFFF1C
7FFF1C
7FFF1C
7FFE1C
7FFE1C
3FFE1C
1FFE38
07FE38
000E38
001C38
001C38
001C38
001C70
001C70
001C70
003870
003870
003870
0038E0
0038E0
0038E0
0070E0
0070E0
0070C0
0071C0
ENDCHAR
STARTCHAR 00B7
ENCODING 183
SWIDTH 280 0
DWIDTH 14 0
BBX 6 6 8 15
BITMAP
78
FC
FC
FC
F8
20
ENDCHAR
STARTCHAR 00B8
ENCODING 184
SWIDTH 240 0
DWIDTH 12 0
BBX 10 12 0 -12
BITMAP
1800
3800
3000
7F00
7F80
03C0
01C0
01C0
0180
8780
FF00
FE00
ENDCHAR
STARTCHAR 00B9
ENCODING 185
SWIDTH 240 0
DWIDTH 12 0
BBX 10 19 5 19
BITMAP
0380
0780
0F80
3F80
3B80
2380
0300
0700
0700
0700
0700
0700
0600
0E00
0E00
0E00
FFC0
FFC0
FFC0
ENDCHAR
STARTCHAR 00BA
ENCODING 186
SWIDTH 160 0
DWIDTH 8 0
BBX 7 8 4 19
BITMAP
08
3E
66
42
C6
46
7C
30
ENDCHAR
STARTCHAR 00BB
ENCODING 187
SWIDTH 620 0
DWIDTH 31 0
BBX 29 21 3 5
BITMAP
0F807C00
07803E00
03C01F00
03E00F00
01F00780
00F007C0
007803E0
007C01E0
003E00F0
001F00F8
001F0078
003E01F0
007C03E0
00F007C0
01E00F80
03C01F00
0F803E00
1F007800
3E00F000
7C01E000
F803C000
ENDCHAR
STARTCHAR 00BC
ENCODING 188
SWIDTH 800 0
DWIDTH 40 0
BBX 35 35 5 0
BITMAP
03C00003C0
0780000780
1F80000F00
3F80001F00
3B80001E00
3380003C00
2380007800
070000F000
070000F000
070001E000
070003C000
0700078000
0700078000
0E000F0000
0E001E0000
FFC03C0000
FFC07C0000
FFC07803C0
0000F003C0
0001E007C0
0003C00FC0
0003C01DC0
0007803BC0
000F007380
001E006380
001E00C380
003C01C380
0078038380
00F003FFE0
01E007FFE0
01E007FFC0
03C0000700
0780000700
0F00000700
0F00000E00
ENDCHAR
STARTCHAR 00BD
ENCODING 189
SWIDTH 840 0
DWIDTH 42 0
BBX 37 35 5 0
BITMAP
03C00001E0
07800003C0
1F80000780
3F80000F80
3B80000F00
3380001E00
2380003C00
0700007800
0700007800
070000F000
070001E000
070003C000
070003C000
0E00078000
0E000F0000
FFC01E0000
FFC03E0000
FFC03C03E0
0000780FF0
0000F01FF8
0001E03C38
0001E03838
0003C07038
0007800038
000F000070
000F0000F0
001E0001E0
003C0003C0
0078000F00
00F8001E00
00F0003C00
01E0007800
03C000FFF0
078001FFE0
078001FFE0
ENDCHAR
STARTCHAR 00BE
ENCODING 190
SWIDTH 840 0
DWIDTH 42 0
BBX 35 35 6 0
BITMAP
07F00003C0
1FF80007C0
1FF8000780
383C000F00
383C001E00
0038003C00
0038003C00
01F0007800
07E000F000
07E001E000
007001E000
007003C000
0070078000
E0700F0000
F0F01F0000
FFE01E0000
7FC03C0000
3F007801E0
0000F003E0
0000F007E0
0001E007E0
0003C00DC0
0007801DC0
00078039C0
000F0071C0
001E0061C0
003C00C380
007C018380
007803FFE0
00F003FFE0
01E003FFE0
03C0000380
03C0000700
0780000700
0F00000700
ENDCHAR
STARTCHAR 00BF
ENCODING 191
SWIDTH 520 0
DWIDTH 26 0
BBX 23 36 4 -12
BITMAP
0001C0
0003E0
0007E0
0007E0
0007C0
000380
000000
000000
000000
000000
000780
000F80
000F00
001F00
003E00
007C00
00F800
03F000
07E000
0F8000
1F0000
3E0000
3C0000
7C0000
780000
F8001E
F8001E
F8003E
F8003C
F8007C
FC00F8
7E01F8
7FFFF0
3FFFE0
1FFF80
07FE00
ENDCHAR
STARTCHAR 00C0
ENCODING 192
SWIDTH 680 0
DWIDTH 34 0
BBX 30 48 2 0
BITMAP
0001F000
0000F000
0000F800
00007800
00007800
00003C00
00003C00
00001C00
00001E00
00000000
00000000
00000000
00000000
00001E00
00003E00
00003F00
00007F00
0000FF00
0000FF00
0001EF00
0001E780
0003C780
0003C780
00078780
00078780
000F03C0
000F03C0
001E03C0
003E03C0
003C03C0
007C03E0
007801E0
00F001E0
00F001E0
01FFFFE0
01FFFFF0
03FFFFF0
03FFFFF0
078000F0
0F8000F8
0F0000F8
1F000078
1E000078
3E000078
3C00007C
7C00007C
7800003C
F000003C
ENDCHAR
STARTCHAR 00C1
ENCODING 193
SWIDTH 680 0
DWIDTH 34 0
BBX 31 48 2 0
BITMAP
0000003E
0000003C
00000078
000000F0
000001F0
000001E0
000003C0
00000780
00000700
00000800
00000000
00000000
00000000
00001E00
00003E00
00003F00
00007F00
0000FF00
0000FF00
0001EF00
0001E780
0003C780
0003C780
00078780
00078780
000F03C0
000F03C0
001E03C0
003E03C0
003C03C0
007C03E0
007801E0
00F001E0
00F001E0
01FFFFE0
01FFFFF0
03FFFFF0
03FFFFF0
078000F0
0F8000F8
0F0000F8
1F000078
1E000078
3E000078
3C00007C
7C00007C
7800003C
F000003C
ENDCHAR
STARTCHAR 00C2
ENCODING 194
SWIDTH 680 0
DWIDTH 34 0
BBX 30 46 2 0
BITMAP
00000780
00000F80
00001FC0
00003DE0
0000F9F0
0001F0F0
0003E078
0007C07C
00000000
00000000
00000000
00001E00
00003E00
00003F00
00007F00
0000FF00
0000FF00
0001EF00
0001E780
0003C780
0003C780
00078780
00078780
000F03C0
000F03C0
001E03C0
003E03C0
003C03C0
007C03E0
007801E0
00F001E0
00F001E0
01FFFFE0
01FFFFF0
03FFFFF0
03FFFFF0
078000F0
0F8000F8
0F0000F8
1F000078
1E000078
3E000078
3C00007C
7C00007C
7800003C
F000003C
ENDCHAR
STARTCHAR 00C3
ENCODING 195
SWIDTH 680 0
DWIDTH 34 0
BBX 31 45 2 0
BITMAP
00007C0E
0000FF3C
0001FFF8
000387F0
000380E0
00000000
00000000
00000000
00000000
00000000
00001E00
00003E00
00003F00
00007F00
0000FF00
0000FF00
0001EF00
0001E780
0003C780
0003C780
00078780
00078780
000F03C0
000F03C0
001E03C0
003E03C0
003C03C0
007C03E0
007801E0
00F001E0
00F001E0
01FFFFE0
01FFFFF0
03FFFFF0
03FFFFF0
078000F0
0F8000F8
0F0000F8
1F000078
1E000078
3E000078
3C00007C
7C00007C
7800003C
F000003C
ENDCHAR
STARTCHAR 00C4
ENCODING 196
SWIDTH 680 0
DWIDTH 34 0
BBX 30 45 2 1
BITMAP
0000F07C
0001F07C
0001F0FC
0001F0FC
0001E078
00000000
00000000
00000000
00000000
00000000
00001E00
00003E00
00003F00
00007F00
0000FF00
0000FF00
0001EF00
0001E780
0003C780
0003C780
00078780
00078780
000F03C0
000F03C0
001E03C0
003E03C0
003C03C0
007C03E0
007801E0
00F001E0
00F001E0
01FFFFE0
01FFFFF0
03FFFFF0
03FFFFF0
078000F0
0F8000F8
0F0000F8
1F000078
1E000078
3E000078
3C00007C
7C00007C
7800003C
F000003C
ENDCHAR
STARTCHAR 00C5
ENCODING 197
SWIDTH 680 0
DWIDTH 34 0
BBX 30 48 2 0
BITMAP
00000780
00000FC0
000018E0
00003060
00003060
000030C0
000039C0
00001F80
00000E00
00000000
00000000
00000000
00000000
00001E00
00003E00
00003F00
00007F00
0000FF00
0000FF00
0001EF00
0001E780
0003C780
0003C780
00078780
00078780
000F03C0
000F03C0
001E03C0
003E03C0
003C03C0
007C03E0
007801E0
00F001E0
00F001E0
01FFFFE0
01FFFFF0
03FFFFF0
03FFFFF0
078000F0
0F8000F8
0F0000F8
1F000078
1E000078
3E000078
3C00007C
7C00007C
7800003C
F000003C
ENDCHAR
STARTCHAR 00C6
ENCODING 198
SWIDTH 940 0
DWIDTH 47 0
BBX 50 35 1 0
BITMAP
000000FFFFFFC0
000000FFFFFF80
000001FFFFFF80
000003FFFFFF80
000003FF000000
000007DF000000
00000F9E000000
00001F1E000000
00001F1E000000
00003E3E000000
00007C3E000000
00007C3C000000
0000F83C000000
0001F03C000000
0003E03C000000
0003E07FFFF800
0007C07FFFF800
000F807FFFF800
000F807FFFF000
001F0078000000
003E0078000000
003FFFF8000000
007FFFF8000000
00FFFFF0000000
01FFFFF0000000
01F000F0000000
03E000F0000000
07C001F0000000
078001F0000000
0F8001E0000000
1F0001E0000000
3E0001FFFFF000
3E0003FFFFF000
7C0003FFFFF000
F80003FFFFF000
ENDCHAR
STARTCHAR 00C7
ENCODING 199
SWIDTH 700 0
DWIDTH 35 0
BBX 32 48 5 -12
BITMAP
00007E00
0007FFC0
001FFFF0
007FFFF8
00FF03FC
01F800FC
03F0007E
07E0003E
07C0001F
0F80001F
1F00000F
1F00000F
3E00000F
3E000000
3C000000
7C000000
7C000000
78000000
78000000
F8000000
F8000000
F8000000
F8000000
F8000000
F8000000
7800007C
78000078
7C0000F8
7C0001F0
3E0003E0
3F0007E0
1FC01F80
0FFFFF00
07FFFE00
03FFF800
00FFE000
000E0000
000C0000
001C0000
001FC000
003FE000
0000E000
00006000
00006000
0000E000
0023C000
003F8000
003F0000
ENDCHAR
STARTCHAR 00C8
ENCODING 200
SWIDTH 560 0
DWIDTH 28 0
BBX 27 48 4 0
BITMAP
001E0000
001F0000
000F0000
000F0000
00078000
00078000
0003C000
0003C000
0001C000
00000000
00000000
00000000
00000000
03FFFFE0
07FFFFE0
07FFFFE0
07FFFFE0
07800000
07800000
07800000
0F800000
0F800000
0F000000
0F000000
0F000000
0F000000
1F000000
1F000000
1FFFFE00
1FFFFC00
1FFFFC00
1FFFFC00
3E000000
3E000000
3C000000
3C000000
3C000000
3C000000
7C000000
7C000000
78000000
78000000
78000000
F8000000
FFFFFC00
FFFFFC00
FFFFFC00
FFFFF800
ENDCHAR
STARTCHAR 00C9
ENCODING 201
SWIDTH 560 0
DWIDTH 28 0
BBX 27 48 4 0
BITMAP
000003C0
000007C0
00000F80
00000F00
00001E00
00003C00
00003800
00007800
0000F000
00000000
00000000
00000000
00000000
03FFFFE0
07FFFFE0
07FFFFE0
07FFFFE0
07800000
07800000
07800000
0F800000
0F800000
0F000000
0F000000
0F000000
0F000000
1F000000
1F000000
1FFFFE00
1FFFFC00
1FFFFC00
1FFFFC00
3E000000
3E000000
3C000000
3C000000
3C000000
3C000000
7C000000
7C000000
78000000
78000000
78000000
F8000000
FFFFFC00
FFFFFC00
FFFFFC00
FFFFF800
ENDCHAR
STARTCHAR 00CA
ENCODING 202
SWIDTH 560 0
DWIDTH 28 0
BBX 27 46 4 0
BITMAP
0000F000
0001F800
0003FC00
0007BC00
000F1E00
001E0F00
003C0F80
00780780
00000000
00000000
00000000
03FFFFE0
07FFFFE0
07FFFFE0
07FFFFE0
07800000
07800000
07800000
0F800000
0F800000
0F000000
0F000000
0F000000
0F000000
1F000000
1F000000
1FFFFE00
1FFFFC00
1FFFFC00
1FFFFC00
3E000000
3E000000
3C000000
3C000000
3C000000
3C000000
7C000000
7C000000
78000000
78000000
78000000
F8000000
FFFFFC00
FFFFFC00
FFFFFC00
FFFFF800
ENDCHAR
STARTCHAR 00CB
ENCODING 203
SWIDTH 560 0
DWIDTH 28 0
BBX 27 46 4 0
BITMAP
00040000
001E0780
003F0FC0
003F0FC0
003E0F80
001C0700
00000000
00000000
00000000
00000000
00000000
03FFFFE0
07FFFFE0
07FFFFE0
07FFFFE0
07800000
07800000
07800000
0F800000
0F800000
0F000000
0F000000
0F000000
0F000000
1F000000
1F000000
1FFFFE00
1FFFFC00
1FFFFC00
1FFFFC00
3E000000
3E000000
3C000000
3C000000
3C000000
3C000000
7C000000
7C000000
78000000
78000000
78000000
F8000000
FFFFFC00
FFFFFC00
FFFFFC00
FFFFF800
ENDCHAR
STARTCHAR 00CC
ENCODING 204
SWIDTH 240 0
DWIDTH 12 0
BBX 10 48 4 0
BITMAP
3E00
1E00
1F00
0F00
0F00
0780
0780
03C0
03C0
0000
0000
0000
0000
03C0
03C0
07C0
07C0
0780
0780
0780
0780
0F80
0F80
0F00
0F00
0F00
0F00
1F00
1F00
1E00
1E00
1E00
1E00
3E00
3E00
3C00
3C00
3C00
7C00
7C00
7C00
7800
7800
7800
F800
F800
F800
F000
ENDCHAR
STARTCHAR 00CD
ENCODING 205
SWIDTH 240 0
DWIDTH 12 0
BBX 18 48 4 0
BITMAP
0007C0
000780
000F00
001F00
001E00
003C00
007800
00F000
00E000
000000
000000
000000
000000
03C000
03C000
07C000
07C000
078000
078000
078000
078000
0F8000
0F8000
0F0000
0F0000
0F0000
0F0000
1F0000
1F0000
1E0000
1E0000
1E0000
1E0000
3E0000
3E0000
3C0000
3C0000
3C0000
7C0000
7C0000
7C0000
780000
780000
780000
F80000
F80000
F80000
F00000
ENDCHAR
STARTCHAR 00CE
ENCODING 206
SWIDTH 240 0
DWIDTH 12 0
BBX 17 46 4 0
BITMAP
00F000
01F800
03F800
07BC00
0F3E00
1E1E00
7C0F00
F80780
000000
000000
000000
03C000
03C000
07C000
07C000
078000
078000
078000
078000
0F8000
0F8000
0F0000
0F0000
0F0000
0F0000
1F0000
1F0000
1E0000
1E0000
1E0000
1E0000
3E0000
3E0000
3C0000
3C0000
3C0000
7C0000
7C0000
7C0000
780000
780000
780000
F80000
F80000
F80000
F00000
ENDCHAR
STARTCHAR 00CF
ENCODING 207
SWIDTH 240 0
DWIDTH 12 0
BBX 17 45 4 1
BITMAP
1E0F80
3E0F80
3E1F80
3E0F80
3C0F00
000000
000000
000000
000000
000000
03C000
03C000
07C000
07C000
078000
078000
078000
078000
0F8000
0F8000
0F0000
0F0000
0F0000
0F0000
1F0000
1F0000
1E0000
1E0000
1E0000
1E0000
3E0000
3E0000
3C0000
3C0000
3C0000
7C0000
7C0000
7C0000
780000
780000
780000
F80000
F80000
F80000
F00000
ENDCHAR
STARTCHAR 00D0
ENCODING 208
SWIDTH 700 0
DWIDTH 35 0
BBX 32 35 5 0
BITMAP
03FFFC00
03FFFF80
03FFFFE0
07FFFFF0
07C007F8
078001FC
0780007C
0780003E
0780003E
0F80001E
0F80001F
0F00001F
0F00001F
0F00001F
0F00001F
1F00001F
FFFC001F
FFFC001F
FFFC001E
1E00001E
1E00003E
3E00003E
3C00003C
3C00007C
3C000078
3C0000F8
3C0001F0
7C0003E0
78000FE0
78001FC0
7801FF00
7FFFFE00
7FFFFC00
FFFFF000
FFFF0000
ENDCHAR
STARTCHAR 00D1
ENCODING 209
SWIDTH 700 0
DWIDTH 35 0
BBX 34 45 4 0
BITMAP
0000F83800
0003FE7800
0003FFF000
00070FE000
0006018000
0000000000
0000000000
0000000000
0000000000
0000000000
03E00007C0
07E00007C0
07F0000780
07F0000780
07F8000780
07F8000780
07FC000F80
0FFC000F00
0FBE000F00
0F3E000F00
0F1F000F00
0F1F000F00
0F0F801F00
1F0F801E00
1F07C01E00
1E07C01E00
1E03E01E00
1E03E03E00
1E01F03E00
3E01F03C00
3E00F83C00
3C00F83C00
3C007C3C00
3C007C7C00
3C003E7C00
7C003E7800
78001F7800
78001F7800
78000FF800
78000FF800
F80007F800
F80007F000
F00003F000
F00003F000
F00001F000
ENDCHAR
STARTCHAR 00D2
ENCODING 210
SWIDTH 720 0
DWIDTH 36 0
BBX 32 48 5 0
BITMAP
0003C000
0003E000
0001E000
0001E000
0000F000
0000F000
00007000
00007800
00003800
00000000
00000000
00000000
0000FE00
0007FFC0
001FFFE0
007FFFF8
00FF07FC
01FC00FC
03F0007E
07E0003E
0FC0001F
0F80001F
1F00001F
1E00000F
3E00000F
3C00000F
7C00000F
7C00000F
7800000F
7800000F
F800000F
F800001F
F800001F
F800001E
F800003E
F800003E
F800003C
F800007C
780000F8
7C0000F8
7C0001F0
7E0003E0
3F000FE0
1FC03F80
1FFFFF00
0FFFFE00
03FFF800
00FFE000
ENDCHAR
STARTCHAR 00D3
ENCODING 211
SWIDTH 720 0
DWIDTH 36 0
BBX 32 48 5 0
BITMAP
00000078
000000F8
000001F0
000001E0
000003C0
00000780
00000F00
00000E00
00001E00
00000000
00000000
00000000
0000FE00
0007FFC0
001FFFE0
007FFFF8
00FF07FC
01FC00FC
03F0007E
07E0003E
0FC0001F
0F80001F
1F00001F
1E00000F
3E00000F
3C00000F
7C00000F
7C00000F
7800000F
7800000F
F800000F
F800001F
F800001F
F800001E
F800003E
F800003E
F800003C
F800007C
780000F8
7C0000F8
7C0001F0
7E0003E0
3F000FE0
1FC03F80
1FFFFF00
0FFFFE00
03FFF800
00FFE000
ENDCHAR
STARTCHAR 00D4
ENCODING 212
SWIDTH 720 0
DWIDTH 36 0
BBX 32 46 5 0
BITMAP
00001E00
00003F00
00007F80
0000F780
0001E3C0
0003C3E0
000781E0
000F00F0
00000000
00000000
0000FE00
0007FFC0
001FFFE0
007FFFF8
00FF07FC
01FC00FC
03F0007E
07E0003E
0FC0001F
0F80001F
1F00001F
1E00000F
3E00000F
3C00000F
7C00000F
7C00000F
7800000F
7800000F
F800000F
F800001F
F800001F
F800001E
F800003E
F800003E
F800003C
F800007C
780000F8
7C0000F8
7C0001F0
7E0003E0
3F000FE0
1FC03F80
1FFFFF00
0FFFFE00
03FFF800
00FFE000
ENDCHAR
STARTCHAR 00D5
ENCODING 213
SWIDTH 720 0
DWIDTH 36 0
BBX 32 45 5 0
BITMAP
0001F838
0003FE70
0007FFF0
00070FE0
000E0300
00000000
00000000
00000000
00000000
0000FE00
0007FFC0
001FFFE0
007FFFF8
00FF07FC
01FC00FC
03F0007E
07E0003E
0FC0001F
0F80001F
1F00001F
1E00000F
3E00000F
3C00000F
7C00000F
7C00000F
7800000F
7800000F
F800000F
F800001F
F800001F
F800001E
F800003E
F800003E
F800003C
F800007C
780000F8
7C0000F8
7C0001F0
7E0003E0
3F000FE0
1FC03F80
1FFFFF00
0FFFFE00
03FFF800
00FFE000
ENDCHAR
STARTCHAR 00D6
ENCODING 214
SWIDTH 720 0
DWIDTH 36 0
BBX 32 45 5 1
BITMAP
0003C0F0
0007E1F0
0007E1F0
0007C1F0
000381E0
00000000
00000000
00000000
00000000
0000FE00
0007FFC0
001FFFE0
007FFFF8
00FF07FC
01FC00FC
03F0007E
07E0003E
0FC0001F
0F80001F
1F00001F
1E00000F
3E00000F
3C00000F
7C00000F
7C00000F
7800000F
7800000F
F800000F
F800001F
F800001F
F800001E
F800003E
F800003E
F800003C
F800007C
780000F8
7C0000F8
7C0001F0
7E0003E0
3F000FE0
1FC03F80
1FFFFF00
0FFFFE00
03FFF800
00FFE000
ENDCHAR
STARTCHAR 00D7
ENCODING 215
SWIDTH 540 0
DWIDTH 27 0
BBX 18 17 8 7
BITMAP
080100
1C0380
7C07C0
3E0F80
1F3F00
1FFE00
0FF800
07F000
03E000
07F000
1FF800
3FFC00
7C7E00
F83E00
F01E00
E00C00
400000
ENDCHAR
STARTCHAR 00D8
ENCODING 216
SWIDTH 740 0
DWIDTH 37 0
BBX 35 39 4 -2
BITMAP
00000001E0
00003F03C0
0003FFE780
000FFFFF80
003FFFFF00
007F83FE00
00FE007F00
01F8007F00
03F000FF80
03E000FF80
07C001EF80
0F8003C780
0F800787C0
1F000F07C0
1F000F07C0
1E001E07C0
3E003C07C0
3E007807C0
3C00F00780
3C01F00780
7C01E00780
7C03C00F80
7C07800F80
7C0F000F00
7C1F001F00
7C1E001F00
3C3C003E00
3E78003E00
3EF0007C00
3FE000F800
1FE001F800
1FC007F000
0FE01FE000
0FFFFF8000
1FFFFF0000
3FFFFC0000
3C7FF00000
7800000000
F000000000
ENDCHAR
STARTCHAR 00D9
ENCODING 217
SWIDTH 680 0
DWIDTH 34 0
BBX 32 48 5 0
BITMAP
000F8000
00078000
0007C000
0003C000
0003C000
0001E000
0001E000
0000F000
0000F000
00000000
00000000
00000000
00000000
0F00000F
0F00001F
0F00001F
0F00001E
1F00001E
1F00001E
1E00001E
1E00003E
1E00003C
1E00003C
3E00003C
3E00003C
3C00007C
3C00007C
3C000078
3C000078
7C000078
78000078
780000F8
780000F8
780000F0
780000F0
780001F0
F80001F0
F80001E0
780003E0
780003C0
7C0007C0
7C000F80
7E001F80
3F807F00
1FFFFE00
1FFFFC00
07FFF000
03FFC000
ENDCHAR
STARTCHAR 00DA
ENCODING 218
SWIDTH 680 0
DWIDTH 34 0
BBX 32 48 5 0
BITMAP
000000F0
000001E0
000003C0
000007C0
00000780
00000F00
00001E00
00001C00
00003800
00000000
00000000
00000000
00000000
0F00000F
0F00001F
0F00001F
0F00001E
1F00001E
1F00001E
1E00001E
1E00003E
1E00003C
1E00003C
3E00003C
3E00003C
3C00007C
3C00007C
3C000078
3C000078
7C000078
78000078
780000F8
780000F8
780000F0
780000F0
780001F0
F80001F0
F80001E0
780003E0
780003C0
7C0007C0
7C000F80
7E001F80
3F807F00
1FFFFE00
1FFFFC00
07FFF000
03FFC000
ENDCHAR
STARTCHAR 00DB
ENCODING 219
SWIDTH 680 0
DWIDTH 34 0
BBX 32 46 5 0
BITMAP
00003C00
00007E00
0000FE00
0001EF00
0003C780
000787C0
000F03C0
003E01E0
00000000
00000000
00000000
0F00000F
0F00001F
0F00001F
0F00001E
1F00001E
1F00001E
1E00001E
1E00003E
1E00003C
1E00003C
3E00003C
3E00003C
3C00007C
3C00007C
3C000078
3C000078
7C000078
78000078
780000F8
780000F8
780000F0
780000F0
780001F0
F80001F0
F80001E0
780003E0
780003C0
7C0007C0
7C000F80
7E001F80
3F807F00
1FFFFE00
1FFFFC00
07FFF000
03FFC000
ENDCHAR
STARTCHAR 00DC
ENCODING 220
SWIDTH 680 0
DWIDTH 34 0
BBX 32 45 5 1
BITMAP
000781E0
000F83E0
000F83E0
000F83E0
000F03C0
00000000
00000000
00000000
00000000
00000000
0F00000F
0F00001F
0F00001F
0F00001E
1F00001E
1F00001E
1E00001E
1E00003E
1E00003C
1E00003C
3E00003C
3E00003C
3C00007C
3C00007C
3C000078
3C000078
7C000078
78000078
780000F8
780000F8
780000F0
780000F0
780001F0
F80001F0
F80001E0
780003E0
780003C0
7C0007C0
7C000F80
7E001F80
3F807F00
1FFFFE00
1FFFFC00
07FFF000
03FFC000
ENDCHAR
STARTCHAR 00DD
ENCODING 221
SWIDTH 600 0
DWIDTH 30 0
BBX 26 48 8 0
BITMAP
00001E00
00003C00
00007C00
0000F800
0000F000
0001E000
0003C000
00038000
00070000
00000000
00000000
00000000
00000000
F80003C0
F80007C0
F8000F80
78000F00
7C001F00
3C003E00
3C003C00
3E007C00
1E00F800
1E00F000
1F01F000
0F03E000
0F03C000
0F87C000
078F8000
078F0000
07DF0000
03FE0000
03FC0000
03FC0000
01F80000
01F00000
01F00000
01E00000
01E00000
01E00000
01E00000
03E00000
03E00000
03C00000
03C00000
03C00000
03C00000
07C00000
07C00000
ENDCHAR
STARTCHAR 00DE
ENCODING 222
SWIDTH 580 0
DWIDTH 29 0
BBX 27 35 4 0
BITMAP
03C00000
07C00000
07800000
07800000
07800000
07800000
07FFF800
0FFFFE00
0FFFFF00
0FFFFF80
0F001FC0
0F0007C0
0F0003E0
1F0003E0
1E0001E0
1E0001E0
1E0001E0
1E0001E0
1E0003E0
3E0003C0
3C0003C0
3C0007C0
3C000F80
3C001F00
3C007E00
7FFFFC00
7FFFF800
7FFFE000
7FFF0000
78000000
F8000000
F8000000
F0000000
F0000000
F0000000
ENDCHAR
STARTCHAR 00DF
ENCODING 223
SWIDTH 560 0
DWIDTH 28 0
BBX 26 36 4 0
BITMAP
0007E000
003FFC00
007FFE00
00FFFF00
01F01F80
03E00F80
03C00780
078007C0
078007C0
0F800780
0F000780
0F000780
0F000F00
0F001F00
1F003E00
1F00FC00
1E3FF000
1E3FC000
1E3FF000
1E00FC00
3E003E00
3E001E00
3C001E00
3C000E00
3C000F00
7C000E00
7C001E00
78001E00
78001E00
78003C00
78007C00
F801F800
F80FF000
F0FFE000
F0FFC000
F0FF0000
ENDCHAR
STARTCHAR 00E0
ENCODING 224
SWIDTH 600 0
DWIDTH 30 0
BBX 27 39 4 0
BITMAP
003C0000
003E0000
001E0000
001E0000
000F0000
000F0000
00078000
00078000
00038000
00000000
00000000
00000000
003F8000
00FFE1E0
03FFF1E0
07FFFBE0
0FE03BE0
0F801FC0
1F000FC0
3E000FC0
3C0007C0
7C0007C0
780007C0
78000780
F8000780
F8000780
F8000F80
F0000F80
F0000F80
F0001F00
F8001F00
F8003F00
F8007F00
7C00FF00
7E01DF00
7F8F9E00
3FFF1E00
1FFE1E00
07F83E00
ENDCHAR
STARTCHAR 00E1
ENCODING 225
SWIDTH 600 0
DWIDTH 30 0
BBX 27 39 4 0
BITMAP
00000780
00000F00
00001E00
00003E00
00003C00
00007800
0000F000
0000E000
0001C000
00000000
00000000
00000000
003F8000
00FFE1E0
03FFF1E0
07FFFBE0
0FE03BE0
0F801FC0
1F000FC0
3E000FC0
3C0007C0
7C0007C0
780007C0
78000780
F8000780
F8000780
F8000F80
F0000F80
F0000F80
F0001F00
F8001F00
F8003F00
F8007F00
7C00FF00
7E01DF00
7F8F9E00
3FFF1E00
1FFE1E00
07F83E00
ENDCHAR
STARTCHAR 00E2
ENCODING 226
SWIDTH 600 0
DWIDTH 30 0
BBX 27 37 4 0
BITMAP
0001E000
0003F000
0007F800
000F7C00
001E3C00
003C1E00
00F81F00
00000000
00000000
00000000
003F8000
00FFE1E0
03FFF1E0
07FFFBE0
0FE03BE0
0F801FC0
1F000FC0
3E000FC0
3C0007C0
7C0007C0
780007C0
78000780
F8000780
F8000780
F8000F80
F0000F80
F0000F80
F0001F00
F8001F00
F8003F00
F8007F00
7C00FF00
7E01DF00
7F8F9E00
3FFF1E00
1FFE1E00
07F83E00
ENDCHAR
STARTCHAR 00E3
ENCODING 227
SWIDTH 600 0
DWIDTH 30 0
BBX 27 37 4 0
BITMAP
00000380
001F8380
003FFF00
007BFF00
00F0FC00
00000000
00000000
00000000
00000000
00000000
003F8000
00FFE1E0
03FFF1E0
07FFFBE0
0FE03BE0
0F801FC0
1F000FC0
3E000FC0
3C0007C0
7C0007C0
780007C0
78000780
F8000780
F8000780
F8000F80
F0000F80
F0000F80
F0001F00
F8001F00
F8003F00
F8007F00
7C00FF00
7E01DF00
7F8F9E00
3FFF1E00
1FFE1E00
07F83E00
ENDCHAR
STARTCHAR 00E4
ENCODING 228
SWIDTH 600 0
DWIDTH 30 0
BBX 27 37 4 0
BITMAP
001C0600
003E0F00
007E1F80
007E1F00
007C1F00
00380C00
00000000
00000000
00000000
00000000
003F8000
00FFE1E0
03FFF1E0
07FFFBE0
0FE03BE0
0F801FC0
1F000FC0
3E000FC0
3C0007C0
7C0007C0
780007C0
78000780
F8000780
F8000780
F8000F80
F0000F80
F0000F80
F0001F00
F8001F00
F8003F00
F8007F00
7C00FF00
7E01DF00
7F8F9E00
3FFF1E00
1FFE1E00
07F83E00
ENDCHAR
STARTCHAR 00E5
ENCODING 229
SWIDTH 600 0
DWIDTH 30 0
BBX 27 39 4 0
BITMAP
0001F000
0003F800
00061800
00061800
000C1800
00063800
0007F000
0003E000
00000000
00000000
00000000
00000000
003F8000
00FFE1E0
03FFF1E0
07FFFBE0
0FE03BE0
0F801FC0
1F000FC0
3E000FC0
3C0007C0
7C0007C0
780007C0
78000780
F8000780
F8000780
F8000F80
F0000F80
F0000F80
F0001F00
F8001F00
F8003F00
F8007F00
7C00FF00
7E01DF00
7F8F9E00
3FFF1E00
1FFE1E00
07F83E00
ENDCHAR
STARTCHAR 00E6
ENCODING 230
SWIDTH 940 0
DWIDTH 47 0
BBX 43 27 4 0
BITMAP
001F8003F800
00FFF01FFE00
01FFF83FFF00
07FFF87FFF80
07C07CF807C0
0F003DE003C0
1E001FC003C0
1E001F8001E0
00001F8001E0
00001F0001E0
00001F0001E0
00001E0001E0
00FFFFFFFFE0
07FFFFFFFFE0
1FFFFFFFFFE0
3F003E000000
7C003E000000
F8003E000000
F0003E000000
F0007E000780
F000FF000F80
F000EF001F00
F803CF803E00
FC0F87E1FC00
7FFF07FFF800
3FFE01FFF000
1FF000FFC000
ENDCHAR
STARTCHAR 00E7
ENCODING 231
SWIDTH 560 0
DWIDTH 28 0
BBX 25 39 4 -12
BITMAP
001FE000
00FFF800
01FFFC00
03FFFE00
07E03F00
0F801F00
1F000F00
3E000F80
3C000F80
7C000780
78000000
78000000
F8000000
F8000000
F0000000
F0000000
F0000000
F0001E00
F0001E00
F8003E00
78003C00
7C007800
7E01F800
3F8FF000
1FFFE000
0FFF8000
03FE0000
00700000
00E00000
00E00000
00FE0000
01FE0000
00070000
00070000
00070000
00060000
001E0000
03FC0000
03F80000
ENDCHAR
STARTCHAR 00E8
ENCODING 232
SWIDTH 560 0
DWIDTH 28 0
BBX 25 39 4 0
BITMAP
003C0000
003E0000
001E0000
001F0000
000F0000
000F0000
00078000
00078000
00038000
00000000
00000000
00000000
003FF000
00FFFC00
01FFFE00
07F07F00
0FC01F00
1F000F00
1E000F80
3E000F80
3C000F00
7C000F00
78001F00
7800FE00
FFFFFC00
FFFFF000
FFFF8000
F0000000
F0000000
F0000000
F0000000
F8003E00
78003C00
7C007C00
3E01F800
3FFFF000
1FFFE000
0FFF8000
03FE0000
ENDCHAR
STARTCHAR 00E9
ENCODING 233
SWIDTH 560 0
DWIDTH 28 0
BBX 25 39 4 0
BITMAP
00000780
00000F00
00001E00
00003E00
00003C00
00007800
0000F000
0000E000
0001C000
00000000
00000000
00000000
003FF000
00FFFC00
01FFFE00
07F07F00
0FC01F00
1F000F00
1E000F80
3E000F80
3C000F00
7C000F00
78001F00
7800FE00
FFFFFC00
FFFFF000
FFFF8000
F0000000
F0000000
F0000000
F0000000
F8003E00
78003C00
7C007C00
3E01F800
3FFFF000
1FFFE000
0FFF8000
03FE0000
ENDCHAR
STARTCHAR 00EA
ENCODING 234
SWIDTH 560 0
DWIDTH 28 0
BBX 25 37 4 0
BITMAP
0001E000
0003F000
0007F800
000F7C00
001E3C00
003C1E00
00F80F00
00000000
00000000
00000000
003FF000
00FFFC00
01FFFE00
07F07F00
0FC01F00
1F000F00
1E000F80
3E000F80
3C000F00
7C000F00
78001F00
7800FE00
FFFFFC00
FFFFF000
FFFF8000
F0000000
F0000000
F0000000
F0000000
F8003E00
78003C00
7C007C00
3E01F800
3FFFF000
1FFFE000
0FFF8000
03FE0000
ENDCHAR
STARTCHAR 00EB
ENCODING 235
SWIDTH 560 0
DWIDTH 28 0
BBX 25 37 4 0
BITMAP
001C0700
003E0F00
007E1F80
007E1F00
007C1F00
00380C00
00000000
00000000
00000000
00000000
003FF000
00FFFC00
01FFFE00
07F07F00
0FC01F00
1F000F00
1E000F80
3E000F80
3C000F00
7C000F00
78001F00
7800FE00
FFFFFC00
FFFFF000
FFFF8000
F0000000
F0000000
F0000000
F0000000
F8003E00
78003C00
7C007C00
3E01F800
3FFFF000
1FFFE000
0FFF8000
03FE0000
ENDCHAR
STARTCHAR 00EC
ENCODING 236
SWIDTH 240 0
DWIDTH 12 0
BBX 9 39 4 0
BITMAP
7C00
3C00
3C00
1E00
1E00
0F00
0F00
0700
0780
0000
0000
0000
0000
0F80
0F80
0F00
0F00
0F00
0F00
1F00
1F00
1E00
1E00
1E00
1E00
3E00
3E00
3C00
3C00
3C00
3C00
7C00
7C00
7800
7800
7800
F800
F800
F800
ENDCHAR
STARTCHAR 00ED
ENCODING 237
SWIDTH 240 0
DWIDTH 12 0
BBX 16 39 4 0
BITMAP
000F
001F
003E
003C
0078
00F0
00E0
01E0
03C0
0000
0000
0000
0000
0F80
0F80
0F00
0F00
0F00
0F00
1F00
1F00
1E00
1E00
1E00
1E00
3E00
3E00
3C00
3C00
3C00
3C00
7C00
7C00
7800
7800
7800
F800
F800
F800
ENDCHAR
STARTCHAR 00EE
ENCODING 238
SWIDTH 240 0
DWIDTH 12 0
BBX 16 37 3 0
BITMAP
01F0
03F0
07F8
0F3C
1E3E
3C1E
780F
8000
0000
0000
0000
07C0
07C0
0780
0780
0780
0780
0F80
0F80
0F00
0F00
0F00
0F00
1F00
1F00
1E00
1E00
1E00
1E00
3E00
3E00
3C00
3C00
3C00
7C00
7C00
7C00
ENDCHAR
STARTCHAR 00EF
ENCODING 239
SWIDTH 240 0
DWIDTH 12 0
BBX 16 37 4 0
BITMAP
380E
7C1F
7C3F
FC3F
783E
301C
0000
0000
0000
0000
0000
0F80
0F80
0F00
0F00
0F00
0F00
1F00
1F00
1E00
1E00
1E00
1E00
3E00
3E00
3C00
3C00
3C00
3C00
7C00
7C00
7800
7800
7800
F800
F800
F800
ENDCHAR
STARTCHAR 00F0
ENCODING 240
SWIDTH 600 0
DWIDTH 30 0
BBX 28 39 4 1
BITMAP
0007E030
0007F8F0
0007FFF0
0000FFC0
00003F00
00007F80
0001F7C0
0001C7C0
000103C0
000003E0
000003E0
000001E0
003F81E0
00FFE1E0
03FFF1E0
07FFF9E0
0FE039E0
0F801FC0
1F000FC0
3E000FC0
3E0007C0
7C0007C0
7C0007C0
78000780
F8000780
F8000780
F8000F80
F8000F80
F8000F00
F8001F00
F8001E00
F8003E00
78003C00
7C007C00
7E01F800
3F8FF000
1FFFE000
0FFF8000
03FE0000
ENDCHAR
STARTCHAR 00F1
ENCODING 241
SWIDTH 600 0
DWIDTH 30 0
BBX 26 37 4 0
BITMAP
000201C0
001FC380
003FFF80
0079FF00
00707E00
00000000
00000000
00000000
00000000
00000000
0003F800
0F0FFE00
0F1FFF00
0F3FFF80
0F701F80
1FC00FC0
1F8007C0
1F0007C0
1F0003C0
1E0003C0
1E0003C0
3E0003C0
3E0007C0
3C000780
3C000780
3C000780
3C000780
7C000780
7C000F80
78000F00
78000F00
78000F00
F8000F00
F8001F00
F0001F00
F0001E00
F0001E00
ENDCHAR
STARTCHAR 00F2
ENCODING 242
SWIDTH 580 0
DWIDTH 29 0
BBX 25 39 4 0
BITMAP
007C0000
003C0000
003C0000
001E0000
001E0000
000F0000
000F0000
00070000
00078000
00000000
00000000
00000000
001FE000
007FF800
01FFFC00
03FFFE00
07E03F00
0F801F00
1F000F00
3E000F80
3C000F80
7C000780
78000780
78000780
F8000780
F0000780
F0000F80
F0000F00
F0000F00
F0001F00
F0001E00
F8003E00
F8007C00
7C00FC00
7E01F800
3F8FF000
1FFFC000
0FFF8000
07FE0000
ENDCHAR
STARTCHAR 00F3
ENCODING 243
SWIDTH 580 0
DWIDTH 29 0
BBX 25 39 4 0
BITMAP
00000F00
00001F00
00003E00
00003C00
00007800
0000F000
0000E000
0001E000
0003C000
00000000
00000000
00000000
001FE000
007FF800
01FFFC00
03FFFE00
07E03F00
0F801F00
1F000F00
3E000F80
3C000F80
7C000780
78000780
78000780
F8000780
F0000780
F0000F80
F0000F00
F0000F00
F0001F00
F0001E00
F8003E00
F8007C00
7C00FC00
7E01F800
3F8FF000
1FFFC000
0FFF8000
07FE0000
ENDCHAR
STARTCHAR 00F4
ENCODING 244
SWIDTH 580 0
DWIDTH 29 0
BBX 25 37 4 0
BITMAP
0003E000
0007E000
000FF000
001E7800
003C7C00
00783C00
00F01E00
01000000
00000000
00000000
001FE000
007FF800
01FFFC00
03FFFE00
07E03F00
0F801F00
1F000F00
3E000F80
3C000F80
7C000780
78000780
78000780
F8000780
F0000780
F0000F80
F0000F00
F0000F00
F0001F00
F0001E00
F8003E00
F8007C00
7C00FC00
7E01F800
3F8FF000
1FFFC000
0FFF8000
07FE0000
ENDCHAR
STARTCHAR 00F5
ENCODING 245
SWIDTH 580 0
DWIDTH 29 0
BBX 25 37 4 0
BITMAP
00040380
003F8700
007FFF00
00F7FE00
00E0FC00
00000000
00000000
00000000
00000000
00000000
001FE000
007FF800
01FFFC00
03FFFE00
07E03F00
0F801F00
1F000F00
3E000F80
3C000F80
7C000780
78000780
78000780
F8000780
F0000780
F0000F80
F0000F00
F0000F00
F0001F00
F0001E00
F8003E00
F8007C00
7C00FC00
7E01F800
3F8FF000
1FFFC000
0FFF8000
07FE0000
ENDCHAR
STARTCHAR 00F6
ENCODING 246
SWIDTH 580 0
DWIDTH 29 0
BBX 25 37 4 0
BITMAP
00380E00
007C1F00
007C3F00
00FC3F00
00783E00
00301C00
00000000
00000000
00000000
00000000
001FE000
007FF800
01FFFC00
03FFFE00
07E03F00
0F801F00
1F000F00
3E000F80
3C000F80
7C000780
78000780
78000780
F8000780
F0000780
F0000F80
F0000F00
F0000F00
F0001F00
F0001E00
F8003E00
F8007C00
7C00FC00
7E01F800
3F8FF000
1FFFC000
0FFF8000
07FE0000
ENDCHAR
STARTCHAR 00F7
ENCODING 247
SWIDTH 600 0
DWIDTH 30 0
BBX 20 24 6 4
BITMAP
008000
03E000
07E000
07E000
07E000
03C000
000000
000000
000000
000000
000000
7FFFF0
FFFFF0
FFFFF0
000000
000000
000000
000000
00E000
01F000
03F000
03F000
03E000
01C000
ENDCHAR
STARTCHAR 00F8
ENCODING 248
SWIDTH 580 0
DWIDTH 29 0
BBX 26 31 4 -2
BITMAP
000003C0
00000380
001FE700
007FFF00
01FFFE00
03FFFE00
07E03F00
0F807F00
1F007F00
3E00EF80
3C01CF80
7C03C780
78038780
78070780
F80F0780
F01E0780
F01C0F80
F0380F00
F0780F00
F0701F00
F0E01E00
F9C03E00
FBC07C00
7F80FC00
7F01F800
3FDFF000
1FFFC000
1FFF8000
3BFE0000
78000000
70000000
ENDCHAR
STARTCHAR 00F9
ENCODING 249
SWIDTH 600 0
DWIDTH 30 0
BBX 26 39 5 0
BITMAP
00F80000
00780000
007C0000
003C0000
003C0000
001E0000
001E0000
000E0000
000F0000
00000000
00000000
00000000
00000000
1E0003C0
1E0007C0
1E0007C0
3E000780
3E000780
3C000780
3C000780
3C000F80
3C000F80
7C000F00
7C000F00
78000F00
78001F00
78001F00
78001F00
F8001E00
F8001E00
F8003E00
F8003E00
F8007E00
FC00FE00
7E01BC00
7FCFBC00
3FFF3C00
1FFC7C00
0FF87C00
ENDCHAR
STARTCHAR 00FA
ENCODING 250
SWIDTH 600 0
DWIDTH 30 0
BBX 26 39 5 0
BITMAP
00001F00
00003E00
00003C00
00007800
0000F000
0001E000
0001E000
0003C000
00078000
00000000
00000000
00000000
00000000
1E0003C0
1E0007C0
1E0007C0
3E000780
3E000780
3C000780
3C000780
3C000F80
3C000F80
7C000F00
7C000F00
78000F00
78001F00
78001F00
78001F00
F8001E00
F8001E00
F8003E00
F8003E00
F8007E00
FC00FE00
7E01BC00
7FCFBC00
3FFF3C00
1FFC7C00
0FF87C00
ENDCHAR
STARTCHAR 00FB
ENCODING 251
SWIDTH 600 0
DWIDTH 30 0
BBX 26 37 5 0
BITMAP
0007C000
000FE000
001FE000
003CF000
0078F800
00F07C00
01E03C00
00000000
00000000
00000000
00000000
1E0003C0
1E0007C0
1E0007C0
3E000780
3E000780
3C000780
3C000780
3C000F80
3C000F80
7C000F00
7C000F00
78000F00
78001F00
78001F00
78001F00
F8001E00
F8001E00
F8003E00
F8003E00
F8007E00
FC00FE00
7E01BC00
7FCFBC00
3FFF3C00
1FFC7C00
0FF87C00
ENDCHAR
STARTCHAR 00FC
ENCODING 252
SWIDTH 600 0
DWIDTH 30 0
BBX 26 37 5 0
BITMAP
00701C00
00F83E00
00F87E00
00F87E00
00F03C00
00601800
00000000
00000000
00000000
00000000
00000000
1E0003C0
1E0007C0
1E0007C0
3E000780
3E000780
3C000780
3C000780
3C000F80
3C000F80
7C000F00
7C000F00
78000F00
78001F00
78001F00
78001F00
F8001E00
F8001E00
F8003E00
F8003E00
F8007E00
FC00FE00
7E01BC00
7FCFBC00
3FFF3C00
1FFC7C00
0FF87C00
ENDCHAR
STARTCHAR 00FD
ENCODING 253
SWIDTH 480 0
DWIDTH 24 0
BBX 29 49 0 -10
BITMAP
000003E0
000007C0
00000780
00000F00
00001E00
00003C00
00003C00
00007800
0000F000
00000000
00000000
00000000
00000000
07C000F8
07C000F0
07C001F0
03C001E0
03C003C0
03C007C0
03E00780
01E00F80
01E00F00
01E01E00
01E01E00
01F03C00
00F03C00
00F07800
00F0F800
00F0F000
0079E000
0079E000
007BC000
007BC000
007F8000
003F8000
003F0000
003E0000
003E0000
003C0000
007C0000
00780000
00F00000
00F00000
01E00000
03E00000
0FC00000
FF800000
FF000000
FC000000
ENDCHAR
STARTCHAR 00FE
ENCODING 254
SWIDTH 620 0
DWIDTH 31 0
BBX 29 50 2 -12
BITMAP
00F00000
00F00000
00F00000
00F00000
01F00000
01F00000
01E00000
01E00000
01E00000
01E00000
03E00000
03E0FE00
03C3FF80
03C7FFC0
03CFFFE0
03DC03F0
07F801F0
07F001F8
07E000F8
07C000F8
07C000F8
0F800078
0F800078
0F8000F8
0F0000F8
0F0000F8
0F0000F0
1F0000F0
1F0001F0
1F0001E0
1F8003E0
1F8007C0
1FC00FC0
3EE01F80
3EF8FF00
3C7FFE00
3C3FFC00
3C1FF000
3C000000
7C000000
7C000000
78000000
78000000
78000000
78000000
F8000000
F8000000
F0000000
F0000000
F0000000
ENDCHAR
STARTCHAR 00FF
ENCODING 255
SWIDTH 480 0
DWIDTH 24 0
BBX 29 47 0 -10
BITMAP
000E0380
001F07C0
001F0FC0
001F0FC0
001E0780
000C0300
00000000
00000000
00000000
00000000
00000000
07C000F8
07C000F0
07C001F0
03C001E0
03C003C0
03C007C0
03E00780
01E00F80
01E00F00
01E01E00
01E01E00
01F03C00
00F03C00
00F07800
00F0F800
00F0F000
0079E000
0079E000
007BC000
007BC000
007F8000
003F8000
003F0000
003E0000
003E0000
003C0000
007C0000
00780000
00F00000
00F00000
01E00000
03E00000
0FC00000
FF800000
FF000000
FC000000
ENDCHAR
STARTCHAR 0100
ENCODING 256
SWIDTH 680 0
DWIDTH 34 0
BBX 30 42 2 0
BITMAP
0001FFFC
0003FFF8
00000000
00000000
00000000
00000000
00000000
00001E00
00003E00
00003F00
00007F00
0000FF00
0000FF00
0001EF00
0001E780
0003C780
0003C780
00078780
00078780
000F03C0
000F03C0
001E03C0
003E03C0
003C03C0
007C03E0
007801E0
00F001E0
00F001E0
01FFFFE0
01FFFFF0
03FFFFF0
03FFFFF0
078000F0
0F8000F8
0F0000F8
1F000078
1E000078
3E000078
3C00007C
7C00007C
7800003C
F000003C
ENDCHAR
STARTCHAR 0101
ENCODING 257
SWIDTH 600 0
DWIDTH 30 0
BBX 27 34 4 0
BITMAP
007FFF00
007FFF00
007FFF00
00000000
00000000
00000000
00000000
003F8000
00FFE1E0
03FFF1E0
07FFFBE0
0FE03BE0
0F801FC0
1F000FC0
3E000FC0
3C0007C0
7C0007C0
780007C0
78000780
F8000780
F8000780
F8000F80
F0000F80
F0000F80
F0001F00
F8001F00
F8003F00
F8007F00
7C00FF00
7E01DF00
7F8F9E00
3FFF1E00
1FFE1E00
07F83E00
ENDCHAR
STARTCHAR 0102
ENCODING 258
SWIDTH 680 0
DWIDTH 34 0
BBX 30 44 2 0
BITMAP
0003C03C
0001E078
0000FFF0
00007FE0
00001F80
00000000
00000000
00000000
00000000
00001E00
00003E00
00003F00
00007F00
0000FF00
0000FF00
0001EF00
0001E780
0003C780
0003C780
00078780
00078780
000F03C0
000F03C0
001E03C0
003E03C0
003C03C0
007C03E0
007801E0
00F001E0
00F001E0
01FFFFE0
01FFFFF0
03FFFFF0
03FFFFF0
078000F0
0F8000F8
0F0000F8
1F000078
1E000078
3E000078
3C00007C
7C00007C
7800003C
F000003C
ENDCHAR
STARTCHAR 0103
ENCODING 259
SWIDTH 600 0
DWIDTH 30 0
BBX 27 36 4 0
BITMAP
00700380
00780780
003C1F00
003FFC00
000FF800
00038000
00000000
00000000
00000000
003F8000
00FFE1E0
03FFF1E0
07FFFBE0
0FE03BE0
0F801FC0
1F000FC0
3E000FC0
3C0007C0
7C0007C0
780007C0
78000780
F8000780
F8000780
F8000F80
F0000F80
F0000F80
F0001F00
F8001F00
F8003F00
F8007F00
7C00FF00
7E01DF00
7F8F9E00
3FFF1E00
1FFE1E00
07F83E00
ENDCHAR
STARTCHAR 0104
ENCODING 260
SWIDTH 680 0
DWIDTH 34 0
BBX 30 43 2 -8
BITMAP
00001E00
00003E00
00003F00
00007F00
0000FF00
0000FF00
0001EF00
0001E780
0003C780
0003C780
00078780
00078780
000F03C0
000F03C0
001E03C0
003E03C0
003C03C0
007C03E0
007801E0
00F001E0
00F001E0
01FFFFE0
01FFFFF0
03FFFFF0
03FFFFF0
078000F0
0F8000F8
0F0000F8
1F000078
1E000078
3E000078
3C00007C
7C00007C
7800003C
F000003C
00000078
000000E0
000001C0
000001C0
000001C0
000001F4
000001FC
0000007C
ENDCHAR
STARTCHAR 0105
ENCODING 261
SWIDTH 600 0
DWIDTH 30 0
BBX 27 35 4 -8
BITMAP
003F8000
00FFE1E0
03FFF1E0
07FFFBE0
0FE03BE0
0F801FC0
1F000FC0
3E000FC0
3C0007C0
7C0007C0
780007C0
78000780
F8000780
F8000780
F8000F80
F0000F80
F0000F80
F0001F00
F8001F00
F8003F00
F8007F00
7C00FF00
7E01DF00
7F8F9E00
3FFF1E00
1FFE1E00
07F83E00
00003C00
00007000
00007000
0000E000
0000E000
0000FB00
00007E00
00003E00
ENDCHAR
STARTCHAR 0106
ENCODING 262
SWIDTH 700 0
DWIDTH 35 0
BBX 32 48 5 0
BITMAP
000000F8
000000F0
000001E0
000003C0
000007C0
00000780
00000F00
00001E00
00001C00
00002000
00000000
00000000
00007E00
0007FFC0
001FFFF0
007FFFF8
00FF03FC
01F800FC
03F0007E
07E0003E
07C0001F
0F80001F
1F00000F
1F00000F
3E00000F
3E000000
3C000000
7C000000
7C000000
78000000
78000000
F8000000
F8000000
F8000000
F8000000
F8000000
F8000000
7800007C
78000078
7C0000F8
7C0001F0
3E0003E0
3F0007C0
1FC01FC0
0FFFFF00
07FFFE00
03FFF800
00FFE000
ENDCHAR
STARTCHAR 0107
ENCODING 263
SWIDTH 560 0
DWIDTH 28 0
BBX 25 39 4 0
BITMAP
00000F80
00001F00
00001E00
00003C00
00007800
0000F000
0000F000
0001E000
0003C000
00000000
00000000
00000000
001FE000
00FFF800
01FFFC00
03FFFE00
07E03F00
0F801F00
1F000F00
3E000F80
3C000F80
7C000780
78000000
78000000
F8000000
F8000000
F0000000
F0000000
F0000000
F0001E00
F0001E00
F8003E00
78003C00
7C007800
7E01F800
3F8FF000
1FFFE000
0FFF8000
03FE0000
ENDCHAR
STARTCHAR 010A
ENCODING 266
SWIDTH 700 0
DWIDTH 35 0
BBX 32 45 5 1
BITMAP
00003E00
00003E00
00007E00
00007E00
00003800
00000000
00000000
00000000
00000000
00007E00
0007FFC0
001FFFF0
007FFFF8
00FF03FC
01F800FC
03F0007E
07E0003E
07C0001F
0F80001F
1F00000F
1F00000F
3E00000F
3E000000
3C000000
7C000000
7C000000
78000000
78000000
F8000000
F8000000
F8000000
F8000000
F8000000
F8000000
7800007C
78000078
7C0000F8
7C0001F0
3E0003E0
3F0007C0
1FC01FC0
0FFFFF00
07FFFE00
03FFF800
00FFE000
ENDCHAR
STARTCHAR 010B
ENCODING 267
SWIDTH 560 0
DWIDTH 28 0
BBX 25 37 4 0
BITMAP
0001C000
0003E000
0007E000
0007E000
0007C000
00038000
00000000
00000000
00000000
00000000
001FE000
00FFF800
01FFFC00
03FFFE00
07E03F00
0F801F00
1F000F00
3E000F80
3C000F80
7C000780
78000000
78000000
F8000000
F8000000
F0000000
F0000000
F0000000
F0001E00
F0001E00
F8003E00
78003C00
7C007800
7E01F800
3F8FF000
1FFFE000
0FFF8000
03FE0000
ENDCHAR
STARTCHAR 010C
ENCODING 268
SWIDTH 700 0
DWIDTH 35 0
BBX 32 46 5 0
BITMAP
000F8078
000780F0
0003C1E0
0001E7C0
0001FF80
0000FF00
00007E00
00003C00
00000000
00000000
00007E00
0007FFC0
001FFFF0
007FFFF8
00FF03FC
01F800FC
03F0007E
07E0003E
07C0001F
0F80001F
1F00000F
1F00000F
3E00000F
3E000000
3C000000
7C000000
7C000000
78000000
78000000
F8000000
F8000000
F8000000
F8000000
F8000000
F8000000
7800007C
78000078
7C0000F8
7C0001F0
3E0003E0
3F0007C0
1FC01FC0
0FFFFF00
07FFFE00
03FFF800
00FFE000
ENDCHAR
STARTCHAR 010D
ENCODING 269
SWIDTH 560 0
DWIDTH 28 0
BBX 25 37 4 0
BITMAP
00780F80
007C1F00
003C3C00
001E7800
001FF000
000FE000
0007C000
00000000
00000000
00000000
001FE000
00FFF800
01FFFC00
03FFFE00
07E03F00
0F801F00
1F000F00
3E000F80
3C000F80
7C000780
78000000
78000000
F8000000
F8000000
F0000000
F0000000
F0000000
F0001E00
F0001E00
F8003E00
78003C00
7C007800
7E01F800
3F8FF000
1FFFE000
0FFF8000
03FE0000
ENDCHAR
STARTCHAR 010E
ENCODING 270
SWIDTH 680 0
DWIDTH 34 0
BBX 32 46 4 0
BITMAP
000F00F8
000781F0
0007C3C0
0003C780
0001EF00
0000FE00
0000FC00
00007800
00000000
00000000
00000000
03FFFE00
07FFFF80
07FFFFE0
07FFFFF0
078007F8
078001FC
078000FC
0F80007E
0F00003E
0F00003E
0F00001E
0F00001E
0F00001F
1F00001F
1E00001F
1E00001E
1E00001E
1E00001E
1E00003E
3E00003E
3C00003E
3C00003C
3C00007C
3C000078
3C0000F8
7C0001F0
780001F0
780003E0
78000FC0
78001F80
F800FF00
FFFFFE00
FFFFFC00
FFFFF000
FFFF8000
ENDCHAR
STARTCHAR 010F
ENCODING 271
SWIDTH 720 0
DWIDTH 36 0
BBX 38 39 4 0
BITMAP
0000000078
00000078FC
00000079FC
000000F9FC
000000F8FC
000000F01C
000000F018
000000F018
000000F038
000001F030
000001F0E0
000001E1C0
003F81E100
00FFE1E000
03FFF1E000
07FFFBE000
0FE03BE000
0F801FC000
1F000FC000
3E000FC000
3E000FC000
7C0007C000
7C0007C000
7800078000
F800078000
F800078000
F8000F8000
F0000F8000
F0000F8000
F0001F0000
F8001F0000
F8003F0000
F8007F0000
7C00FF0000
7E01DF0000
7F8F9E0000
3FFF1E0000
1FFE1E0000
07F81E0000
ENDCHAR
STARTCHAR 0110
ENCODING 272
SWIDTH 700 0
DWIDTH 35 0
BBX 32 35 5 0
BITMAP
03FFFC00
03FFFF80
03FFFFE0
07FFFFF0
07C007F8
078001FC
0780007C
0780003E
0780003E
0F80001E
0F80001F
0F00001F
0F00001F
0F00001F
0F00001F
1F00001F
FFFC001F
FFFC001F
FFFC001E
1E00001E
1E00003E
3E00003E
3C00003C
3C00007C
3C000078
3C0000F8
3C0001F0
7C0003E0
78000FE0
78001FC0
7801FF00
7FFFFE00
7FFFFC00
FFFFF000
FFFF0000
ENDCHAR
STARTCHAR 0111
ENCODING 273
SWIDTH 640 0
DWIDTH 32 0
BBX 32 38 4 0
BITMAP
00000078
00000078
000000F8
000000F8
000000F0
00007FFF
00007FFF
0000FFFF
000001F0
000001F0
000001E0
003F81E0
00FFE1E0
03FFF1E0
07FFFBE0
0FE03BE0
0F801FC0
1F000FC0
3E000FC0
3E000FC0
7C0007C0
7C0007C0
78000780
F8000780
F8000780
F8000F80
F0000F80
F0000F80
F0001F00
F8001F00
F8003F00
F8007F00
7C00FF00
7E01DF00
7F8F9E00
3FFF1E00
1FFE1E00
07F81E00
ENDCHAR
STARTCHAR 0112
ENCODING 274
SWIDTH 560 0
DWIDTH 28 0
BBX 27 42 4 0
BITMAP
003FFF80
003FFF80
00000000
00000000
00000000
00000000
00000000
03FFFFE0
07FFFFE0
07FFFFE0
07FFFFE0
07800000
07800000
07800000
0F800000
0F800000
0F000000
0F000000
0F000000
0F000000
1F000000
1F000000
1FFFFE00
1FFFFC00
1FFFFC00
1FFFFC00
3E000000
3E000000
3C000000
3C000000
3C000000
3C000000
7C000000
7C000000
78000000
78000000
78000000
F8000000
FFFFFC00
FFFFFC00
FFFFFC00
FFFFF800
ENDCHAR
STARTCHAR 0113
ENCODING 275
SWIDTH 560 0
DWIDTH 28 0
BBX 25 34 4 0
BITMAP
007FFF00
007FFF00
007FFF00
00000000
00000000
00000000
00000000
003FF000
00FFFC00
01FFFE00
07F07F00
0FC01F00
1F000F00
1E000F80
3E000F80
3C000F00
7C000F00
78001F00
7800FE00
FFFFFC00
FFFFF000
FFFF8000
F0000000
F0000000
F0000000
F0000000
F8003E00
78003C00
7C007C00
3E01F800
3FFFF000
1FFFE000
0FFF8000
03FE0000
ENDCHAR
STARTCHAR 0116
ENCODING 278
SWIDTH 560 0
DWIDTH 28 0
BBX 27 45 4 1
BITMAP
0000F000
0001F800
0001F000
0001F000
0000E000
00000000
00000000
00000000
00000000
00000000
03FFFFE0
07FFFFE0
07FFFFE0
07FFFFE0
07800000
07800000
07800000
0F800000
0F800000
0F000000
0F000000
0F000000
0F000000
1F000000
1F000000
1FFFFE00
1FFFFC00
1FFFFC00
1FFFFC00
3E000000
3E000000
3C000000
3C000000
3C000000
3C000000
7C000000
7C000000
78000000
78000000
78000000
F8000000
FFFFFC00
FFFFFC00
FFFFFC00
FFFFF800
ENDCHAR
STARTCHAR 0117
ENCODING 279
SWIDTH 560 0
DWIDTH 28 0
BBX 25 37 4 0
BITMAP
0000C000
0001E000
0003F000
0003E000
0003E000
00018000
00000000
00000000
00000000
00000000
003FF000
00FFFC00
01FFFE00
07F07F00
0FC01F00
1F000F00
1E000F80
3E000F80
3C000F00
7C000F00
78001F00
7800FE00
FFFFFC00
FFFFF000
FFFF8000
F0000000
F0000000
F0000000
F0000000
F8003E00
78003C00
7C007C00
3E01F800
3FFFF000
1FFFE000
0FFF8000
03FE0000
ENDCHAR
STARTCHAR 0118
ENCODING 280
SWIDTH 560 0
DWIDTH 28 0
BBX 27 43 4 -8
BITMAP
03FFFFE0
07FFFFE0
07FFFFE0
07FFFFE0
07800000
07800000
07800000
0F800000
0F800000
0F000000
0F000000
0F000000
0F000000
1F000000
1F000000
1FFFFE00
1FFFFC00
1FFFFC00
1FFFFC00
3E000000
3E000000
3C000000
3C000000
3C000000
3C000000
7C000000
7C000000
78000000
78000000
78000000
F8000000
FFFFFC00
FFFFFC00
FFFFFC00
FFFFF800
00007000
0000E000
0001C000
0001C000
0001C000
0001F400
0001FC00
0000FC00
ENDCHAR
STARTCHAR 0119
ENCODING 281
SWIDTH 560 0
DWIDTH 28 0
BBX 25 35 4 -8
BITMAP
003FF000
00FFFC00
01FFFE00
07F07F00
0FC01F00
1F000F00
1E000F80
3E000F80
3C000F00
7C000F00
78001F00
7800FE00
FFFFFC00
FFFFF000
FFFF8000
F0000000
F0000000
F0000000
F0000000
F8003E00
78003C00
7C007C00
3E01F800
3FFFF000
1FFFE000
0FFF8000
01FE0000
003C0000
00780000
00F00000
00E00000
00E00000
00F10000
00FE0000
007E0000
ENDCHAR
STARTCHAR 011A
ENCODING 282
SWIDTH 560 0
DWIDTH 28 0
BBX 27 46 4 0
BITMAP
003C03E0
001E0780
001F0F00
000F1E00
0007BC00
0003F800
0003F000
0001E000
00000000
00000000
00000000
03FFFFE0
07FFFFE0
07FFFFE0
07FFFFE0
07800000
07800000
07800000
0F800000
0F800000
0F000000
0F000000
0F000000
0F000000
1F000000
1F000000
1FFFFE00
1FFFFC00
1FFFFC00
1FFFFC00
3E000000
3E000000
3C000000
3C000000
3C000000
3C000000
7C000000
7C000000
78000000
78000000
78000000
F8000000
FFFFFC00
FFFFFC00
FFFFFC00
FFFFF800
ENDCHAR
STARTCHAR 011B
ENCODING 283
SWIDTH 560 0
DWIDTH 28 0
BBX 25 37 4 0
BITMAP
00780780
003C0F00
001E1E00
001F3C00
000FF800
0007F000
0003E000
00000000
00000000
00000000
003FF000
00FFFC00
01FFFE00
07F07F00
0FC01F00
1F000F00
1E000F80
3E000F80
3C000F00
7C000F00
78001F00
7800FE00
FFFFFC00
FFFFF000
FFFF8000
F0000000
F0000000
F0000000
F0000000
F8003E00
78003C00
7C007C00
3E01F800
3FFFF000
1FFFE000
0FFF8000
03FE0000
ENDCHAR
STARTCHAR 011E
ENCODING 286
SWIDTH 700 0
DWIDTH 35 0
BBX 32 44 5 0
BITMAP
00070078
000780F0
0003FFE0
0001FF80
00007E00
00000000
00000000
00000000
0000FC00
0007FFC0
001FFFE0
007FFFF0
00FF07F8
01F800FC
03F0007C
07C0003E
0780001E
0F80001F
1F00001F
1E000000
3E000000
3C000000
7C000000
7C000000
78000000
78000000
78007FFE
F8007FFE
F8007FFC
F800003C
F800003C
F800003C
F800007C
F8000078
780000F8
7C0000F8
7C0001F8
3E0003F8
3F0007F8
1F801F70
1FF0FE70
0FFFFC70
03FFF070
00FFC0F0
ENDCHAR
STARTCHAR 011F
ENCODING 287
SWIDTH 600 0
DWIDTH 30 0
BBX 27 47 4 -11
BITMAP
00F00780
00780F00
007C1E00
003FFC00
001FF800
00018000
00000000
00000000
00000000
003F8000
00FFE1E0
03FFF1E0
07FFFBE0
0FE03BE0
1F801FC0
1F000FC0
3E000FC0
3C0007C0
7C0007C0
780007C0
78000780
F8000780
F8000780
F8000F80
F8000F80
F8000F80
F8001F00
F8001F00
F8003F00
7C007F00
7E00FF00
7F87DF00
3FFF9E00
1FFF1E00
0FFC1E00
00803E00
00003E00
00003C00
00007C00
00007800
0000F800
0003F000
060FE000
07FFC000
07FF8000
07FE0000
00600000
ENDCHAR
STARTCHAR 0120
ENCODING 288
SWIDTH 700 0
DWIDTH 35 0
BBX 32 45 5 1
BITMAP
00001E00
00003E00
00003E00
00003E00
00003C00
00000000
00000000
00000000
00000000
0000FC00
0007FFC0
001FFFE0
007FFFF0
00FF07F8
01F800FC
03F0007C
07C0003E
0780001E
0F80001F
1F00001F
1E000000
3E000000
3C000000
7C000000
7C000000
78000000
78000000
78007FFE
F8007FFE
F8007FFC
F800003C
F800003C
F800003C
F800007C
F8000078
780000F8
7C0000F8
7C0001F8
3E0003F8
3F0007F8
1F801F70
1FF0FE70
0FFFFC70
03FFF070
00FFC0F0
ENDCHAR
STARTCHAR 0121
ENCODING 289
SWIDTH 600 0
DWIDTH 30 0
BBX 27 48 4 -11
BITMAP
0001C000
0003E000
0003E000
0003E000
0003C000
00018000
00000000
00000000
00000000
00000000
003F8000
00FFE1E0
03FFF1E0
07FFFBE0
0FE03BE0
1F801FC0
1F000FC0
3E000FC0
3C0007C0
7C0007C0
780007C0
78000780
F8000780
F8000780
F8000F80
F8000F80
F8000F80
F8001F00
F8001F00
F8003F00
7C007F00
7E00FF00
7F87DF00
3FFF9E00
1FFF1E00
0FFC1E00
00803E00
00003E00
00003C00
00007C00
00007800
0000F800
0003F000
060FE000
07FFC000
07FF8000
07FE0000
00600000
ENDCHAR
STARTCHAR 0126
ENCODING 294
SWIDTH 680 0
DWIDTH 34 0
BBX 34 35 4 0
BITMAP
03C0000F00
03C0000F00
03C0000F00
07C0000F00
07C0001F00
0780001F00
3FFFFFFFC0
3FFFFFFFC0
3FFFFFFFC0
0F80001E00
0F80003E00
0F00003E00
0F00003C00
0F00003C00
0F00003C00
1F00003C00
1FFFFFFC00
1FFFFFFC00
1FFFFFF800
1E00007800
1E00007800
3E00007800
3E0000F800
3C0000F800
3C0000F000
3C0000F000
3C0000F000
7C0000F000
7C0001F000
780001F000
780001E000
780001E000
F80001E000
F80003E000
F80003E000
ENDCHAR
STARTCHAR 0127
ENCODING 295
SWIDTH 600 0
DWIDTH 30 0
BBX 27 38 4 0
BITMAP
01E00000
03E00000
03E00000
03C00000
03C00000
3FFFC000
3FFF8000
3FFF8000
07C00000
07800000
07800000
0781FE00
0F87FF00
0F9FFF80
0F3FFFC0
0F780FC0
0F6007C0
0FC003E0
1F8003E0
1F8003E0
1F0003E0
1F0003C0
1E0003C0
1E0003C0
3E0003C0
3E0007C0
3C0007C0
3C000780
3C000780
3C000780
7C000780
7C000F80
78000F80
78000F00
78000F00
78000F00
F8000F00
F8001F00
ENDCHAR
STARTCHAR 0128
ENCODING 296
SWIDTH 240 0
DWIDTH 12 0
BBX 18 45 4 0
BITMAP
0F81C0
1FE780
3FFF80
78FF00
701800
000000
000000
000000
000000
000000
03C000
03C000
07C000
07C000
078000
078000
078000
078000
0F8000
0F8000
0F0000
0F0000
0F0000
0F0000
1F0000
1F0000
1E0000
1E0000
1E0000
1E0000
3E0000
3E0000
3C0000
3C0000
3C0000
7C0000
7C0000
7C0000
780000
780000
780000
F80000
F80000
F80000
F00000
ENDCHAR
STARTCHAR 0129
ENCODING 297
SWIDTH 240 0
DWIDTH 12 0
BBX 17 37 4 0
BITMAP
040380
3F8700
7FFF00
F7FE00
E0FC00
000000
000000
000000
000000
000000
000000
0F8000
0F8000
0F0000
0F0000
0F0000
0F0000
1F0000
1F0000
1E0000
1E0000
1E0000
1E0000
3E0000
3E0000
3C0000
3C0000
3C0000
3C0000
7C0000
7C0000
780000
780000
780000
F80000
F80000
F80000
ENDCHAR
STARTCHAR 012A
ENCODING 298
SWIDTH 240 0
DWIDTH 12 0
BBX 17 42 4 0
BITMAP
3FFF80
7FFF80
000000
000000
000000
000000
000000
03C000
03C000
07C000
07C000
078000
078000
078000
078000
0F8000
0F8000
0F0000
0F0000
0F0000
0F0000
1F0000
1F0000
1E0000
1E0000
1E0000
1E0000
3E0000
3E0000
3C0000
3C0000
3C0000
7C0000
7C0000
7C0000
780000
780000
780000
F80000
F80000
F80000
F00000
ENDCHAR
STARTCHAR 012B
ENCODING 299
SWIDTH 240 0
DWIDTH 12 0
BBX 15 34 4 0
BITMAP
FFFE
FFFE
FFFE
0000
0000
0000
0000
0000
0F80
0F80
0F00
0F00
0F00
0F00
1F00
1F00
1E00
1E00
1E00
1E00
3E00
3E00
3C00
3C00
3C00
3C00
7C00
7C00
7800
7800
7800
F800
F800
F800
ENDCHAR
STARTCHAR 012E
ENCODING 302
SWIDTH 240 0
DWIDTH 12 0
BBX 12 43 2 -8
BITMAP
00F0
00F0
01F0
01F0
01E0
01E0
01E0
01E0
03E0
03E0
03C0
03C0
03C0
03C0
07C0
07C0
0780
0780
0780
0780
0F80
0F80
0F00
0F00
0F00
1F00
1F00
1F00
1E00
1E00
1E00
3E00
3E00
3E00
3C00
3800
7000
E000
E000
E000
FA00
FE00
7E00
ENDCHAR
STARTCHAR 012F
ENCODING 303
SWIDTH 240 0
DWIDTH 12 0
BBX 13 45 2 -8
BITMAP
0070
00F8
01F8
01F8
01F0
00E0
0000
0000
0000
0000
0000
03E0
03E0
03C0
03C0
03C0
03C0
07C0
07C0
0780
0780
0780
0780
0F80
0F80
0F00
0F00
0F00
0F00
1F00
1F00
1E00
1E00
1E00
3E00
3E00
3E00
3C00
7000
E000
E000
E000
FA00
FE00
3E00
ENDCHAR
STARTCHAR 0130
ENCODING 304
SWIDTH 240 0
DWIDTH 12 0
BBX 12 45 4 1
BITMAP
01F0
01F0
03F0
01F0
01E0
0000
0000
0000
0000
0000
03C0
03C0
07C0
07C0
0780
0780
0780
0780
0F80
0F80
0F00
0F00
0F00
0F00
1F00
1F00
1E00
1E00
1E00
1E00
3E00
3E00
3C00
3C00
3C00
7C00
7C00
7C00
7800
7800
7800
F800
F800
F800
F000
ENDCHAR
STARTCHAR 0131
ENCODING 305
SWIDTH 240 0
DWIDTH 12 0
BBX 9 26 4 0
BITMAP
0F80
0F80
0F00
0F00
0F00
0F00
1F00
1F00
1E00
1E00
1E00
1E00
3E00
3E00
3C00
3C00
3C00
3C00
7C00
7C00
7800
7800
7800
F800
F800
F800
ENDCHAR
STARTCHAR 0139
ENCODING 313
SWIDTH 520 0
DWIDTH 26 0
BBX 21 48 4 0
BITMAP
0007C0
000780
000F00
001E00
003C00
003C00
007800
00F000
00E000
010000
000000
000000
000000
03C000
07C000
07C000
078000
078000
078000
078000
0F8000
0F8000
0F0000
0F0000
0F0000
0F0000
1F0000
1F0000
1E0000
1E0000
1E0000
1E0000
3E0000
3E0000
3C0000
3C0000
3C0000
3C0000
7C0000
7C0000
780000
780000
780000
F80000
FFFFF8
FFFFF8
FFFFF8
FFFFF8
ENDCHAR
STARTCHAR 013A
ENCODING 314
SWIDTH 300 0
DWIDTH 15 0
BBX 17 50 5 0
BITMAP
000780
000F00
001E00
003E00
003C00
007800
00F000
00E000
01C000
000000
000000
000000
07C000
078000
078000
078000
078000
0F8000
0F8000
0F0000
0F0000
0F0000
0F0000
1F0000
1F0000
1E0000
1E0000
1E0000
1E0000
3E0000
3E0000
3C0000
3C0000
3C0000
7C0000
7C0000
7C0000
780000
780000
780000
F80000
F80000
F80000
F00000
F00000
F00000
F80000
FF8000
FF8000
3F8000
ENDCHAR
STARTCHAR 013D
ENCODING 317
SWIDTH 520 0
DWIDTH 26 0
BBX 21 46 4 0
BITMAP
7C03C0
3C0780
1E1F00
0F3E00
0FFC00
07F800
03F000
03E000
000000
000000
000000
03C000
07C000
07C000
078000
078000
078000
078000
0F8000
0F8000
0F0000
0F0000
0F0000
0F0000
1F0000
1F0000
1E0000
1E0000
1E0000
1E0000
3E0000
3E0000
3C0000
3C0000
3C0000
3C0000
7C0000
7C0000
780000
780000
780000
F80000
FFFFF8
FFFFF8
FFFFF8
FFFFF8
ENDCHAR
STARTCHAR 013E
ENCODING 318
SWIDTH 340 0
DWIDTH 17 0
BBX 12 39 5 0
BITMAP
01F0
07F0
07F0
07F0
07F0
07F0
0FF0
0FF0
0F60
0FC0
0FC0
0F00
1F00
1F00
1E00
1E00
1E00
1E00
3E00
3E00
3C00
3C00
3C00
7C00
7C00
7C00
7800
7800
7800
F800
F800
F800
F000
F000
F000
F800
FF80
FF80
3F80
ENDCHAR
STARTCHAR 0143
ENCODING 323
SWIDTH 700 0
DWIDTH 35 0
BBX 34 48 4 0
BITMAP
0000007C00
000000F800
000000F000
000001E000
000003C000
000003C000
0000078000
00000F0000
00001E0000
0000000000
0000000000
0000000000
0000000000
03E00007C0
07E00007C0
07F0000780
07F0000780
07F8000780
07F8000780
07FC000F80
0FFC000F00
0FBE000F00
0F3E000F00
0F1F000F00
0F1F000F00
0F0F801F00
1F0F801E00
1F07C01E00
1E07C01E00
1E03E01E00
1E03E03E00
1E01F03E00
3E01F03C00
3E00F83C00
3C00F83C00
3C007C3C00
3C007C7C00
3C003E7C00
7C003E7800
78001F7800
78001F7800
78000FF800
78000FF800
F80007F800
F80007F000
F00003F000
F00003F000
F00001F000
ENDCHAR
STARTCHAR 0144
ENCODING 324
SWIDTH 600 0
DWIDTH 30 0
BBX 26 39 4 0
BITMAP
000007C0
00000F80
00000F00
00001E00
00003C00
00007800
00007000
0000F000
0001E000
00000000
00000000
00000000
0003F800
0F0FFE00
0F1FFF00
0F3FFF80
0F701F80
1FC00FC0
1F8007C0
1F0007C0
1F0003C0
1E0003C0
1E0003C0
3E0003C0
3E0007C0
3C000780
3C000780
3C000780
3C000780
7C000780
7C000F80
78000F00
78000F00
78000F00
F8000F00
F8001F00
F0001F00
F0001E00
F0001E00
ENDCHAR
STARTCHAR 0147
ENCODING 327
SWIDTH 700 0
DWIDTH 35 0
BBX 34 46 4 0
BITMAP
0007803C00
0003C0F800
0001E1F000
0001F3E000
0000F7C000
00007F8000
00003E0000
00003C0000
0000000000
0000000000
0000000000
03E00007C0
07E00007C0
07F0000780
07F0000780
07F8000780
07F8000780
07FC000F80
0FFC000F00
0FBE000F00
0F3E000F00
0F1F000F00
0F1F000F00
0F0F801F00
1F0F801E00
1F07C01E00
1E07C01E00
1E03E01E00
1E03E03E00
1E01F03E00
3E01F03C00
3E00F83C00
3C00F83C00
3C007C3C00
3C007C7C00
3C003E7C00
7C003E7800
78001F7800
78001F7800
78000FF800
78000FF800
F80007F800
F80007F000
F00003F000
F00003F000
F00001F000
ENDCHAR
STARTCHAR 0148
ENCODING 328
SWIDTH 600 0
DWIDTH 30 0
BBX 26 37 4 0
BITMAP
003C07C0
003E0F80
001E1E00
000F3C00
000FF800
0007F000
0003E000
00000000
00000000
00000000
0003F800
0F0FFE00
0F1FFF00
0F3FFF80
0F701F80
1FC00FC0
1F8007C0
1F0007C0
1F0003C0
1E0003C0
1E0003C0
3E0003C0
3E0007C0
3C000780
3C000780
3C000780
3C000780
7C000780
7C000F80
78000F00
78000F00
78000F00
F8000F00
F8001F00
F0001F00
F0001E00
F0001E00
ENDCHAR
STARTCHAR 014C
ENCODING 332
SWIDTH 720 0
DWIDTH 36 0
BBX 32 42 5 0
BITMAP
0007FFF0
0007FFF0
00000000
00000000
00000000
00000000
0000FE00
0007FFC0
001FFFE0
007FFFF8
00FF07FC
01FC00FC
03F0007E
07E0003E
0FC0001F
0F80001F
1F00001F
1E00000F
3E00000F
3C00000F
7C00000F
7C00000F
7800000F
7800000F
F800000F
F800001F
F800001F
F800001E
F800003E
F800003E
F800003C
F800007C
780000F8
7C0000F8
7C0001F0
7E0003E0
3F000FE0
1FC03F80
1FFFFF00
0FFFFE00
03FFF800
00FFE000
ENDCHAR
STARTCHAR 014D
ENCODING 333
SWIDTH 580 0
DWIDTH 29 0
BBX 25 34 4 0
BITMAP
00FFFE00
00FFFE00
00FFFE00
00000000
00000000
00000000
00000000
001FE000
007FF800
01FFFC00
03FFFE00
07E03F00
0F801F00
1F000F00
3E000F80
3C000F80
7C000780
78000780
78000780
F8000780
F0000780
F0000F80
F0000F00
F0000F00
F0001F00
F0001E00
F8003E00
F8007C00
7C00FC00
7E01F800
3F8FF000
1FFFC000
0FFF8000
07FE0000
ENDCHAR
STARTCHAR 0152
ENCODING 338
SWIDTH 960 0
DWIDTH 48 0
BBX 46 35 5 0
BITMAP
0001FFFFFFFC
000FFFFFFFFC
003FFFFFFFFC
00FFFFFFFFF8
01FE00F00000
03F001F00000
07E001F00000
0FC001E00000
1F8001E00000
1F0001E00000
3E0001E00000
3E0003E00000
7C0003E00000
7C0003C00000
780003C00000
F80003FFFF80
F80003FFFF80
F80007FFFF80
F80007FFFF80
F00007800000
F00007800000
F00007800000
F00007800000
F8000F800000
F8000F800000
F8000F000000
FC000F000000
7C000F000000
7E000F000000
3F001F000000
3FC01F000000
1FFFFFFFFF80
0FFFFFFFFF00
03FFFFFFFF00
007FFFFFFF00
ENDCHAR
STARTCHAR 0153
ENCODING 339
SWIDTH 980 0
DWIDTH 49 0
BBX 44 27 5 0
BITMAP
001FC001FE00
00FFF007FF80
01FFF81FFFC0
07FFFC3F9FE0
0FC07E7C03E0
1F803EF801F0
1E001EF000F0
3E001FE000F0
7C000FC000F0
78000FC000F0
78000F8000F0
F8000F8000F0
F0000FFFFFF0
F0000FFFFFF0
F0000FFFFFF0
F0000F000000
F0001F000000
F0001F000000
F0003F000000
F0003F8003E0
F8007F8003C0
F800FFC00780
7C03F3E01F80
7F0FE3F87F00
3FFFC1FFFE00
1FFF00FFF800
07FC003FE000
ENDCHAR
STARTCHAR 0154
ENCODING 340
SWIDTH 600 0
DWIDTH 30 0
BBX 28 48 4 0
BITMAP
000003C0
00000780
00000F80
00001F00
00001E00
00003C00
00007800
00007000
0000E000
00000000
00000000
00000000
00000000
03FFFC00
07FFFF00
07FFFFC0
07FFFFC0
07800FE0
078003F0
078001F0
0F8000F0
0F8000F0
0F0000F0
0F0000F0
0F0000F0
0F0001E0
1F0001E0
1F0003E0
1E0007C0
1E001F80
1FFFFF00
1FFFFE00
3FFFF800
3FFFE000
3C07C000
3C07C000
3C03E000
3C03E000
7C01F000
7801F000
7800F000
7800F800
78007800
F8007C00
F8003C00
F0003E00
F0001E00
F0001F00
ENDCHAR
STARTCHAR 0155
ENCODING 341
SWIDTH 340 0
DWIDTH 17 0
BBX 19 39 4 0
BITMAP
0001E0
0003C0
0007C0
000780
000F00
001E00
003C00
003800
007000
000000
000000
000000
000000
0F1F80
0F3F80
0F7F80
1FFF80
1FC000
1F8000
1F0000
1F0000
1E0000
3E0000
3E0000
3C0000
3C0000
3C0000
7C0000
7C0000
780000
780000
780000
780000
F80000
F80000
F00000
F00000
F00000
F00000
ENDCHAR
STARTCHAR 0158
ENCODING 344
SWIDTH 600 0
DWIDTH 30 0
BBX 28 46 4 0
BITMAP
003C03C0
003E0780
001E0F00
000F1E00
0007BC00
0007F800
0003F000
0001E000
00000000
00000000
00000000
03FFFC00
07FFFF00
07FFFFC0
07FFFFC0
07800FE0
078003F0
078001F0
0F8000F0
0F8000F0
0F0000F0
0F0000F0
0F0000F0
0F0001E0
1F0001E0
1F0003E0
1E0007C0
1E001F80
1FFFFF00
1FFFFE00
3FFFF800
3FFFE000
3C07C000
3C07C000
3C03E000
3C03E000
7C01F000
7801F000
7800F000
7800F800
78007800
F8007C00
F8003C00
F0003E00
F0001E00
F0001F00
ENDCHAR
STARTCHAR 0159
ENCODING 345
SWIDTH 340 0
DWIDTH 17 0
BBX 19 37 4 0
BITMAP
1E01E0
0F03C0
078780
07CF00
03FE00
01FC00
00F800
000000
000000
000000
000000
0F1F80
0F3F80
0F7F80
1FFF80
1FC000
1F8000
1F0000
1F0000
1E0000
3E0000
3E0000
3C0000
3C0000
3C0000
7C0000
7C0000
780000
780000
780000
780000
F80000
F80000
F00000
F00000
F00000
F00000
ENDCHAR
STARTCHAR 015A
ENCODING 346
SWIDTH 580 0
DWIDTH 29 0
BBX 28 48 4 0
BITMAP
000001F0
000001E0
000003C0
00000780
00000F00
00000F00
00001E00
00003C00
00007800
00000000
00000000
00000000
0001E000
001FFE00
007FFF00
00FFFF80
01F81FC0
03E007E0
07C003E0
078003E0
0F8003F0
0F0001F0
0F0001F0
0F000000
0F000000
0F800000
0FC00000
07F00000
07FF8000
03FFF000
00FFFC00
001FFE00
0000FF00
00001F80
00000F80
00000F80
00000780
F8000780
F8000780
F8000F80
FC000F80
7C001F00
7E003E00
3F00FE00
3FFFFC00
1FFFF000
0FFFE000
03FF8000
ENDCHAR
STARTCHAR 015B
ENCODING 347
SWIDTH 480 0
DWIDTH 24 0
BBX 23 39 4 0
BITMAP
00003E
00007C
000078
0000F0
0001E0
0001C0
0003C0
000780
000F00
000000
000000
000000
007F80
01FFE0
07FFF0
0FE3F8
1F00F8
1E0078
1E007C
3C007C
3C0000
3E0000
3E0000
1FC000
1FFE00
07FFC0
01FFE0
000FE0
0001F0
0000F0
F000F0
F000F0
F001F0
F801E0
F803E0
7F1FC0
7FFF80
3FFF00
0FFC00
ENDCHAR
STARTCHAR 015E
ENCODING 350
SWIDTH 580 0
DWIDTH 29 0
BBX 28 49 4 -13
BITMAP
0001E000
001FFE00
007FFF00
00FFFF80
01F81FC0
03E007E0
07C003E0
078003E0
0F8003F0
0F0001F0
0F0001F0
0F000000
0F000000
0F800000
0FC00000
07F00000
07FF8000
03FFF000
00FFFC00
001FFE00
0000FF00
00001F80
00000F80
00000F80
00000780
F8000780
F8000780
F8000F80
FC000F80
7C001F00
7E003E00
3F00FE00
3FFFFC00
1FFFF800
0FFFE000
03FF8000
00300000
00700000
00600000
00FE0000
00FF0000
00070000
00030000
00030000
00070000
000E0000
01FE0000
01F80000
00400000
ENDCHAR
STARTCHAR 015F
ENCODING 351
SWIDTH 480 0
DWIDTH 24 0
BBX 22 39 4 -12
BITMAP
007F80
01FFE0
07FFF0
0FE3F8
1F00F8
1E0078
1E007C
3C007C
3C0000
3E0000
3E0000
1FC000
1FFE00
07FFC0
01FFE0
000FE0
0001F0
0000F0
F000F0
F000F0
F001F0
F801E0
F803E0
7F1FC0
7FFF80
3FFF00
0FF800
00C000
01C000
018000
03F800
03FC00
001C00
000C00
000C00
001C00
003800
07F800
07E000
ENDCHAR
STARTCHAR 0160
ENCODING 352
SWIDTH 580 0
DWIDTH 29 0
BBX 28 46 4 0
BITMAP
001E00F0
000F03E0
000787C0
0007CF80
0003DF00
0001FE00
0000F800
0000F000
00000000
00000000
0001E000
001FFE00
007FFF00
00FFFF80
01F81FC0
03E007E0
07C003E0
078003E0
0F8003F0
0F0001F0
0F0001F0
0F000000
0F000000
0F800000
0FC00000
07F00000
07FF8000
03FFF000
00FFFC00
001FFE00
0000FF00
00001F80
00000F80
00000F80
00000780
F8000780
F8000780
F8000F80
FC000F80
7C001F00
7E003E00
3F00FE00
3FFFFC00
1FFFF000
0FFFE000
03FF8000
ENDCHAR
STARTCHAR 0161
ENCODING 353
SWIDTH 480 0
DWIDTH 24 0
BBX 23 37 4 0
BITMAP
01E03E
00F078
0078F0
007DE0
003FC0
001F80
000F00
000000
000000
000000
007F80
01FFE0
07FFF0
0FE3F8
1F00F8
1E0078
1E007C
3C007C
3C0000
3E0000
3E0000
1FC000
1FFE00
07FFC0
01FFE0
000FE0
0001F0
0000F0
F000F0
F000F0
F001F0
F801E0
F803E0
7F1FC0
7FFF80
3FFF00
0FFC00
ENDCHAR
STARTCHAR 0162
ENCODING 354
SWIDTH 580 0
DWIDTH 29 0
BBX 25 47 8 -12
BITMAP
FFFFFF80
FFFFFF80
FFFFFF80
FFFFFF80
003C0000
003C0000
007C0000
007C0000
00780000
00780000
00780000
00780000
00F80000
00F80000
00F00000
00F00000
00F00000
00F00000
01F00000
01F00000
01E00000
01E00000
01E00000
03E00000
03E00000
03C00000
03C00000
03C00000
03C00000
07C00000
07C00000
07800000
07800000
07800000
07800000
06000000
0E000000
0C000000
1FC00000
1FE00000
00E00000
00700000
00600000
00600000
01E00000
3FC00000
3F000000
ENDCHAR
STARTCHAR 0163
ENCODING 355
SWIDTH 400 0
DWIDTH 20 0
BBX 15 47 6 -12
BITMAP
03E0
03E0
03C0
03C0
03C0
07C0
07C0
07C0
0780
FFFE
FFFE
FFFE
0F80
0F00
0F00
0F00
0F00
1F00
1F00
1E00
1E00
1E00
1E00
3E00
3E00
3C00
3C00
3C00
3C00
7C00
7C00
7C00
7FF0
3FE0
1FE0
0E00
0C00
1C00
1FC0
3FC0
00E0
00E0
00E0
00C0
23C0
3F80
7F00
ENDCHAR
STARTCHAR 0164
ENCODING 356
SWIDTH 580 0
DWIDTH 29 0
BBX 25 46 8 0
BITMAP
03C03E00
01E07C00
00F0F800
00F9F000
007BE000
003F8000
001F0000
001E0000
00000000
00000000
00000000
FFFFFF80
FFFFFF80
FFFFFF80
FFFFFF80
003C0000
003C0000
007C0000
007C0000
00780000
00780000
00780000
00780000
00F80000
00F80000
00F00000
00F00000
00F00000
00F00000
01F00000
01F00000
01E00000
01E00000
01E00000
03E00000
03E00000
03C00000
03C00000
03C00000
03C00000
07C00000
07C00000
07800000
07800000
07800000
07800000
ENDCHAR
STARTCHAR 0165
ENCODING 357
SWIDTH 500 0
DWIDTH 25 0
BBX 18 39 6 0
BITMAP
0007C0
000FC0
000FC0
000FC0
03EFC0
03E1C0
03C1C0
03C1C0
03C180
07C300
07C700
07CC00
079800
FFFE00
FFFE00
FFFE00
0F8000
0F0000
0F0000
0F0000
0F0000
1F0000
1F0000
1E0000
1E0000
1E0000
1E0000
3E0000
3E0000
3C0000
3C0000
3C0000
3C0000
7C0000
7C0000
7C0000
7FF000
3FE000
1FE000
ENDCHAR
STARTCHAR 0166
ENCODING 358
SWIDTH 580 0
DWIDTH 29 0
BBX 26 35 7 0
BITMAP
7FFFFFC0
7FFFFFC0
7FFFFFC0
7FFFFFC0
001E0000
001E0000
003E0000
003E0000
003C0000
003C0000
003C0000
003C0000
007C0000
007C0000
7FFFFC00
7FFFFC00
FFFFF800
00F80000
00F80000
00F00000
00F00000
00F00000
00F00000
01F00000
01F00000
01E00000
01E00000
01E00000
01E00000
03E00000
03E00000
03C00000
03C00000
03C00000
03C00000
ENDCHAR
STARTCHAR 0167
ENCODING 359
SWIDTH 380 0
DWIDTH 19 0
BBX 17 35 4 0
BITMAP
00F800
00F800
00F000
00F000
00F000
00F000
01F000
01F000
01E000
3FFF80
3FFF80
3FFF80
03E000
03E000
03C000
03C000
03C000
07C000
07C000
FFFF00
FFFF00
078000
078000
0F8000
0F8000
0F0000
0F0000
0F0000
0F0000
1F0000
1F0000
1F8000
0FFC00
0FF800
07F800
ENDCHAR
STARTCHAR 0168
ENCODING 360
SWIDTH 680 0
DWIDTH 34 0
BBX 32 45 5 0
BITMAP
0003E070
0007F9E0
000FFFE0
001E1FC0
001C0600
00000000
00000000
00000000
00000000
00000000
0F00000F
0F00001F
0F00001F
0F00001E
1F00001E
1F00001E
1E00001E
1E00003E
1E00003C
1E00003C
3E00003C
3E00003C
3C00007C
3C00007C
3C000078
3C000078
7C000078
78000078
780000F8
780000F8
780000F0
780000F0
780001F0
F80001F0
F80001E0
780003E0
780003C0
7C0007C0
7C000F80
7E001F80
3F807F00
1FFFFE00
1FFFFC00
07FFF000
03FFC000
ENDCHAR
STARTCHAR 0169
ENCODING 361
SWIDTH 600 0
DWIDTH 30 0
BBX 26 37 5 0
BITMAP
00080700
007F0E00
00FFFE00
01E7FC00
01C1F800
00000000
00000000
00000000
00000000
00000000
00000000
1E0003C0
1E0007C0
1E0007C0
3E000780
3E000780
3C000780
3C000780
3C000F80
3C000F80
7C000F00
7C000F00
78000F00
78001F00
78001F00
78001F00
F8001E00
F8001E00
F8003E00
F8003E00
F8007E00
FC00FE00
7E01BC00
7FCFBC00
3FFF3C00
1FFC7C00
0FF87C00
ENDCHAR
STARTCHAR 016A
ENCODING 362
SWIDTH 680 0
DWIDTH 34 0
BBX 32 42 5 0
BITMAP
000FFFE0
000FFFE0
00000000
00000000
00000000
00000000
00000000
0F00000F
0F00001F
0F00001F
0F00001E
1F00001E
1F00001E
1E00001E
1E00003E
1E00003C
1E00003C
3E00003C
3E00003C
3C00007C
3C00007C
3C000078
3C000078
7C000078
78000078
780000F8
780000F8
780000F0
780000F0
780001F0
F80001F0
F80001E0
780003E0
780003C0
7C0007C0
7C000F80
7E001F80
3F807F00
1FFFFE00
1FFFFC00
07FFF000
03FFC000
ENDCHAR
STARTCHAR 016B
ENCODING 363
SWIDTH 600 0
DWIDTH 30 0
BBX 26 34 5 0
BITMAP
00FFFE00
01FFFC00
01FFFC00
00000000
00000000
00000000
00000000
00000000
1E0003C0
1E0007C0
1E0007C0
3E000780
3E000780
3C000780
3C000780
3C000F80
3C000F80
7C000F00
7C000F00
78000F00
78001F00
78001F00
78001F00
F8001E00
F8001E00
F8003E00
F8003E00
F8007E00
FC00FE00
7E01BC00
7FCFBC00
3FFF3C00
1FFC7C00
0FF87C00
ENDCHAR
STARTCHAR 016E
ENCODING 366
SWIDTH 680 0
DWIDTH 34 0
BBX 32 48 5 0
BITMAP
00003C00
00007E00
0000C700
0001C300
00018300
00018700
0001CE00
0000FC00
00007000
00000000
00000000
00000000
00000000
0F00000F
0F00001F
0F00001F
0F00001E
1F00001E
1F00001E
1E00001E
1E00003E
1E00003C
1E00003C
3E00003C
3E00003C
3C00007C
3C00007C
3C000078
3C000078
7C000078
78000078
780000F8
780000F8
780000F0
780000F0
780001F0
F80001F0
F80001E0
780003E0
780003C0
7C0007C0
7C000F80
7E001F80
3F807F00
1FFFFE00
1FFFFC00
07FFF000
03FFC000
ENDCHAR
STARTCHAR 016F
ENCODING 367
SWIDTH 600 0
DWIDTH 30 0
BBX 26 39 5 0
BITMAP
0007C000
000FE000
001C7000
00183000
00183000
00186000
001FC000
000F8000
00000000
00000000
00000000
00000000
00000000
1E0003C0
1E0007C0
1E0007C0
3E000780
3E000780
3C000780
3C000780
3C000F80
3C000F80
7C000F00
7C000F00
78000F00
78001F00
78001F00
78001F00
F8001E00
F8001E00
F8003E00
F8003E00
F8007E00
FC00FE00
7E01BC00
7FCFBC00
3FFF3C00
1FFC7C00
0FF87C00
ENDCHAR
STARTCHAR 0172
ENCODING 370
SWIDTH 680 0
DWIDTH 34 0
BBX 32 43 5 -8
BITMAP
0F00000F
0F00001F
0F00001F
0F00001E
1F00001E
1F00001E
1E00001E
1E00003E
1E00003C
1E00003C
3E00003C
3E00003C
3C00007C
3C00007C
3C000078
3C000078
7C000078
78000078
780000F8
780000F8
780000F0
780000F0
780001F0
F80001F0
F80001E0
780003E0
780003C0
7C0007C0
7C000F80
7E001F80
3F807F00
1FFFFE00
1FFFFC00
07FFF000
03FFC000
003C0000
00700000
00E00000
00E00000
00E00000
00F00000
00FE0000
007E0000
ENDCHAR
STARTCHAR 0173
ENCODING 371
SWIDTH 600 0
DWIDTH 30 0
BBX 26 34 5 -8
BITMAP
1E0003C0
1E0007C0
1E0007C0
3E000780
3E000780
3C000780
3C000780
3C000F80
3C000F80
7C000F00
7C000F00
78000F00
78001F00
78001F00
78001F00
F8001E00
F8001E00
F8003E00
F8003E00
F8007E00
FC00FE00
7E01BC00
7FCFBC00
3FFF3C00
1FFC7C00
0FF87C00
0000F000
0001E000
0001C000
00038000
00038000
0003EC00
0001FC00
0000F800
ENDCHAR
STARTCHAR 0174
ENCODING 372
SWIDTH 980 0
DWIDTH 49 0
BBX 48 46 7 0
BITMAP
000000F00000
000001F00000
000007F80000
00000FFC0000
00001F3C0000
00003E1E0000
0000780F0000
0000F00F8000
000000000000
000000000000
000000000000
F00003C0001F
F00007C0001E
F00007C0003E
F0000FC0003C
F0000FC0003C
F0001FE00078
F8001FE00078
F8003FE000F8
78003DE000F0
780079E001F0
780079E001E0
7800F1F001E0
7800F1F003C0
7801E0F003C0
7801E0F007C0
7803C0F00780
7803C0F00F80
7C0780F00F00
7C0780F80F00
3C0F80F81E00
3C0F00781E00
3C1F00783C00
3C1E00783C00
3C3E00787C00
3C3C00787800
3C7C007CF800
3C78003CF000
3CF8003CF000
3EF0003DE000
1FF0003DE000
1FE0003FC000
1FE0003FC000
1FC0003FC000
1FC0001F8000
1F80001F8000
ENDCHAR
STARTCHAR 0175
ENCODING 373
SWIDTH 800 0
DWIDTH 40 0
BBX 37 37 6 0
BITMAP
00003E0000
00007F0000
0000FF0000
0001F78000
0003C3C000
000783E000
000F01E000
0000001000
0000000000
0000000000
0000000000
F000780078
F000F80078
F800F800F0
7801F800F0
7801FC00F0
7803FC01E0
7803FC01E0
7807BC03C0
7807BC03C0
780F3C0780
780F3C0780
781E1E0F00
3C1E1E0F00
3C3C1E0F00
3C3C1E1E00
3C781E1E00
3C781E3C00
3CF81E3C00
3CF00F7800
3DF00F7800
3DE00FF000
3FE00FF000
1FC00FF000
1FC00FE000
1F800FE000
1F800FC000
ENDCHAR
STARTCHAR 0176
ENCODING 374
SWIDTH 600 0
DWIDTH 30 0
BBX 26 46 8 0
BITMAP
00078000
000FC000
001FC000
003DE000
0078F000
00F0F800
01E07800
03C03C00
00000000
00000000
00000000
F80003C0
F80007C0
F8000F80
78000F00
7C001F00
3C003E00
3C003C00
3E007C00
1E00F800
1E00F000
1F01F000
0F03E000
0F03C000
0F87C000
078F8000
078F0000
07DF0000
03FE0000
03FC0000
03FC0000
01F80000
01F00000
01F00000
01E00000
01E00000
01E00000
01E00000
03E00000
03E00000
03C00000
03C00000
03C00000
03C00000
07C00000
07C00000
ENDCHAR
STARTCHAR 0177
ENCODING 375
SWIDTH 480 0
DWIDTH 24 0
BBX 29 47 0 -10
BITMAP
0000F800
0001FC00
0003FC00
00079E00
000F1F00
001E0F80
003C0780
00000000
00000000
00000000
00000000
07C000F8
07C000F0
07C001F0
03C001E0
03C003C0
03C007C0
03E00780
01E00F80
01E00F00
01E01E00
01E01E00
01F03C00
00F03C00
00F07800
00F0F800
00F0F000
0079E000
0079E000
007BC000
007BC000
007F8000
003F8000
003F0000
003E0000
003E0000
003C0000
007C0000
00780000
00F00000
00F00000
01E00000
03E00000
0FC00000
FF800000
FF000000
FC000000
ENDCHAR
STARTCHAR 0178
ENCODING 376
SWIDTH 600 0
DWIDTH 30 0
BBX 26 45 8 1
BITMAP
00F03C00
01F87C00
01F07C00
01F07C00
00E07800
00000000
00000000
00000000
00000000
00000000
F80003C0
F80007C0
F8000F80
78000F00
7C001F00
3C003E00
3C003C00
3E007C00
1E00F800
1E00F000
1F01F000
0F03E000
0F03C000
0F87C000
078F8000
078F0000
07DF0000
03FE0000
03FC0000
03FC0000
01F80000
01F00000
01F00000
01E00000
01E00000
01E00000
01E00000
03E00000
03E00000
03C00000
03C00000
03C00000
03C00000
07C00000
07C00000
ENDCHAR
STARTCHAR 0179
ENCODING 377
SWIDTH 600 0
DWIDTH 30 0
BBX 30 48 3 0
BITMAP
000000F0
000001E0
000003E0
000003C0
00000780
00000F00
00001E00
00001C00
00003C00
00000000
00000000
00000000
00000000
07FFFFFC
07FFFFFC
07FFFFFC
07FFFFFC
000000F8
000001F0
000003E0
000007E0
00000FC0
00000F80
00001F00
00003E00
00007C00
0000F800
0001F000
0003E000
0007C000
000FC000
001F8000
001F0000
003E0000
007C0000
00F80000
01F00000
03E00000
07C00000
0F800000
1F800000
3F000000
3E000000
7C000000
FFFFFF80
FFFFFF80
FFFFFF80
FFFFFF00
ENDCHAR
STARTCHAR 017A
ENCODING 378
SWIDTH 480 0
DWIDTH 24 0
BBX 24 39 3 0
BITMAP
00001F
00001E
00003C
000078
000078
0000F0
0001E0
0003C0
000380
000000
000000
000000
000000
07FFFF
07FFFF
0FFFFF
00001E
00003C
000078
0000F0
0001E0
0003C0
000780
000F00
001F00
003E00
007C00
00F800
01F000
03E000
07C000
0F8000
1F0000
3E0000
7C0000
FFFFF0
FFFFF0
FFFFF0
FFFFF0
ENDCHAR
STARTCHAR 017B
ENCODING 379
SWIDTH 600 0
DWIDTH 30 0
BBX 30 45 3 1
BITMAP
00003C00
00007C00
00007C00
00007C00
00007800
00000000
00000000
00000000
00000000
00000000
07FFFFFC
07FFFFFC
07FFFFFC
07FFFFFC
000000F8
000001F0
000003E0
000007E0
00000FC0
00000F80
00001F00
00003E00
00007C00
0000F800
0001F000
0003E000
0007C000
000FC000
001F8000
001F0000
003E0000
007C0000
00F80000
01F00000
03E00000
07C00000
0F800000
1F800000
3F000000
3E000000
7C000000
FFFFFF80
FFFFFF80
FFFFFF80
FFFFFF00
ENDCHAR
STARTCHAR 017C
ENCODING 380
SWIDTH 480 0
DWIDTH 24 0
BBX 24 37 3 0
BITMAP
000180
0007C0
0007C0
0007C0
0007C0
000300
000000
000000
000000
000000
000000
07FFFF
07FFFF
0FFFFF
00001E
00003C
000078
0000F0
0001E0
0003C0
000780
000F00
001F00
003E00
007C00
00F800
01F000
03E000
07C000
0F8000
1F0000
3E0000
7C0000
FFFFF0
FFFFF0
FFFFF0
FFFFF0
ENDCHAR
STARTCHAR 017D
ENCODING 381
SWIDTH 600 0
DWIDTH 30 0
BBX 30 46 3 0
BITMAP
000F00F0
000F81E0
000783C0
0003C780
0001EF00
0001FE00
0000FC00
00007800
00000000
00000000
00000000
07FFFFFC
07FFFFFC
07FFFFFC
07FFFFFC
000000F8
000001F0
000003E0
000007E0
00000FC0
00000F80
00001F00
00003E00
00007C00
0000F800
0001F000
0003E000
0007C000
000FC000
001F8000
001F0000
003E0000
007C0000
00F80000
01F00000
03E00000
07C00000
0F800000
1F800000
3F000000
3E000000
7C000000
FFFFFF80
FFFFFF80
FFFFFF80
FFFFFF00
ENDCHAR
STARTCHAR 017E
ENCODING 382
SWIDTH 480 0
DWIDTH 24 0
BBX 24 37 3 0
BITMAP
00F00F
00781E
007C3C
003CF8
001FF0
000FE0
000FC0
000000
000000
000000
000000
07FFFF
07FFFF
0FFFFF
00001E
00003C
000078
0000F0
0001E0
0003C0
000780
000F00
001F00
003E00
007C00
00F800
01F000
03E000
07C000
0F8000
1F0000
3E0000
7C0000
FFFFF0
FFFFF0
FFFFF0
FFFFF0
ENDCHAR
STARTCHAR 01A0
ENCODING 416
SWIDTH 720 0
DWIDTH 36 0
BBX 33 40 5 0
BITMAP
0000000380
0000000380
0000000780
0000000780
0000FC0F00
0007FFFF00
001FFFFC00
007FFFF800
00FF07FC00
01FC00FC00
03F0007E00
07E0003E00
0FC0001F00
0F80001F00
1F00001F00
1E00000F00
3E00000F00
3C00000F00
7C00000F00
7C00000F00
7800000F00
7800000F00
F800000F00
F800001F00
F800001F00
F800001E00
F800003E00
F800003E00
F800003C00
F800007C00
780000F800
7C0000F800
7C0001F000
7E0003E000
3F000FE000
1FC03F8000
1FFFFF0000
0FFFFE0000
03FFF80000
00FFE00000
ENDCHAR
STARTCHAR 01A1
ENCODING 417
SWIDTH 580 0
DWIDTH 29 0
BBX 28 31 4 0
BITMAP
00000070
00000070
00000070
000000F0
001FE1E0
007FFFC0
01FFFF80
03FFFE00
07E03F00
0F801F00
1F000F00
3E000F80
3C000F80
7C000780
78000780
78000780
F8000780
F0000780
F0000F80
F0000F00
F0000F00
F0001F00
F0001E00
F8003E00
F8007C00
7C00FC00
7E01F800
3F8FF000
1FFFC000
0FFF8000
07FE0000
ENDCHAR
STARTCHAR 01AF
ENCODING 431
SWIDTH 680 0
DWIDTH 34 0
BBX 38 40 5 0
BITMAP
000000001C
000000003C
000000003C
0000000038
0000000078
0F00000FF0
0F00001FE0
0F00001E00
0F00001E00
1F00001E00
1F00001E00
1E00001E00
1E00003E00
1E00003C00
1E00003C00
3E00003C00
3E00003C00
3C00007C00
3C00007C00
3C00007800
3C00007800
7C00007800
7800007800
780000F800
780000F800
780000F000
780000F000
780001F000
F80001F000
F80001E000
780003E000
780003C000
7C0007C000
7C000F8000
7E001F8000
3F807F0000
1FFFFE0000
1FFFFC0000
07FFF00000
03FFC00000
ENDCHAR
STARTCHAR 01B0
ENCODING 432
SWIDTH 600 0
DWIDTH 30 0
BBX 32 31 5 0
BITMAP
00000007
00000007
0000000F
0000000F
0000001E
1E0003FC
1E0007F8
1E0007C0
3E000780
3E000780
3C000780
3C000780
3C000F80
3C000F80
7C000F00
7C000F00
78000F00
78001F00
78001F00
78001F00
F8001E00
F8001E00
F8003E00
F8003E00
F8007E00
FC00FE00
7E01BC00
7FCFBC00
3FFF3C00
1FFC7C00
0FF87C00
ENDCHAR
STARTCHAR 02C6
ENCODING 710
SWIDTH 400 0
DWIDTH 20 0
BBX 16 7 7 30
BITMAP
01F0
03F0
07F8
0F3C
1E3E
3C1E
F80F
ENDCHAR
STARTCHAR 02C7
ENCODING 711
SWIDTH 380 0
DWIDTH 19 0
BBX 16 7 8 30
BITMAP
F00F
781E
3C3C
3E78
1FF0
0FE0
07C0
ENDCHAR
STARTCHAR 02D8
ENCODING 728
SWIDTH 380 0
DWIDTH 19 0
BBX 16 6 8 30
BITMAP
E007
F00F
783E
7FF8
1FF0
0700
ENDCHAR
STARTCHAR 02D9
ENCODING 729
SWIDTH 160 0
DWIDTH 8 0
BBX 6 6 7 31
BITMAP
38
7C
FC
FC
78
70
ENDCHAR
STARTCHAR 02DA
ENCODING 730
SWIDTH 220 0
DWIDTH 11 0
BBX 9 8 7 31
BITMAP
1F00
3F80
6180
6180
C180
E380
7F00
3E00
ENDCHAR
STARTCHAR 02DB
ENCODING 731
SWIDTH 200 0
DWIDTH 10 0
BBX 7 9 1 -9
BITMAP
18
3C
70
E0
E0
E0
F0
FE
7E
ENDCHAR
STARTCHAR 02DC
ENCODING 732
SWIDTH 380 0
DWIDTH 19 0
BBX 17 5 7 32
BITMAP
040380
3F8780
7FFF00
7BFE00
E0FC00
ENDCHAR
STARTCHAR 0300
ENCODING 768
SWIDTH 0 0
DWIDTH 0 0
BBX 7 9 -4 31
BITMAP
F0
F0
78
78
3C
3C
1C
1E
0E
ENDCHAR
STARTCHAR 0301
ENCODING 769
SWIDTH 0 0
DWIDTH 0 0
BBX 10 9 -4 31
BITMAP
03C0
0780
0F00
1F00
1E00
3C00
7800
7000
E000
ENDCHAR
STARTCHAR 0302
ENCODING 770
SWIDTH 0 0
DWIDTH 0 0
BBX 16 7 -12 30
BITMAP
01E0
03F0
0FF8
1F78
3E3C
7C3E
F01F
ENDCHAR
STARTCHAR 0303
ENCODING 771
SWIDTH 0 0
DWIDTH 0 0
BBX 17 5 -11 32
BITMAP
040380
3F8700
7FFF00
7BFE00
E0FC00
ENDCHAR
STARTCHAR 0304
ENCODING 772
SWIDTH 0 0
DWIDTH 0 0
BBX 15 2 -12 32
BITMAP
FFFE
FFFE
ENDCHAR
STARTCHAR 0306
ENCODING 774
SWIDTH 0 0
DWIDTH 0 0
BBX 17 6 -12 30
BITMAP
F00780
F00F00
7C3E00
3FFC00
1FF000
010000
ENDCHAR
STARTCHAR 0307
ENCODING 775
SWIDTH 0 0
DWIDTH 0 0
BBX 5 6 -3 31
BITMAP
30
F8
F8
F8
F8
60
ENDCHAR
STARTCHAR 0308
ENCODING 776
SWIDTH 0 0
DWIDTH 0 0
BBX 16 6 -13 31
BITMAP
380C
7C1E
FC3F
FC3E
F83E
7018
ENDCHAR
STARTCHAR 0309
ENCODING 777
SWIDTH 0 0
DWIDTH 0 0
BBX 11 9 -6 31
BITMAP
1F80
7FC0
7BE0
E1E0
01E0
01C0
0380
0F00
1E00
ENDCHAR
STARTCHAR 030A
ENCODING 778
SWIDTH 0 0
DWIDTH 0 0
BBX 9 8 -5 31
BITMAP
3E00
7F00
E300
C380
C300
C300
FE00
7C00
ENDCHAR
STARTCHAR 030C
ENCODING 780
SWIDTH 0 0
DWIDTH 0 0
BBX 16 7 -12 30
BITMAP
F00F
783E
7C7C
3CF8
1FF0
0FE0
0FC0
ENDCHAR
STARTCHAR 031B
ENCODING 795
SWIDTH 0 0
DWIDTH 0 0
BBX 9 7 -5 27
BITMAP
0380
0380
0780
0700
FF00
FE00
E000
ENDCHAR
STARTCHAR 0323
ENCODING 803
SWIDTH 0 0
DWIDTH 0 0
BBX 6 5 -8 -11
BITMAP
7C
7C
FC
F8
70
ENDCHAR
STARTCHAR 0327
ENCODING 807
SWIDTH 0 0
DWIDTH 0 0
BBX 9 12 -12 -12
BITMAP
1800
3800
3000
7F00
7F80
0380
0180
0180
0380
0700
FF00
FC00
ENDCHAR
STARTCHAR 0328
ENCODING 808
SWIDTH 0 0
DWIDTH 0 0
BBX 7 9 -10 -9
BITMAP
18
3C
70
E0
E0
E0
F0
FE
7E
ENDCHAR
STARTCHAR 1E80
ENCODING 7808
SWIDTH 980 0
DWIDTH 49 0
BBX 48 48 7 0
BITMAP
00003E000000
00001E000000
00001E000000
00000F000000
00000F000000
000007800000
000007800000
000003800000
000003C00000
000000000000
000000000000
000000000000
000000000000
F00003C0001F
F00007C0001E
F00007C0003E
F0000FC0003C
F0000FC0003C
F0001FE00078
F8001FE00078
F8003FE000F8
78003DE000F0
780079E001F0
780079E001E0
7800F1F001E0
7800F1F003C0
7801E0F003C0
7801E0F007C0
7803C0F00780
7803C0F00F80
7C0780F00F00
7C0780F80F00
3C0F80F81E00
3C0F00781E00
3C1F00783C00
3C1E00783C00
3C3E00787C00
3C3C00787800
3C7C007CF800
3C78003CF000
3CF8003CF000
3EF0003DE000
1FF0003DE000
1FE0003FC000
1FE0003FC000
1FC0003FC000
1FC0001F8000
1F80001F8000
ENDCHAR
STARTCHAR 1E81
ENCODING 7809
SWIDTH 800 0
DWIDTH 40 0
BBX 37 39 6 0
BITMAP
0007C00000
0003C00000
0003E00000
0001E00000
0001E00000
0000F00000
0000F00000
0000780000
0000780000
0000000000
0000000000
0000000000
0000000000
F000780078
F000F80078
F800F800F0
7801F800F0
7801FC00F0
7803FC01E0
7803FC01E0
7807BC03C0
7807BC03C0
780F3C0780
780F3C0780
781E1E0F00
3C1E1E0F00
3C3C1E0F00
3C3C1E1E00
3C781E1E00
3C781E3C00
3CF81E3C00
3CF00F7800
3DF00F7800
3DE00FF000
3FE00FF000
1FC00FF000
1FC00FE000
1F800FE000
1F800FC000
ENDCHAR
STARTCHAR 1E82
ENCODING 7810
SWIDTH 980 0
DWIDTH 49 0
BBX 48 48 7 0
BITMAP
00000007C000
000000078000
0000000F0000
0000001E0000
0000003C0000
0000003C0000
000000780000
000000F00000
000001E00000
000000000000
000000000000
000000000000
000000000000
F00003C0001F
F00007C0001E
F00007C0003E
F0000FC0003C
F0000FC0003C
F0001FE00078
F8001FE00078
F8003FE000F8
78003DE000F0
780079E001F0
780079E001E0
7800F1F001E0
7800F1F003C0
7801E0F003C0
7801E0F007C0
7803C0F00780
7803C0F00F80
7C0780F00F00
7C0780F80F00
3C0F80F81E00
3C0F00781E00
3C1F00783C00
3C1E00783C00
3C3E00787C00
3C3C00787800
3C7C007CF800
3C78003CF000
3CF8003CF000
3EF0003DE000
1FF0003DE000
1FE0003FC000
1FE0003FC000
1FC0003FC000
1FC0001F8000
1F80001F8000
ENDCHAR
STARTCHAR 1E83
ENCODING 7811
SWIDTH 800 0
DWIDTH 40 0
BBX 37 39 6 0
BITMAP
000000F800
000001F000
000001E000
000003C000
0000078000
0000078000
00000F0000
00001E0000
00003C0000
0000000000
0000000000
0000000000
0000000000
F000780078
F000F80078
F800F800F0
7801F800F0
7801FC00F0
7803FC01E0
7803FC01E0
7807BC03C0
7807BC03C0
780F3C0780
780F3C0780
781E1E0F00
3C1E1E0F00
3C3C1E0F00
3C3C1E1E00
3C781E1E00
3C781E3C00
3CF81E3C00
3CF00F7800
3DF00F7800
3DE00FF000
3FE00FF000
1FC00FF000
1FC00FE000
1F800FE000
1F800FC000
ENDCHAR
STARTCHAR 1E84
ENCODING 7812
SWIDTH 980 0
DWIDTH 49 0
BBX 48 45 7 1
BITMAP
00003E0F8000
00003E0F8000
00007E1F8000
00003E1F0000
00003C0E0000
000000000000
000000000000
000000000000
000000000000
000000000000
F00003C0001F
F00007C0001E
F00007C0003E
F0000FC0003C
F0000FC0003C
F0001FE00078
F8001FE00078
F8003FE000F8
78003DE000F0
780079E001F0
780079E001E0
7800F1F001E0
7800F1F003C0
7801E0F003C0
7801E0F007C0
7803C0F00780
7803C0F00F80
7C0780F00F00
7C0780F80F00
3C0F80F81E00
3C0F00781E00
3C1F00783C00
3C1E00783C00
3C3E00787C00
3C3C00787800
3C7C007CF800
3C78003CF000
3CF8003CF000
3EF0003DE000
1FF0003DE000
1FE0003FC000
1FE0003FC000
1FC0003FC000
1FC0001F8000
1F80001F8000
ENDCHAR
STARTCHAR 1E85
ENCODING 7813
SWIDTH 800 0
DWIDTH 40 0
BBX 37 37 6 0
BITMAP
000180E000
0007C1F000
0007C1F000
0007C3F000
0007C1E000
000300C000
0000000000
0000000000
0000000000
0000000000
0000000000
F000780078
F000F80078
F800F800F0
7801F800F0
7801FC00F0
7803FC01E0
7803FC01E0
7807BC03C0
7807BC03C0
780F3C0780
780F3C0780
781E1E0F00
3C1E1E0F00
3C3C1E0F00
3C3C1E1E00
3C781E1E00
3C781E3C00
3CF81E3C00
3CF00F7800
3DF00F7800
3DE00FF000
3FE00FF000
1FC00FF000
1FC00FE000
1F800FE000
1F800FC000
ENDCHAR
STARTCHAR 1EA0
ENCODING 7840
SWIDTH 680 0
DWIDTH 34 0
BBX 30 46 2 -11
BITMAP
00001E00
00003E00
00003F00
00007F00
0000FF00
0000FF00
0001EF00
0001E780
0003C780
0003C780
00078780
00078780
000F03C0
000F03C0
001E03C0
003E03C0
003C03C0
007C03E0
007801E0
00F001E0
00F001E0
01FFFFE0
01FFFFF0
03FFFFF0
03FFFFF0
078000F0
0F8000F8
0F0000F8
1F000078
1E000078
3E000078
3C00007C
7C00007C
7800003C
F000003C
00000000
00000000
00000000
00000000
00000000
00000000
000F0000
001F0000
001F0000
001F0000
001E0000
ENDCHAR
STARTCHAR 1EA1
ENCODING 7841
SWIDTH 600 0
DWIDTH 30 0
BBX 27 38 4 -11
BITMAP
003F8000
00FFE1E0
03FFF1E0
07FFFBE0
0FE03BE0
0F801FC0
1F000FC0
3E000FC0
3C0007C0
7C0007C0
780007C0
78000780
F8000780
F8000780
F8000F80
F0000F80
F0000F80
F0001F00
F8001F00
F8003F00
F8007F00
7C00FF00
7E01DF00
7F8F9E00
3FFF1E00
1FFE1E00
07F83E00
00000000
00000000
00000000
00000000
00000000
00000000
00F00000
01F80000
01F00000
01F00000
01E00000
ENDCHAR
STARTCHAR 1EA2
ENCODING 7842
SWIDTH 680 0
DWIDTH 34 0
BBX 30 48 2 0
BITMAP
00000780
00001FE0
00003FF0
000078F0
00000070
000000F0
000001E0
000003C0
00000700
00000800
00000000
00000000
00000000
00001E00
00003E00
00003F00
00007F00
0000FF00
0000FF00
0001EF00
0001E780
0003C780
0003C780
00078780
00078780
000F03C0
000F03C0
001E03C0
003E03C0
003C03C0
007C03E0
007801E0
00F001E0
00F001E0
01FFFFE0
01FFFFF0
03FFFFF0
03FFFFF0
078000F0
0F8000F8
0F0000F8
1F000078
1E000078
3E000078
3C00007C
7C00007C
7800003C
F000003C
ENDCHAR
STARTCHAR 1EA3
ENCODING 7843
SWIDTH 600 0
DWIDTH 30 0
BBX 27 39 4 0
BITMAP
0001F800
0007FC00
000FFC00
000E1C00
00001C00
00001C00
00007800
0000F000
0001C000
00000000
00000000
00000000
003F8000
00FFE1E0
03FFF1E0
07FFFBE0
0FE03BE0
0F801FC0
1F000FC0
3E000FC0
3C0007C0
7C0007C0
780007C0
78000780
F8000780
F8000780
F8000F80
F0000F80
F0000F80
F0001F00
F8001F00
F8003F00
F8007F00
7C00FF00
7E01DF00
7F8F9E00
3FFF1E00
1FFE1E00
07F83E00
ENDCHAR
STARTCHAR 1EA4
ENCODING 7844
SWIDTH 680 0
DWIDTH 34 0
BBX 39 54 2 0
BITMAP
000000001E
000000003C
000000007C
0000000078
00000000F0
00000001E0
00000003C0
0000000380
0000078780
00000F8000
00001FC000
00003DE000
0000F9F000
0001F0F000
0003E07800
0007C07C00
0000000000
0000000000
0000000000
00001E0000
00003E0000
00003F0000
00007F0000
0000FF0000
0000FF0000
0001EF0000
0001E78000
0003C78000
0003C78000
0007878000
0007878000
000F03C000
000F03C000
001E03C000
003E03C000
003C03C000
007C03E000
007801E000
00F001E000
00F001E000
01FFFFE000
01FFFFF000
03FFFFF000
03FFFFF000
078000F000
0F8000F800
0F0000F800
1F00007800
1E00007800
3E00007800
3C00007C00
7C00007C00
7800003C00
F000003C00
ENDCHAR
STARTCHAR 1EA5
ENCODING 7845
SWIDTH 600 0
DWIDTH 30 0
BBX 33 45 4 0
BITMAP
0000000780
0000000F80
0000001F00
0000001E00
0000003C00
0000007800
0000007000
000000F000
0001E1E000
0003F00000
0007F80000
000F7C0000
001E3C0000
003C1E0000
00F81F0000
0000000000
0000000000
0000000000
003F800000
00FFE1E000
03FFF1E000
07FFFBE000
0FE03BE000
0F801FC000
1F000FC000
3E000FC000
3C0007C000
7C0007C000
780007C000
7800078000
F800078000
F800078000
F8000F8000
F0000F8000
F0000F8000
F0001F0000
F8001F0000
F8003F0000
F8007F0000
7C00FF0000
7E01DF0000
7F8F9E0000
3FFF1E0000
1FFE1E0000
07F83E0000
ENDCHAR
STARTCHAR 1EA6
ENCODING 7846
SWIDTH 680 0
DWIDTH 34 0
BBX 31 54 2 0
BITMAP
000000F0
000000F8
00000078
0000007C
0000003C
0000003C
0000001E
0000001E
0000078E
00000F80
00001FC0
00003DE0
0000F9F0
0001F0F0
0003E078
0007C07C
00000000
00000000
00000000
00001E00
00003E00
00003F00
00007F00
0000FF00
0000FF00
0001EF00
0001E780
0003C780
0003C780
00078780
00078780
000F03C0
000F03C0
001E03C0
003E03C0
003C03C0
007C03E0
007801E0
00F001E0
00F001E0
01FFFFE0
01FFFFF0
03FFFFF0
03FFFFF0
078000F0
0F8000F8
0F0000F8
1F000078
1E000078
3E000078
3C00007C
7C00007C
7800003C
F000003C
ENDCHAR
STARTCHAR 1EA7
ENCODING 7847
SWIDTH 600 0
DWIDTH 30 0
BBX 27 45 4 0
BITMAP
00003E00
00001E00
00001F00
00000F00
00000F80
00000780
00000380
000003C0
0001E1C0
0003F000
0007F800
000F7C00
001E3C00
007C1E00
00F81F00
00000000
00000000
00000000
003F8000
00FFE1E0
03FFF1E0
07FFFBE0
0FE03BE0
0F801FC0
1F000FC0
3E000FC0
3C0007C0
7C0007C0
780007C0
78000780
F8000780
F8000780
F8000F80
F0000F80
F0000F80
F0001F00
F8001F00
F8003F00
F8007F00
7C00FF00
7E01DF00
7F8F9E00
3FFF1E00
1FFE1E00
07F83E00
ENDCHAR
STARTCHAR 1EA8
ENCODING 7848
SWIDTH 680 0
DWIDTH 34 0
BBX 36 54 2 0
BITMAP
00000007C0
0000001FF0
0000003FF0
0000003870
0000000070
0000000070
00000001E0
00000003C0
0000078700
00000F8000
00001FC000
00003DE000
0000F9F000
0001F0F000
0003E07800
0007C07C00
0000000000
0000000000
0000000000
00001E0000
00003E0000
00003F0000
00007F0000
0000FF0000
0000FF0000
0001EF0000
0001E78000
0003C78000
0003C78000
0007878000
0007878000
000F03C000
000F03C000
001E03C000
003E03C000
003C03C000
007C03E000
007801E000
00F001E000
00F001E000
01FFFFE000
01FFFFF000
03FFFFF000
03FFFFF000
078000F000
0F8000F800
0F0000F800
1F00007800
1E00007800
3E00007800
3C00007C00
7C00007C00
7800003C00
F000003C00
ENDCHAR
STARTCHAR 1EA9
ENCODING 7849
SWIDTH 600 0
DWIDTH 30 0
BBX 31 45 4 0
BITMAP
000003F8
000007FC
00000F9E
00000E1E
0000001E
0000001C
00000038
000000F0
0001E1C0
0003F000
0007F800
000F7C00
001E3C00
003C1E00
00F81F00
00000000
00000000
00000000
003F8000
00FFE1E0
03FFF1E0
07FFFBE0
0FE03BE0
0F801FC0
1F000FC0
3E000FC0
3C0007C0
7C0007C0
780007C0
78000780
F8000780
F8000780
F8000F80
F0000F80
F0000F80
F0001F00
F8001F00
F8003F00
F8007F00
7C00FF00
7E01DF00
7F8F9E00
3FFF1E00
1FFE1E00
07F83E00
ENDCHAR
STARTCHAR 1EAA
ENCODING 7850
SWIDTH 680 0
DWIDTH 34 0
BBX 31 53 2 0
BITMAP
00003C0E
0000FF1E
0001FFFC
0001C3F8
000380F0
00000000
00000000
00000780
00000F80
00001FC0
00003DE0
0000F9F0
0001F0F0
0003E078
0007C07C
00000000
00000000
00000000
00001E00
00003E00
00003F00
00007F00
0000FF00
0000FF00
0001EF00
0001E780
0003C780
0003C780
00078780
00078780
000F03C0
000F03C0
001E03C0
003E03C0
003C03C0
007C03E0
007801E0
00F001E0
00F001E0
01FFFFE0
01FFFFF0
03FFFFF0
03FFFFF0
078000F0
0F8000F8
0F0000F8
1F000078
1E000078
3E000078
3C00007C
7C00007C
7800003C
F000003C
ENDCHAR
STARTCHAR 1EAB
ENCODING 7851
SWIDTH 600 0
DWIDTH 30 0
BBX 27 44 4 0
BITMAP
000FC1C0
003FF780
003FFF00
00707E00
00700000
00000000
00000000
0001E000
0003F000
0007F800
000F7C00
001E3C00
003C1E00
00F81F00
00000000
00000000
00000000
003F8000
00FFE1E0
03FFF1E0
07FFFBE0
0FE03BE0
0F801FC0
1F000FC0
3E000FC0
3C0007C0
7C0007C0
780007C0
78000780
F8000780
F8000780
F8000F80
F0000F80
F0000F80
F0001F00
F8001F00
F8003F00
F8007F00
7C00FF00
7E01DF00
7F8F9E00
3FFF1E00
1FFE1E00
07F83E00
ENDCHAR
STARTCHAR 1EAC
ENCODING 7852
SWIDTH 680 0
DWIDTH 34 0
BBX 30 57 2 -11
BITMAP
00000780
00000F80
00001FC0
00003DE0
0000F9F0
0001F0F0
0003E078
0007C07C
00000000
00000000
00000000
00001E00
00003E00
00003F00
00007F00
0000FF00
0000FF00
0001EF00
0001E780
0003C780
0003C780
00078780
00078780
000F03C0
000F03C0
001E03C0
003E03C0
003C03C0
007C03E0
007801E0
00F001E0
00F001E0
01FFFFE0
01FFFFF0
03FFFFF0
03FFFFF0
078000F0
0F8000F8
0F0000F8
1F000078
1E000078
3E000078
3C00007C
7C00007C
7800003C
F000003C
00000000
00000000
00000000
00000000
00000000
00000000
000F0000
001F0000
001F0000
001F0000
001E0000
ENDCHAR
STARTCHAR 1EAD
ENCODING 7853
SWIDTH 600 0
DWIDTH 30 0
BBX 27 48 4 -11
BITMAP
0001E000
0003F000
0007F800
000F7C00
001E3C00
003C1E00
00F81F00
00000000
00000000
00000000
003F8000
00FFE1E0
03FFF1E0
07FFFBE0
0FE03BE0
0F801FC0
1F000FC0
3E000FC0
3C0007C0
7C0007C0
780007C0
78000780
F8000780
F8000780
F8000F80
F0000F80
F0000F80
F0001F00
F8001F00
F8003F00
F8007F00
7C00FF00
7E01DF00
7F8F9E00
3FFF1E00
1FFE1E00
07F83E00
00000000
00000000
00000000
00000000
00000000
00000000
00F00000
01F80000
01F00000
01F00000
01E00000
ENDCHAR
STARTCHAR 1EAE
ENCODING 7854
SWIDTH 680 0
DWIDTH 34 0
BBX 32 55 2 0
BITMAP
0000001F
0000001E
0000003C
00000078
00000078
000000F0
000001E0
000003C0
00000380
00000000
00000000
0003C01C
0001E078
0000FFF0
00007FE0
00001F80
00000000
00000000
00000000
00000000
00001E00
00003E00
00003F00
00007F00
0000FF00
0000FF00
0001EF00
0001E780
0003C780
0003C780
00078780
00078780
000F03C0
000F03C0
001E03C0
003E03C0
003C03C0
007C03E0
007801E0
00F001E0
00F001E0
01FFFFE0
01FFFFF0
03FFFFF0
03FFFFF0
078000F0
0F8000F8
0F0000F8
1F000078
1E000078
3E000078
3C00007C
7C00007C
7800003C
F000003C
ENDCHAR
STARTCHAR 1EAF
ENCODING 7855
SWIDTH 600 0
DWIDTH 30 0
BBX 27 46 4 0
BITMAP
000003C0
00000780
00000F80
00000F00
00001E00
00003C00
00007800
00007000
0000E000
00000000
00700380
00780780
003C1F00
003FFC00
000FF800
00038000
00000000
00000000
00000000
003F8000
00FFE1E0
03FFF1E0
07FFFBE0
0FE03BE0
0F801FC0
1F000FC0
3E000FC0
3C0007C0
7C0007C0
780007C0
78000780
F8000780
F8000780
F8000F80
F0000F80
F0000F80
F0001F00
F8001F00
F8003F00
F8007F00
7C00FF00
7E01DF00
7F8F9E00
3FFF1E00
1FFE1E00
07F83E00
ENDCHAR
STARTCHAR 1EB0
ENCODING 7856
SWIDTH 680 0
DWIDTH 34 0
BBX 31 55 2 0
BITMAP
0000F800
00007800
00003C00
00003C00
00001E00
00001E00
00000E00
00000F00
00000700
00000000
00000000
0003C01E
0001E07C
0000FFF0
00007FE0
00001F80
00000000
00000000
00000000
00000000
00001E00
00003E00
00003F00
00007F00
0000FF00
0000FF00
0001EF00
0001E780
0003C780
0003C780
00078780
00078780
000F03C0
000F03C0
001E03C0
003E03C0
003C03C0
007C03E0
007801E0
00F001E0
00F001E0
01FFFFE0
01FFFFF0
03FFFFF0
03FFFFF0
078000F0
0F8000F8
0F0000F8
1F000078
1E000078
3E000078
3C00007C
7C00007C
7800003C
F000003C
ENDCHAR
STARTCHAR 1EB1
ENCODING 7857
SWIDTH 600 0
DWIDTH 30 0
BBX 27 46 4 0
BITMAP
001F0000
000F0000
000F0000
00078000
00078000
0003C000
0003C000
0001C000
0001E000
00000000
00700380
00780780
003C1F00
001FFE00
000FF800
00018000
00000000
00000000
00000000
003F8000
00FFE1E0
03FFF1E0
07FFFBE0
0FE03BE0
0F801FC0
1F000FC0
3E000FC0
3C0007C0
7C0007C0
780007C0
78000780
F8000780
F8000780
F8000F80
F0000F80
F0000F80
F0001F00
F8001F00
F8003F00
F8007F00
7C00FF00
7E01DF00
7F8F9E00
3FFF1E00
1FFE1E00
07F83E00
ENDCHAR
STARTCHAR 1EB2
ENCODING 7858
SWIDTH 680 0
DWIDTH 34 0
BBX 30 55 2 0
BITMAP
000003E0
00000FF0
00001FF8
00003C38
00000038
00000078
000000F0
000001E0
00000380
00000400
00000000
0003C01C
0001E078
0000FFF0
00007FE0
00001F80
00000000
00000000
00000000
00000000
00001E00
00003E00
00003F00
00007F00
0000FF00
0000FF00
0001EF00
0001E780
0003C780
0003C780
00078780
00078780
000F03C0
000F03C0
001E03C0
003E03C0
003C03C0
007C03E0
007801E0
00F001E0
00F001E0
01FFFFE0
01FFFFF0
03FFFFF0
03FFFFF0
078000F0
0F8000F8
0F0000F8
1F000078
1E000078
3E000078
3C00007C
7C00007C
7800003C
F000003C
ENDCHAR
STARTCHAR 1EB3
ENCODING 7859
SWIDTH 600 0
DWIDTH 30 0
BBX 27 46 4 0
BITMAP
0000FC00
0003FE00
0007DE00
00070E00
00000E00
00000E00
00001C00
00007800
0000E000
00000000
00700380
00780780
003C1F00
003FFC00
000FF800
00038000
00000000
00000000
00000000
003F8000
00FFE1E0
03FFF1E0
07FFFBE0
0FE03BE0
0F801FC0
1F000FC0
3E000FC0
3C0007C0
7C0007C0
780007C0
78000780
F8000780
F8000780
F8000F80
F0000F80
F0000F80
F0001F00
F8001F00
F8003F00
F8007F00
7C00FF00
7E01DF00
7F8F9E00
3FFF1E00
1FFE1E00
07F83E00
ENDCHAR
STARTCHAR 1EB4
ENCODING 7860
SWIDTH 680 0
DWIDTH 34 0
BBX 32 52 2 0
BITMAP
00003F07
00007FDE
0000FFFC
0001C1F8
0001C060
00000000
00000000
00000000
0003C03C
0001E078
0000FFF0
00007FE0
00003F80
00000000
00000000
00000000
00000000
00001E00
00003E00
00003F00
00007F00
0000FF00
0000FF00
0001EF00
0001E780
0003C780
0003C780
00078780
00078780
000F03C0
000F03C0
001E03C0
003E03C0
003C03C0
007C03E0
007801E0
00F001E0
00F001E0
01FFFFE0
01FFFFF0
03FFFFF0
03FFFFF0
078000F0
0F8000F8
0F0000F8
1F000078
1E000078
3E000078
3C00007C
7C00007C
7800003C
F000003C
ENDCHAR
STARTCHAR 1EB5
ENCODING 7861
SWIDTH 600 0
DWIDTH 30 0
BBX 27 44 4 0
BITMAP
000300C0
000FE1C0
001FFF80
003CFF80
00383E00
00000000
00000000
00000000
00F00780
00780700
003C1F00
003FFC00
000FF800
0001C000
00000000
00000000
00000000
003F8000
00FFE1E0
03FFF1E0
07FFFBE0
0FE03BE0
0F801FC0
1F000FC0
3E000FC0
3C0007C0
7C0007C0
780007C0
78000780
F8000780
F8000780
F8000F80
F0000F80
F0000F80
F0001F00
F8001F00
F8003F00
F8007F00
7C00FF00
7E01DF00
7F8F9E00
3FFF1E00
1FFE1E00
07F83E00
ENDCHAR
STARTCHAR 1EB6
ENCODING 7862
SWIDTH 680 0
DWIDTH 34 0
BBX 30 55 2 -11
BITMAP
0003C03C
0001E078
0000FFF0
00007FE0
00001F80
00000000
00000000
00000000
00000000
00001E00
00003E00
00003F00
00007F00
0000FF00
0000FF00
0001EF00
0001E780
0003C780
0003C780
00078780
00078780
000F03C0
000F03C0
001E03C0
003E03C0
003C03C0
007C03E0
007801E0
00F001E0
00F001E0
01FFFFE0
01FFFFF0
03FFFFF0
03FFFFF0
078000F0
0F8000F8
0F0000F8
1F000078
1E000078
3E000078
3C00007C
7C00007C
7800003C
F000003C
00000000
00000000
00000000
00000000
00000000
00000000
000F0000
001F0000
001F0000
001F0000
001E0000
ENDCHAR
STARTCHAR 1EB7
ENCODING 7863
SWIDTH 600 0
DWIDTH 30 0
BBX 27 47 4 -11
BITMAP
00700380
00780780
003C1F00
003FFC00
000FF800
00038000
00000000
00000000
00000000
003F8000
00FFE1E0
03FFF1E0
07FFFBE0
0FE03BE0
0F801FC0
1F000FC0
3E000FC0
3C0007C0
7C0007C0
780007C0
78000780
F8000780
F8000780
F8000F80
F0000F80
F0000F80
F0001F00
F8001F00
F8003F00
F8007F00
7C00FF00
7E01DF00
7F8F9E00
3FFF1E00
1FFE1E00
07F83E00
00000000
00000000
00000000
00000000
00000000
00000000
00F00000
01F80000
01F00000
01F00000
01E00000
ENDCHAR
STARTCHAR 1EB8
ENCODING 7864
SWIDTH 560 0
DWIDTH 28 0
BBX 27 46 4 -11
BITMAP
03FFFFE0
07FFFFE0
07FFFFE0
07FFFFE0
07800000
07800000
07800000
0F800000
0F800000
0F000000
0F000000
0F000000
0F000000
1F000000
1F000000
1FFFFE00
1FFFFC00
1FFFFC00
1FFFFC00
3E000000
3E000000
3C000000
3C000000
3C000000
3C000000
7C000000
7C000000
78000000
78000000
78000000
F8000000
FFFFFC00
FFFFFC00
FFFFFC00
FFFFF800
00000000
00000000
00000000
00000000
00000000
00000000
01F00000
01F00000
03F00000
03E00000
01E00000
ENDCHAR
STARTCHAR 1EB9
ENCODING 7865
SWIDTH 560 0
DWIDTH 28 0
BBX 25 38 4 -11
BITMAP
003FF000
00FFFC00
01FFFE00
07F07F00
0FC01F00
1F000F00
1E000F80
3E000F80
3C000F00
7C000F00
78001F00
7800FE00
FFFFFC00
FFFFF000
FFFF8000
F0000000
F0000000
F0000000
F0000000
F8003E00
78003C00
7C007C00
3E01F800
3FFFF000
1FFFE000
0FFF8000
03FE0000
00000000
00000000
00000000
00000000
00000000
00000000
007C0000
007C0000
00FC0000
00F80000
00780000
ENDCHAR
STARTCHAR 1EBA
ENCODING 7866
SWIDTH 560 0
DWIDTH 28 0
BBX 27 48 4 0
BITMAP
0000F800
0001FC00
0003FE00
00070E00
00000E00
00000E00
00001C00
00003800
0000F000
00000000
00000000
00000000
00000000
03FFFFE0
07FFFFE0
07FFFFE0
07FFFFE0
07800000
07800000
07800000
0F800000
0F800000
0F000000
0F000000
0F000000
0F000000
1F000000
1F000000
1FFFFE00
1FFFFC00
1FFFFC00
1FFFFC00
3E000000
3E000000
3C000000
3C000000
3C000000
3C000000
7C000000
7C000000
78000000
78000000
78000000
F8000000
FFFFFC00
FFFFFC00
FFFFFC00
FFFFF800
ENDCHAR
STARTCHAR 1EBB
ENCODING 7867
SWIDTH 560 0
DWIDTH 28 0
BBX 25 39 4 0
BITMAP
0001F800
0007FC00
000FFC00
000E1C00
00001C00
00001C00
00003800
0000F000
0001C000
00000000
00000000
00000000
003FF000
00FFFC00
01FFFE00
07F07F00
0FC01F00
1F000F00
1E000F80
3E000F80
3C000F00
7C000F00
78001F00
7800FE00
FFFFFC00
FFFFF000
FFFF8000
F0000000
F0000000
F0000000
F0000000
F8003E00
78003C00
7C007C00
3E01F800
3FFFF000
1FFFE000
0FFF8000
03FE0000
ENDCHAR
STARTCHAR 1EBC
ENCODING 7868
SWIDTH 560 0
DWIDTH 28 0
BBX 27 45 4 0
BITMAP
000FC1C0
001FF3C0
003FFF80
00387F00
00701C00
00000000
00000000
00000000
00000000
00000000
03FFFFE0
07FFFFE0
07FFFFE0
07FFFFE0
07800000
07800000
07800000
0F800000
0F800000
0F000000
0F000000
0F000000
0F000000
1F000000
1F000000
1FFFFE00
1FFFFC00
1FFFFC00
1FFFFC00
3E000000
3E000000
3C000000
3C000000
3C000000
3C000000
7C000000
7C000000
78000000
78000000
78000000
F8000000
FFFFFC00
FFFFFC00
FFFFFC00
FFFFF800
ENDCHAR
STARTCHAR 1EBD
ENCODING 7869
SWIDTH 560 0
DWIDTH 28 0
BBX 25 37 4 0
BITMAP
00000380
001F8380
003FFF00
007BFF00
0070FE00
00000000
00000000
00000000
00000000
00000000
003FF000
00FFFC00
01FFFE00
07F07F00
0FC01F00
1F000F00
1E000F80
3E000F80
3C000F00
7C000F00
78001F00
7800FE00
FFFFFC00
FFFFF000
FFFF8000
F0000000
F0000000
F0000000
F0000000
F8003E00
78003C00
7C007C00
3E01F800
3FFFF000
1FFFE000
0FFF8000
03FE0000
ENDCHAR
STARTCHAR 1EBE
ENCODING 7870
SWIDTH 560 0
DWIDTH 28 0
BBX 35 54 4 0
BITMAP
00000003E0
00000003C0
0000000780
0000000F00
0000001E00
0000001E00
0000003C00
0000007800
0000F0F000
0001F80000
0003FC0000
0007BC0000
000F1E0000
001E0F0000
003C0F8000
0078078000
0000000000
0000000000
0000000000
03FFFFE000
07FFFFE000
07FFFFE000
07FFFFE000
0780000000
0780000000
0780000000
0F80000000
0F80000000
0F00000000
0F00000000
0F00000000
0F00000000
1F00000000
1F00000000
1FFFFE0000
1FFFFC0000
1FFFFC0000
1FFFFC0000
3E00000000
3E00000000
3C00000000
3C00000000
3C00000000
3C00000000
7C00000000
7C00000000
7800000000
7800000000
7800000000
F800000000
FFFFFC0000
FFFFFC0000
FFFFFC0000
FFFFF80000
ENDCHAR
STARTCHAR 1EBF
ENCODING 7871
SWIDTH 560 0
DWIDTH 28 0
BBX 34 45 4 0
BITMAP
00000007C0
0000000F80
0000000F00
0000001E00
0000003C00
0000007800
0000007000
000000F000
0001E1E000
0003F00000
0007F80000
000F7C0000
001E3C0000
003C1E0000
00F80F0000
0000000000
0000000000
0000000000
003FF00000
00FFFC0000
01FFFE0000
07F07F0000
0FC01F0000
1F000F0000
1E000F8000
3E000F8000
3C000F0000
7C000F0000
78001F0000
7800FE0000
FFFFFC0000
FFFFF00000
FFFF800000
F000000000
F000000000
F000000000
F000000000
F8003E0000
78003C0000
7C007C0000
3E01F80000
3FFFF00000
1FFFE00000
0FFF800000
03FE000000
ENDCHAR
STARTCHAR 1EC0
ENCODING 7872
SWIDTH 560 0
DWIDTH 28 0
BBX 27 54 4 0
BITMAP
00001F00
00000F00
00000F80
00000780
00000780
000003C0
000003C0
000001E0
0000F1E0
0001F800
0003FC00
0007BC00
000F1E00
001E0F00
003C0F80
00780780
00000000
00000000
00000000
03FFFFE0
07FFFFE0
07FFFFE0
07FFFFE0
07800000
07800000
07800000
0F800000
0F800000
0F000000
0F000000
0F000000
0F000000
1F000000
1F000000
1FFFFE00
1FFFFC00
1FFFFC00
1FFFFC00
3E000000
3E000000
3C000000
3C000000
3C000000
3C000000
7C000000
7C000000
78000000
78000000
78000000
F8000000
FFFFFC00
FFFFFC00
FFFFFC00
FFFFF800
ENDCHAR
STARTCHAR 1EC1
ENCODING 7873
SWIDTH 560 0
DWIDTH 28 0
BBX 26 45 4 0
BITMAP
00001E00
00001E00
00000F00
00000F00
00000780
00000780
00000380
000003C0
0001E1C0
0003F000
0007F800
000F7C00
001E3C00
003C1E00
00F81F00
00000000
00000000
00000000
003FF000
00FFFC00
01FFFE00
07F07F00
0FC01F00
1F000F00
1E000F80
3E000F80
3C000F00
7C000F00
78001F00
7800FE00
FFFFFC00
FFFFF000
FFFF8000
F0000000
F0000000
F0000000
F0000000
F8003E00
78003C00
7C007C00
3E01F800
3FFFF000
1FFFE000
0FFF8000
03FE0000
ENDCHAR
STARTCHAR 1EC2
ENCODING 7874
SWIDTH 560 0
DWIDTH 28 0
BBX 32 54 4 0
BITMAP
000000FC
000001FE
000003FF
0000078F
0000000F
0000000E
0000001E
00000038
0000F0F0
0001F800
0003FC00
0007BC00
000F1E00
001E0F00
003C0F80
00780780
00000000
00000000
00000000
03FFFFE0
07FFFFE0
07FFFFE0
07FFFFE0
07800000
07800000
07800000
0F800000
0F800000
0F000000
0F000000
0F000000
0F000000
1F000000
1F000000
1FFFFE00
1FFFFC00
1FFFFC00
1FFFFC00
3E000000
3E000000
3C000000
3C000000
3C000000
3C000000
7C000000
7C000000
78000000
78000000
78000000
F8000000
FFFFFC00
FFFFFC00
FFFFFC00
FFFFF800
ENDCHAR
STARTCHAR 1EC3
ENCODING 7875
SWIDTH 560 0
DWIDTH 28 0
BBX 31 45 4 0
BITMAP
000001F8
000007FC
0000079E
00000E1E
0000001E
0000001C
00000038
000000F0
0001E1E0
0003F000
0007F800
000F7C00
001E3C00
003C1E00
00F80F00
00000000
00000000
00000000
003FF000
00FFFC00
01FFFE00
07F07F00
0FC01F00
1F000F00
1E000F80
3E000F80
3C000F00
7C000F00
78001F00
7800FE00
FFFFFC00
FFFFF000
FFFF8000
F0000000
F0000000
F0000000
F0000000
F8003E00
78003C00
7C007C00
3E01F800
3FFFF000
1FFFE000
0FFF8000
03FE0000
ENDCHAR
STARTCHAR 1EC4
ENCODING 7876
SWIDTH 560 0
DWIDTH 28 0
BBX 27 53 4 0
BITMAP
0007C0E0
000FF1C0
001FFFC0
003C7F80
00381E00
00000000
00000000
0000F000
0001F800
0003FC00
0007BC00
000F1E00
001E0F00
003C0F80
00780780
00000000
00000000
00000000
03FFFFE0
07FFFFE0
07FFFFE0
07FFFFE0
07800000
07800000
07800000
0F800000
0F800000
0F000000
0F000000
0F000000
0F000000
1F000000
1F000000
1FFFFE00
1FFFFC00
1FFFFC00
1FFFFC00
3E000000
3E000000
3C000000
3C000000
3C000000
3C000000
7C000000
7C000000
78000000
78000000
78000000
F8000000
FFFFFC00
FFFFFC00
FFFFFC00
FFFFF800
ENDCHAR
STARTCHAR 1EC5
ENCODING 7877
SWIDTH 560 0
DWIDTH 28 0
BBX 26 44 4 0
BITMAP
000FC1C0
001FF780
003FFF00
00707E00
00700000
00000000
00000000
0001E000
0003F000
0007F800
000F7C00
001E3C00
003C1E00
00780F00
00800000
00000000
00000000
003FF000
00FFFC00
01FFFE00
07F07F00
0FC01F00
1F000F00
1E000F80
3E000F80
3C000F00
7C000F00
78001F00
7800FE00
FFFFFC00
FFFFF000
FFFF8000
F0000000
F0000000
F0000000
F0000000
F8003E00
78003C00
7C007C00
3E01F800
3FFFF000
1FFFE000
0FFF8000
03FE0000
ENDCHAR
STARTCHAR 1EC6
ENCODING 7878
SWIDTH 560 0
DWIDTH 28 0
BBX 27 57 4 -11
BITMAP
0000F000
0001F800
0003FC00
0007BC00
000F1E00
001E0F00
003C0F80
00780780
00000000
00000000
00000000
03FFFFE0
07FFFFE0
07FFFFE0
07FFFFE0
07800000
07800000
07800000
0F800000
0F800000
0F000000
0F000000
0F000000
0F000000
1F000000
1F000000
1FFFFE00
1FFFFC00
1FFFFC00
1FFFFC00
3E000000
3E000000
3C000000
3C000000
3C000000
3C000000
7C000000
7C000000
78000000
78000000
78000000
F8000000
FFFFFC00
FFFFFC00
FFFFFC00
FFFFF800
00000000
00000000
00000000
00000000
00000000
00000000
01F00000
01F00000
03F00000
03E00000
01E00000
ENDCHAR
STARTCHAR 1EC7
ENCODING 7879
SWIDTH 560 0
DWIDTH 28 0
BBX 25 48 4 -11
BITMAP
0001E000
0003F000
0007F800
000F7C00
001E3C00
003C1E00
00F80F00
00000000
00000000
00000000
003FF000
00FFFC00
01FFFE00
07F07F00
0FC01F00
1F000F00
1E000F80
3E000F80
3C000F00
7C000F00
78001F00
7800FE00
FFFFFC00
FFFFF000
FFFF8000
F0000000
F0000000
F0000000
F0000000
F8003E00
78003C00
7C007C00
3E01F800
3FFFF000
1FFFE000
0FFF8000
03FE0000
00000000
00000000
00000000
00000000
00000000
00000000
007C0000
007C0000
00FC0000
00F80000
00780000
ENDCHAR
STARTCHAR 1EC8
ENCODING 7880
SWIDTH 240 0
DWIDTH 12 0
BBX 15 48 4 0
BITMAP
00F0
03FC
07FE
071E
000E
001E
001C
0078
00E0
0100
0000
0000
0000
03C0
03C0
07C0
07C0
0780
0780
0780
0780
0F80
0F80
0F00
0F00
0F00
0F00
1F00
1F00
1E00
1E00
1E00
1E00
3E00
3E00
3C00
3C00
3C00
7C00
7C00
7C00
7800
7800
7800
F800
F800
F800
F000
ENDCHAR
STARTCHAR 1EC9
ENCODING 7881
SWIDTH 240 0
DWIDTH 12 0
BBX 14 39 4 0
BITMAP
03F0
0FF8
0F78
1C3C
003C
0038
0070
01E0
03C0
0000
0000
0000
0000
0F80
0F80
0F00
0F00
0F00
0F00
1F00
1F00
1E00
1E00
1E00
1E00
3E00
3E00
3C00
3C00
3C00
3C00
7C00
7C00
7800
7800
7800
F800
F800
F800
ENDCHAR
STARTCHAR 1ECA
ENCODING 7882
SWIDTH 240 0
DWIDTH 12 0
BBX 12 46 2 -11
BITMAP
00F0
00F0
01F0
01F0
01E0
01E0
01E0
01E0
03E0
03E0
03C0
03C0
03C0
03C0
07C0
07C0
0780
0780
0780
0780
0F80
0F80
0F00
0F00
0F00
1F00
1F00
1F00
1E00
1E00
1E00
3E00
3E00
3E00
3C00
0000
0000
0000
0000
0000
0000
7800
FC00
FC00
F800
7000
ENDCHAR
STARTCHAR 1ECB
ENCODING 7883
SWIDTH 240 0
DWIDTH 12 0
BBX 13 48 2 -11
BITMAP
0070
00F8
01F8
01F8
01F0
00E0
0000
0000
0000
0000
0000
03E0
03E0
03C0
03C0
03C0
03C0
07C0
07C0
0780
0780
0780
0780
0F80
0F80
0F00
0F00
0F00
0F00
1F00
1F00
1E00
1E00
1E00
3E00
3E00
3E00
0000
0000
0000
0000
0000
0000
7800
FC00
FC00
F800
7000
ENDCHAR
STARTCHAR 1ECC
ENCODING 7884
SWIDTH 720 0
DWIDTH 36 0
BBX 32 47 5 -11
BITMAP
0000FE00
0007FFC0
001FFFE0
007FFFF8
00FF07FC
01FC00FC
03F0007E
07E0003E
0FC0001F
0F80001F
1F00001F
1E00000F
3E00000F
3C00000F
7C00000F
7C00000F
7800000F
7800000F
F800000F
F800001F
F800001F
F800001E
F800003E
F800003E
F800003C
F800007C
780000F8
7C0000F8
7C0001F0
7E0003E0
3F000FE0
1FC03F80
1FFFFF00
0FFFFE00
03FFF800
00FFE000
00000000
00000000
00000000
00000000
00000000
00000000
003C0000
007E0000
007E0000
007C0000
00380000
ENDCHAR
STARTCHAR 1ECD
ENCODING 7885
SWIDTH 580 0
DWIDTH 29 0
BBX 25 38 4 -11
BITMAP
001FE000
007FF800
01FFFC00
03FFFE00
07E03F00
0F801F00
1F000F00
3E000F80
3C000F80
7C000780
78000780
78000780
F8000780
F0000780
F0000F80
F0000F00
F0000F00
F0001F00
F0001E00
F8003E00
F8007C00
7C00FC00
7E01F800
3F8FF000
1FFFC000
0FFF8000
07FE0000
00000000
00000000
00000000
00000000
00000000
00000000
01E00000
03F00000
03F00000
03E00000
01C00000
ENDCHAR
STARTCHAR 1ECE
ENCODING 7886
SWIDTH 720 0
DWIDTH 36 0
BBX 32 48 5 0
BITMAP
00001F00
00007F80
0000FFC0
0000E1C0
000001C0
000001C0
00000380
00000F00
00001E00
00000000
00000000
00000000
0000FE00
0007FFC0
001FFFE0
007FFFF8
00FF07FC
01FC00FC
03F0007E
07E0003E
0FC0001F
0F80001F
1F00001F
1E00000F
3E00000F
3C00000F
7C00000F
7C00000F
7800000F
7800000F
F800000F
F800001F
F800001F
F800001E
F800003E
F800003E
F800003C
F800007C
780000F8
7C0000F8
7C0001F0
7E0003E0
3F000FE0
1FC03F80
1FFFFF00
0FFFFE00
03FFF800
00FFE000
ENDCHAR
STARTCHAR 1ECF
ENCODING 7887
SWIDTH 580 0
DWIDTH 29 0
BBX 25 39 4 0
BITMAP
0003F000
000FF800
000F7800
001C3C00
00003C00
00003800
00007000
0001E000
0003C000
00000000
00000000
00000000
001FE000
007FF800
01FFFC00
03FFFE00
07E03F00
0F801F00
1F000F00
3E000F80
3C000F80
7C000780
78000780
78000780
F8000780
F0000780
F0000F80
F0000F00
F0000F00
F0001F00
F0001E00
F8003E00
F8007C00
7C00FC00
7E01F800
3F8FF000
1FFFC000
0FFF8000
07FE0000
ENDCHAR
STARTCHAR 1ED0
ENCODING 7888
SWIDTH 720 0
DWIDTH 36 0
BBX 38 54 5 0
BITMAP
000000007C
00000000F8
00000000F0
00000001E0
00000003C0
00000003C0
0000000780
0000000F00
00001E1E00
00003F0000
00007F8000
0000F78000
0001E3C000
0003C3E000
000781E000
000F00F000
0000000000
0000000000
0000FE0000
0007FFC000
001FFFE000
007FFFF800
00FF07FC00
01FC00FC00
03F0007E00
07E0003E00
0FC0001F00
0F80001F00
1F00001F00
1E00000F00
3E00000F00
3C00000F00
7C00000F00
7C00000F00
7800000F00
7800000F00
F800000F00
F800001F00
F800001F00
F800001E00
F800003E00
F800003E00
F800003C00
F800007C00
780000F800
7C0000F800
7C0001F000
7E0003E000
3F000FE000
1FC03F8000
1FFFFF0000
0FFFFE0000
03FFF80000
00FFE00000
ENDCHAR
STARTCHAR 1ED1
ENCODING 7889
SWIDTH 580 0
DWIDTH 29 0
BBX 33 45 4 0
BITMAP
0000000F80
0000000F00
0000001E00
0000003C00
0000007800
0000007800
000000F000
000001E000
0003E3C000
0007E00000
000FF00000
001E780000
003C7C0000
00783C0000
00F01E0000
0100000000
0000000000
0000000000
001FE00000
007FF80000
01FFFC0000
03FFFE0000
07E03F0000
0F801F0000
1F000F0000
3E000F8000
3C000F8000
7C00078000
7800078000
7800078000
F800078000
F000078000
F0000F8000
F0000F0000
F0000F0000
F0001F0000
F0001E0000
F8003E0000
F8007C0000
7C00FC0000
7E01F80000
3F8FF00000
1FFFC00000
0FFF800000
07FE000000
ENDCHAR
STARTCHAR 1ED2
ENCODING 7890
SWIDTH 720 0
DWIDTH 36 0
BBX 32 54 5 0
BITMAP
000003E0
000001E0
000001F0
000000F0
000000F0
00000078
00000078
0000003C
00001E3C
00003F00
00007F80
0000F780
0001E3C0
0003C3E0
000781E0
000F00F0
00000000
00000000
0000FE00
0007FFC0
001FFFE0
007FFFF8
00FF07FC
01FC00FC
03F0007E
07E0003E
0FC0001F
0F80001F
1F00001F
1E00000F
3E00000F
3C00000F
7C00000F
7C00000F
7800000F
7800000F
F800000F
F800001F
F800001F
F800001E
F800003E
F800003E
F800003C
F800007C
780000F8
7C0000F8
7C0001F0
7E0003E0
3F000FE0
1FC03F80
1FFFFF00
0FFFFE00
03FFF800
00FFE000
ENDCHAR
STARTCHAR 1ED3
ENCODING 7891
SWIDTH 580 0
DWIDTH 29 0
BBX 25 45 4 0
BITMAP
00003C00
00003E00
00001E00
00001F00
00000F00
00000F00
00000780
00000780
0003E380
0007E000
000FF000
001E7800
003C7C00
00783C00
00F01E00
01000000
00000000
00000000
001FE000
007FF800
01FFFC00
03FFFE00
07E03F00
0F801F00
1F000F00
3E000F80
3C000F80
7C000780
78000780
78000780
F8000780
F0000780
F0000F80
F0000F00
F0000F00
F0001F00
F0001E00
F8003E00
F8007C00
7C00FC00
7E01F800
3F8FF000
1FFFC000
0FFF8000
07FE0000
ENDCHAR
STARTCHAR 1ED4
ENCODING 7892
SWIDTH 720 0
DWIDTH 36 0
BBX 35 54 5 0
BITMAP
0000001F80
0000003FC0
0000007FC0
000000F1E0
00000001E0
00000001C0
0000000380
0000000700
00001E1E00
00003F0000
00007F8000
0000F78000
0001E3C000
0003C3E000
000781E000
000F00F000
0000000000
0000000000
0000FE0000
0007FFC000
001FFFE000
007FFFF800
00FF07FC00
01FC00FC00
03F0007E00
07E0003E00
0FC0001F00
0F80001F00
1F00001F00
1E00000F00
3E00000F00
3C00000F00
7C00000F00
7C00000F00
7800000F00
7800000F00
F800000F00
F800001F00
F800001F00
F800001E00
F800003E00
F800003E00
F800003C00
F800007C00
780000F800
7C0000F800
7C0001F000
7E0003E000
3F000FE000
1FC03F8000
1FFFFF0000
0FFFFE0000
03FFF80000
00FFE00000
ENDCHAR
STARTCHAR 1ED5
ENCODING 7893
SWIDTH 580 0
DWIDTH 29 0
BBX 30 45 4 0
BITMAP
000003F8
000007FC
00000F3C
00001E1C
0000001C
00000038
00000070
000001E0
0003E3C0
0007E000
000FF000
001E7800
003C7C00
00783C00
00F01E00
01000000
00000000
00000000
001FE000
007FF800
01FFFC00
03FFFE00
07E03F00
0F801F00
1F000F00
3E000F80
3C000F80
7C000780
78000780
78000780
F8000780
F0000780
F0000F80
F0000F00
F0000F00
F0001F00
F0001E00
F8003E00
F8007C00
7C00FC00
7E01F800
3F8FF000
1FFFC000
0FFF8000
07FE0000
ENDCHAR
STARTCHAR 1ED6
ENCODING 7894
SWIDTH 720 0
DWIDTH 36 0
BBX 32 53 5 0
BITMAP
0000F81C
0001FE38
0003FFF8
00078FF0
000703C0
00000000
00000000
00001E00
00003F00
00007F80
0000F780
0001E3C0
0003C3E0
000781E0
000F00F0
00000000
00000000
0000FE00
0007FFC0
001FFFE0
007FFFF8
00FF07FC
01FC00FC
03F0007E
07E0003E
0FC0001F
0F80001F
1F00001F
1E00000F
3E00000F
3C00000F
7C00000F
7C00000F
7800000F
7800000F
F800000F
F800001F
F800001F
F800001E
F800003E
F800003E
F800003C
F800007C
780000F8
7C0000F8
7C0001F0
7E0003E0
3F000FE0
1FC03F80
1FFFFF00
0FFFFE00
03FFF800
00FFE000
ENDCHAR
STARTCHAR 1ED7
ENCODING 7895
SWIDTH 580 0
DWIDTH 29 0
BBX 25 44 4 0
BITMAP
001F8380
003FEF00
007FFF00
0070FE00
00E01000
00000000
00000000
0003E000
0007E000
000FF000
001E7800
003C7C00
00783C00
00F01E00
01000000
00000000
00000000
001FE000
007FF800
01FFFC00
03FFFE00
07E03F00
0F801F00
1F000F00
3E000F80
3C000F80
7C000780
78000780
78000780
F8000780
F0000780
F0000F80
F0000F00
F0000F00
F0001F00
F0001E00
F8003E00
F8007C00
7C00FC00
7E01F800
3F8FF000
1FFFC000
0FFF8000
07FE0000
ENDCHAR
STARTCHAR 1ED8
ENCODING 7896
SWIDTH 720 0
DWIDTH 36 0
BBX 32 57 5 -11
BITMAP
00001E00
00003F00
00007F80
0000F780
0001E3C0
0003C3E0
000781E0
000F00F0
00000000
00000000
0000FE00
0007FFC0
001FFFE0
007FFFF8
00FF07FC
01FC00FC
03F0007E
07E0003E
0FC0001F
0F80001F
1F00001F
1E00000F
3E00000F
3C00000F
7C00000F
7C00000F
7800000F
7800000F
F800000F
F800001F
F800001F
F800001E
F800003E
F800003E
F800003C
F800007C
780000F8
7C0000F8
7C0001F0
7E0003E0
3F000FE0
1FC03F80
1FFFFF00
0FFFFE00
03FFF800
00FFE000
00000000
00000000
00000000
00000000
00000000
00000000
003C0000
007E0000
007E0000
007C0000
00380000
ENDCHAR
STARTCHAR 1ED9
ENCODING 7897
SWIDTH 580 0
DWIDTH 29 0
BBX 25 48 4 -11
BITMAP
0003E000
0007E000
000FF000
001E7800
003C7C00
00783C00
00F01E00
01000000
00000000
00000000
001FE000
007FF800
01FFFC00
03FFFE00
07E03F00
0F801F00
1F000F00
3E000F80
3C000F80
7C000780
78000780
78000780
F8000780
F0000780
F0000F80
F0000F00
F0000F00
F0001F00
F0001E00
F8003E00
F8007C00
7C00FC00
7E01F800
3F8FF000
1FFFC000
0FFF8000
07FE0000
00000000
00000000
00000000
00000000
00000000
00000000
01E00000
03F00000
03F00000
03E00000
01C00000
ENDCHAR
STARTCHAR 1EDA
ENCODING 7898
SWIDTH 720 0
DWIDTH 36 0
BBX 33 48 5 0
BITMAP
0000007800
000000F800
000001F000
000001E000
000003C000
0000078000
00000F0000
00000E0000
00001E0380
0000000380
0000000780
0000000780
0000FC0F00
0007FFFF00
001FFFFC00
007FFFF800
00FF07FC00
01FC00FC00
03F0007E00
07E0003E00
0FC0001F00
0F80001F00
1F00001F00
1E00000F00
3E00000F00
3C00000F00
7C00000F00
7C00000F00
7800000F00
7800000F00
F800000F00
F800001F00
F800001F00
F800001E00
F800003E00
F800003E00
F800003C00
F800007C00
780000F800
7C0000F800
7C0001F000
7E0003E000
3F000FE000
1FC03F8000
1FFFFF0000
0FFFFE0000
03FFF80000
00FFE00000
ENDCHAR
STARTCHAR 1EDB
ENCODING 7899
SWIDTH 580 0
DWIDTH 29 0
BBX 28 39 4 0
BITMAP
00000F00
00001F00
00003E00
00003C00
00007800
0000F000
0000E000
0001E000
0003C070
00000070
00000070
000000F0
001FE1E0
007FFFC0
01FFFF80
03FFFE00
07E03F00
0F801F00
1F000F00
3E000F80
3C000F80
7C000780
78000780
78000780
F8000780
F0000780
F0000F80
F0000F00
F0000F00
F0001F00
F0001E00
F8003E00
F8007C00
7C00FC00
7E01F800
3F8FF000
1FFFC000
0FFF8000
07FE0000
ENDCHAR
STARTCHAR 1EDC
ENCODING 7900
SWIDTH 720 0
DWIDTH 36 0
BBX 33 48 5 0
BITMAP
0003C00000
0003E00000
0001E00000
0001E00000
0000F00000
0000F00000
0000700000
0000780000
0000380380
0000000380
0000000780
0000000780
0000FC0F00
0007FFFF00
001FFFFC00
007FFFF800
00FF07FC00
01FC00FC00
03F0007E00
07E0003E00
0FC0001F00
0F80001F00
1F00001F00
1E00000F00
3E00000F00
3C00000F00
7C00000F00
7C00000F00
7800000F00
7800000F00
F800000F00
F800001F00
F800001F00
F800001E00
F800003E00
F800003E00
F800003C00
F800007C00
780000F800
7C0000F800
7C0001F000
7E0003E000
3F000FE000
1FC03F8000
1FFFFF0000
0FFFFE0000
03FFF80000
00FFE00000
ENDCHAR
STARTCHAR 1EDD
ENCODING 7901
SWIDTH 580 0
DWIDTH 29 0
BBX 28 39 4 0
BITMAP
007C0000
003C0000
003C0000
001E0000
001E0000
000F0000
000F0000
00070000
00078070
00000070
00000070
000000F0
001FE1E0
007FFFC0
01FFFF80
03FFFE00
07E03F00
0F801F00
1F000F00
3E000F80
3C000F80
7C000780
78000780
78000780
F8000780
F0000780
F0000F80
F0000F00
F0000F00
F0001F00
F0001E00
F8003E00
F8007C00
7C00FC00
7E01F800
3F8FF000
1FFFC000
0FFF8000
07FE0000
ENDCHAR
STARTCHAR 1EDE
ENCODING 7902
SWIDTH 720 0
DWIDTH 36 0
BBX 33 48 5 0
BITMAP
00001F0000
00007F8000
0000FFC000
0000E1C000
000001C000
000001C000
0000038000
00000F0000
00001E0380
0000000380
0000000780
0000000780
0000FC0F00
0007FFFF00
001FFFFC00
007FFFF800
00FF07FC00
01FC00FC00
03F0007E00
07E0003E00
0FC0001F00
0F80001F00
1F00001F00
1E00000F00
3E00000F00
3C00000F00
7C00000F00
7C00000F00
7800000F00
7800000F00
F800000F00
F800001F00
F800001F00
F800001E00
F800003E00
F800003E00
F800003C00
F800007C00
780000F800
7C0000F800
7C0001F000
7E0003E000
3F000FE000
1FC03F8000
1FFFFF0000
0FFFFE0000
03FFF80000
00FFE00000
ENDCHAR
STARTCHAR 1EDF
ENCODING 7903
SWIDTH 580 0
DWIDTH 29 0
BBX 28 39 4 0
BITMAP
0003F000
000FF800
000F7800
001C3C00
00003C00
00003800
00007000
0001E000
0003C070
00000070
00000070
000000F0
001FE1E0
007FFFC0
01FFFF80
03FFFE00
07E03F00
0F801F00
1F000F00
3E000F80
3C000F80
7C000780
78000780
78000780
F8000780
F0000780
F0000F80
F0000F00
F0000F00
F0001F00
F0001E00
F8003E00
F8007C00
7C00FC00
7E01F800
3F8FF000
1FFFC000
0FFF8000
07FE0000
ENDCHAR
STARTCHAR 1EE0
ENCODING 7904
SWIDTH 720 0
DWIDTH 36 0
BBX 33 45 5 0
BITMAP
0001F83800
0003FE7000
0007FFF000
00070FE000
000E030000
0000000380
0000000380
0000000780
0000000780
0000FC0F00
0007FFFF00
001FFFFC00
007FFFF800
00FF07FC00
01FC00FC00
03F0007E00
07E0003E00
0FC0001F00
0F80001F00
1F00001F00
1E00000F00
3E00000F00
3C00000F00
7C00000F00
7C00000F00
7800000F00
7800000F00
F800000F00
F800001F00
F800001F00
F800001E00
F800003E00
F800003E00
F800003C00
F800007C00
780000F800
7C0000F800
7C0001F000
7E0003E000
3F000FE000
1FC03F8000
1FFFFF0000
0FFFFE0000
03FFF80000
00FFE00000
ENDCHAR
STARTCHAR 1EE1
ENCODING 7905
SWIDTH 580 0
DWIDTH 29 0
BBX 28 37 4 0
BITMAP
00040380
003F8700
007FFF00
00F7FE00
00E0FC00
00000000
00000070
00000070
00000070
000000F0
001FE1E0
007FFFC0
01FFFF80
03FFFE00
07E03F00
0F801F00
1F000F00
3E000F80
3C000F80
7C000780
78000780
78000780
F8000780
F0000780
F0000F80
F0000F00
F0000F00
F0001F00
F0001E00
F8003E00
F8007C00
7C00FC00
7E01F800
3F8FF000
1FFFC000
0FFF8000
07FE0000
ENDCHAR
STARTCHAR 1EE2
ENCODING 7906
SWIDTH 720 0
DWIDTH 36 0
BBX 33 51 5 -11
BITMAP
0000000380
0000000380
0000000780
0000000780
0000FC0F00
0007FFFF00
001FFFFC00
007FFFF800
00FF07FC00
01FC00FC00
03F0007E00
07E0003E00
0FC0001F00
0F80001F00
1F00001F00
1E00000F00
3E00000F00
3C00000F00
7C00000F00
7C00000F00
7800000F00
7800000F00
F800000F00
F800001F00
F800001F00
F800001E00
F800003E00
F800003E00
F800003C00
F800007C00
780000F800
7C0000F800
7C0001F000
7E0003E000
3F000FE000
1FC03F8000
1FFFFF0000
0FFFFE0000
03FFF80000
00FFE00000
0000000000
0000000000
0000000000
0000000000
0000000000
0000000000
003C000000
007E000000
007E000000
007C000000
0038000000
ENDCHAR
STARTCHAR 1EE3
ENCODING 7907
SWIDTH 580 0
DWIDTH 29 0
BBX 28 42 4 -11
BITMAP
00000070
00000070
00000070
000000F0
001FE1E0
007FFFC0
01FFFF80
03FFFE00
07E03F00
0F801F00
1F000F00
3E000F80
3C000F80
7C000780
78000780
78000780
F8000780
F0000780
F0000F80
F0000F00
F0000F00
F0001F00
F0001E00
F8003E00
F8007C00
7C00FC00
7E01F800
3F8FF000
1FFFC000
0FFF8000
07FE0000
00000000
00000000
00000000
00000000
00000000
00000000
01E00000
03F00000
03F00000
03E00000
01C00000
ENDCHAR
STARTCHAR 1EE4
ENCODING 7908
SWIDTH 680 0
DWIDTH 34 0
BBX 32 46 5 -11
BITMAP
0F00000F
0F00001F
0F00001F
0F00001E
1F00001E
1F00001E
1E00001E
1E00003E
1E00003C
1E00003C
3E00003C
3E00003C
3C00007C
3C00007C
3C000078
3C000078
7C000078
78000078
780000F8
780000F8
780000F0
780000F0
780001F0
F80001F0
F80001E0
780003E0
780003C0
7C0007C0
7C000F80
7E001F80
3F807F00
1FFFFE00
1FFFFC00
07FFF000
03FFC000
00000000
00000000
00000000
00000000
00000000
00000000
00780000
00FC0000
00FC0000
00F80000
00700000
ENDCHAR
STARTCHAR 1EE5
ENCODING 7909
SWIDTH 600 0
DWIDTH 30 0
BBX 26 37 5 -11
BITMAP
1E0003C0
1E0007C0
1E0007C0
3E000780
3E000780
3C000780
3C000780
3C000F80
3C000F80
7C000F00
7C000F00
78000F00
78001F00
78001F00
78001F00
F8001E00
F8001E00
F8003E00
F8003E00
F8007E00
FC00FE00
7E01BC00
7FCFBC00
3FFF3C00
1FFC7C00
0FF87C00
00000000
00000000
00000000
00000000
00000000
00000000
03C00000
07E00000
07E00000
07C00000
03800000
ENDCHAR
STARTCHAR 1EE6
ENCODING 7910
SWIDTH 680 0
DWIDTH 34 0
BBX 32 48 5 0
BITMAP
00003E00
0000FF00
0001FF80
0001C380
00000380
00000380
00000700
00001E00
00003C00
00004000
00000000
00000000
00000000
0F00000F
0F00001F
0F00001F
0F00001E
1F00001E
1F00001E
1E00001E
1E00003E
1E00003C
1E00003C
3E00003C
3E00003C
3C00007C
3C00007C
3C000078
3C000078
7C000078
78000078
780000F8
780000F8
780000F0
780000F0
780001F0
F80001F0
F80001E0
780003E0
780003C0
7C0007C0
7C000F80
7E001F80
3F807F00
1FFFFE00
1FFFFC00
07FFF000
03FFC000
ENDCHAR
STARTCHAR 1EE7
ENCODING 7911
SWIDTH 600 0
DWIDTH 30 0
BBX 26 39 5 0
BITMAP
0007E000
000FF000
001FF800
003C7800
00007800
00007000
0000E000
0003C000
00078000
00000000
00000000
00000000
00000000
1E0003C0
1E0007C0
1E0007C0
3E000780
3E000780
3C000780
3C000780
3C000F80
3C000F80
7C000F00
7C000F00
78000F00
78001F00
78001F00
78001F00
F8001E00
F8001E00
F8003E00
F8003E00
F8007E00
FC00FE00
7E01BC00
7FCFBC00
3FFF3C00
1FFC7C00
0FF87C00
ENDCHAR
STARTCHAR 1EE8
ENCODING 7912
SWIDTH 680 0
DWIDTH 34 0
BBX 38 48 5 0
BITMAP
000000F000
000001E000
000003C000
000007C000
0000078000
00000F0000
00001E0000
00001C0000
000038001C
000000003C
000000003C
0000000038
0000000078
0F00000FF0
0F00001FE0
0F00001E00
0F00001E00
1F00001E00
1F00001E00
1E00001E00
1E00003E00
1E00003C00
1E00003C00
3E00003C00
3E00003C00
3C00007C00
3C00007C00
3C00007800
3C00007800
7C00007800
7800007800
780000F800
780000F800
780000F000
780000F000
780001F000
F80001F000
F80001E000
780003E000
780003C000
7C0007C000
7C000F8000
7E001F8000
3F807F0000
1FFFFE0000
1FFFFC0000
07FFF00000
03FFC00000
ENDCHAR
STARTCHAR 1EE9
ENCODING 7913
SWIDTH 600 0
DWIDTH 30 0
BBX 32 39 5 0
BITMAP
00001F00
00003E00
00003C00
00007800
0000F000
0001E000
0001E000
0003C000
00078007
00000007
0000000F
0000000F
0000001E
1E0003FC
1E0007F8
1E0007C0
3E000780
3E000780
3C000780
3C000780
3C000F80
3C000F80
7C000F00
7C000F00
78000F00
78001F00
78001F00
78001F00
F8001E00
F8001E00
F8003E00
F8003E00
F8007E00
FC00FE00
7E01BC00
7FCFBC00
3FFF3C00
1FFC7C00
0FF87C00
ENDCHAR
STARTCHAR 1EEA
ENCODING 7914
SWIDTH 680 0
DWIDTH 34 0
BBX 38 48 5 0
BITMAP
000F800000
0007800000
0007C00000
0003C00000
0003C00000
0001E00000
0001E00000
0000F00000
0000F0001C
000000003C
000000003C
0000000038
0000000078
0F00000FF0
0F00001FE0
0F00001E00
0F00001E00
1F00001E00
1F00001E00
1E00001E00
1E00003E00
1E00003C00
1E00003C00
3E00003C00
3E00003C00
3C00007C00
3C00007C00
3C00007800
3C00007800
7C00007800
7800007800
780000F800
780000F800
780000F000
780000F000
780001F000
F80001F000
F80001E000
780003E000
780003C000
7C0007C000
7C000F8000
7E001F8000
3F807F0000
1FFFFE0000
1FFFFC0000
07FFF00000
03FFC00000
ENDCHAR
STARTCHAR 1EEB
ENCODING 7915
SWIDTH 600 0
DWIDTH 30 0
BBX 32 39 5 0
BITMAP
01E00000
01F00000
00F00000
00F00000
00780000
00780000
003C0000
003C0000
001C0007
00000007
0000000F
0000000F
0000001E
1E0003FC
1E0007F8
1E0007C0
3E000780
3E000780
3C000780
3C000780
3C000F80
3C000F80
7C000F00
7C000F00
78000F00
78001F00
78001F00
78001F00
F8001E00
F8001E00
F8003E00
F8003E00
F8007E00
FC00FE00
7E01BC00
7FCFBC00
3FFF3C00
1FFC7C00
0FF87C00
ENDCHAR
STARTCHAR 1EEC
ENCODING 7916
SWIDTH 680 0
DWIDTH 34 0
BBX 38 48 5 0
BITMAP
00003E0000
0000FF0000
0001FF8000
0001C38000
0000038000
0000038000
0000070000
00001E0000
00003C001C
000040003C
000000003C
0000000038
0000000078
0F00000FF0
0F00001FE0
0F00001E00
0F00001E00
1F00001E00
1F00001E00
1E00001E00
1E00003E00
1E00003C00
1E00003C00
3E00003C00
3E00003C00
3C00007C00
3C00007C00
3C00007800
3C00007800
7C00007800
7800007800
780000F800
780000F800
780000F000
780000F000
780001F000
F80001F000
F80001E000
780003E000
780003C000
7C0007C000
7C000F8000
7E001F8000
3F807F0000
1FFFFE0000
1FFFFC0000
07FFF00000
03FFC00000
ENDCHAR
STARTCHAR 1EED
ENCODING 7917
SWIDTH 600 0
DWIDTH 30 0
BBX 32 39 5 0
BITMAP
0007E000
000FF000
001FF800
003C7800
00007800
00007000
0000E000
0003C000
00078007
00000007
0000000F
0000000F
0000001E
1E0003FC
1E0007F8
1E0007C0
3E000780
3E000780
3C000780
3C000780
3C000F80
3C000F80
7C000F00
7C000F00
78000F00
78001F00
78001F00
78001F00
F8001E00
F8001E00
F8003E00
F8003E00
F8007E00
FC00FE00
7E01BC00
7FCFBC00
3FFF3C00
1FFC7C00
0FF87C00
ENDCHAR
STARTCHAR 1EEE
ENCODING 7918
SWIDTH 680 0
DWIDTH 34 0
BBX 38 45 5 0
BITMAP
0003E07000
0007F9E000
000FFFE000
001E1FC000
001C060000
000000001C
000000003C
000000003C
0000000038
0000000078
0F00000FF0
0F00001FE0
0F00001E00
0F00001E00
1F00001E00
1F00001E00
1E00001E00
1E00003E00
1E00003C00
1E00003C00
3E00003C00
3E00003C00
3C00007C00
3C00007C00
3C00007800
3C00007800
7C00007800
7800007800
780000F800
780000F800
780000F000
780000F000
780001F000
F80001F000
F80001E000
780003E000
780003C000
7C0007C000
7C000F8000
7E001F8000
3F807F0000
1FFFFE0000
1FFFFC0000
07FFF00000
03FFC00000
ENDCHAR
STARTCHAR 1EEF
ENCODING 7919
SWIDTH 600 0
DWIDTH 30 0
BBX 32 37 5 0
BITMAP
00080700
007F0E00
00FFFE00
01E7FC00
01C1F800
00000000
00000007
00000007
0000000F
0000000F
0000001E
1E0003FC
1E0007F8
1E0007C0
3E000780
3E000780
3C000780
3C000780
3C000F80
3C000F80
7C000F00
7C000F00
78000F00
78001F00
78001F00
78001F00
F8001E00
F8001E00
F8003E00
F8003E00
F8007E00
FC00FE00
7E01BC00
7FCFBC00
3FFF3C00
1FFC7C00
0FF87C00
ENDCHAR
STARTCHAR 1EF0
ENCODING 7920
SWIDTH 680 0
DWIDTH 34 0
BBX 38 51 5 -11
BITMAP
000000001C
000000003C
000000003C
0000000038
0000000078
0F00000FF0
0F00001FE0
0F00001E00
0F00001E00
1F00001E00
1F00001E00
1E00001E00
1E00003E00
1E00003C00
1E00003C00
3E00003C00
3E00003C00
3C00007C00
3C00007C00
3C00007800
3C00007800
7C00007800
7800007800
780000F800
780000F800
780000F000
780000F000
780001F000
F80001F000
F80001E000
780003E000
780003C000
7C0007C000
7C000F8000
7E001F8000
3F807F0000
1FFFFE0000
1FFFFC0000
07FFF00000
03FFC00000
0000000000
0000000000
0000000000
0000000000
0000000000
0000000000
0078000000
00FC000000
00FC000000
00F8000000
0070000000
ENDCHAR
STARTCHAR 1EF1
ENCODING 7921
SWIDTH 600 0
DWIDTH 30 0
BBX 32 42 5 -11
BITMAP
00000007
00000007
0000000F
0000000F
0000001E
1E0003FC
1E0007F8
1E0007C0
3E000780
3E000780
3C000780
3C000780
3C000F80
3C000F80
7C000F00
7C000F00
78000F00
78001F00
78001F00
78001F00
F8001E00
F8001E00
F8003E00
F8003E00
F8007E00
FC00FE00
7E01BC00
7FCFBC00
3FFF3C00
1FFC7C00
0FF87C00
00000000
00000000
00000000
00000000
00000000
00000000
07800000
0F800000
0F800000
0F800000
0F000000
ENDCHAR
STARTCHAR 1EF2
ENCODING 7922
SWIDTH 600 0
DWIDTH 30 0
BBX 26 48 8 0
BITMAP
01F00000
00F00000
00F80000
00780000
007C0000
003C0000
003C0000
001E0000
001E0000
00000000
00000000
00000000
00000000
F80003C0
F80007C0
F8000F80
78000F00
7C001F00
3C003E00
3C003C00
3E007C00
1E00F800
1E00F000
1F01F000
0F03E000
0F03C000
0F87C000
078F8000
078F0000
07DF0000
03FE0000
03FC0000
03FC0000
01F80000
01F00000
01F00000
01E00000
01E00000
01E00000
01E00000
03E00000
03E00000
03C00000
03C00000
03C00000
03C00000
07C00000
07C00000
ENDCHAR
STARTCHAR 1EF3
ENCODING 7923
SWIDTH 480 0
DWIDTH 24 0
BBX 29 49 0 -10
BITMAP
001F0000
000F0000
000F8000
00078000
00078000
0003C000
0003C000
0001C000
0001E000
00000000
00000000
00000000
00000000
07C000F8
07C000F0
07C001F0
03C001E0
03C003C0
03C007C0
03E00780
01E00F80
01E00F00
01E01E00
01E01E00
01F03C00
00F03C00
00F07800
00F0F800
00F0F000
0079E000
0079E000
007BC000
007BC000
007F8000
003F8000
003F0000
003E0000
003E0000
003C0000
007C0000
00780000
00F00000
00F00000
01E00000
03E00000
0FC00000
FF800000
FF000000
FC000000
ENDCHAR
STARTCHAR 1EF4
ENCODING 7924
SWIDTH 600 0
DWIDTH 30 0
BBX 26 46 8 -11
BITMAP
F80003C0
F80007C0
F8000F80
78000F00
7C001F00
3C003E00
3C003C00
3E007C00
1E00F800
1E00F000
1F01F000
0F03E000
0F03C000
0F87C000
078F8000
078F0000
07DF0000
03FE0000
03FC0000
03FC0000
01F80000
01F00000
01F00000
01E00000
01E00000
01E00000
01E00000
03E00000
03E00000
03C00000
03C00000
03C00000
03C00000
07C00000
07C00000
00000000
00000000
00000000
00000000
00000000
00000000
0F000000
1F800000
1F800000
1F000000
0E000000
ENDCHAR
STARTCHAR 1EF5
ENCODING 7925
SWIDTH 480 0
DWIDTH 24 0
BBX 29 37 0 -11
BITMAP
07C000F8
07C000F0
07C001F0
03C001E0
03C003C0
03C007C0
03E00780
01E00F80
01E00F00
01E01E00
01E01E00
01F03C00
00F03C00
00F07800
00F0F800
00F0F000
0079E000
0079E000
007BC000
007BC000
007F8000
003F8000
003F0000
003E0000
003E0000
003C0000
007C0000
00780000
00F00000
00F00000
01E00000
03E00000
0FC0F800
FF80F800
FF01F800
FC00F800
0000F000
ENDCHAR
STARTCHAR 1EF6
ENCODING 7926
SWIDTH 600 0
DWIDTH 30 0
BBX 26 48 8 0
BITMAP
0007C000
001FE000
003FF000
00387000
00007000
00007000
0000E000
0003C000
00078000
00000000
00000000
00000000
00000000
F80003C0
F80007C0
F8000F80
78000F00
7C001F00
3C003E00
3C003C00
3E007C00
1E00F800
1E00F000
1F01F000
0F03E000
0F03C000
0F87C000
078F8000
078F0000
07DF0000
03FE0000
03FC0000
03FC0000
01F80000
01F00000
01F00000
01E00000
01E00000
01E00000
01E00000
03E00000
03E00000
03C00000
03C00000
03C00000
03C00000
07C00000
07C00000
ENDCHAR
STARTCHAR 1EF7
ENCODING 7927
SWIDTH 480 0
DWIDTH 24 0
BBX 29 49 0 -10
BITMAP
0000FC00
0001FE00
0003FF00
00078F00
00000F00
00000E00
00001C00
00007800
0000F000
00000000
00000000
00000000
00000000
07C000F8
07C000F0
07C001F0
03C001E0
03C003C0
03C007C0
03E00780
01E00F80
01E00F00
01E01E00
01E01E00
01F03C00
00F03C00
00F07800
00F0F800
00F0F000
0079E000
0079E000
007BC000
007BC000
007F8000
003F8000
003F0000
003E0000
003E0000
003C0000
007C0000
00780000
00F00000
00F00000
01E00000
03E00000
0FC00000
FF800000
FF000000
FC000000
ENDCHAR
STARTCHAR 1EF8
ENCODING 7928
SWIDTH 600 0
DWIDTH 30 0
BBX 26 45 8 0
BITMAP
007E0E00
00FF3C00
01FFFC00
03C3F800
0380C000
00000000
00000000
00000000
00000000
00000000
F80003C0
F80007C0
F8000F80
78000F00
7C001F00
3C003E00
3C003C00
3E007C00
1E00F800
1E00F000
1F01F000
0F03E000
0F03C000
0F87C000
078F8000
078F0000
07DF0000
03FE0000
03FC0000
03FC0000
01F80000
01F00000
01F00000
01E00000
01E00000
01E00000
01E00000
03E00000
03E00000
03C00000
03C00000
03C00000
03C00000
07C00000
07C00000
ENDCHAR
STARTCHAR 1EF9
ENCODING 7929
SWIDTH 480 0
DWIDTH 24 0
BBX 29 47 0 -10
BITMAP
000100E0
000FE1C0
001FFFC0
003CFF80
00383F00
00000000
00000000
00000000
00000000
00000000
00000000
07C000F8
07C000F0
07C001F0
03C001E0
03C003C0
03C007C0
03E00780
01E00F80
01E00F00
01E01E00
01E01E00
01F03C00
00F03C00
00F07800
00F0F800
00F0F000
0079E000
0079E000
007BC000
007BC000
007F8000
003F8000
003F0000
003E0000
003E0000
003C0000
007C0000
00780000
00F00000
00F00000
01E00000
03E00000
0FC00000
FF800000
FF000000
FC000000
ENDCHAR
STARTCHAR 2013
ENCODING 8211
SWIDTH 640 0
DWIDTH 32 0
BBX 22 3 8 14
BITMAP
7FFFFC
FFFFFC
FFFFF8
ENDCHAR
STARTCHAR 2014
ENCODING 8212
SWIDTH 760 0
DWIDTH 38 0
BBX 28 3 8 14
BITMAP
FFFFFFF0
FFFFFFE0
FFFFFFE0
ENDCHAR
STARTCHAR 2018
ENCODING 8216
SWIDTH 280 0
DWIDTH 14 0
BBX 7 13 6 24
BITMAP
02
0E
18
30
30
70
70
7C
7E
FE
FE
7C
10
ENDCHAR
STARTCHAR 2019
ENCODING 8217
SWIDTH 260 0
DWIDTH 13 0
BBX 7 12 4 24
BITMAP
7C
7E
FE
FE
7C
1C
0C
1C
18
38
70
C0
ENDCHAR
STARTCHAR 201A
ENCODING 8218
SWIDTH 280 0
DWIDTH 14 0
BBX 7 13 4 -8
BITMAP
3C
7E
FE
FE
FE
1C
0C
1C
18
38
70
E0
80
ENDCHAR
STARTCHAR 201C
ENCODING 8220
SWIDTH 560 0
DWIDTH 28 0
BBX 17 13 8 24
BITMAP
020080
0E0380
180600
300C00
700C00
601800
601800
7C1F00
FE1F80
FE3F80
FE3F80
7C1F00
300400
ENDCHAR
STARTCHAR 201D
ENCODING 8221
SWIDTH 580 0
DWIDTH 29 0
BBX 17 12 9 24
BITMAP
7C1F00
FC3F80
FE3F80
FC3F80
FC1F00
1C0700
1C0300
180700
180600
300C00
E01C00
C03000
ENDCHAR
STARTCHAR 201E
ENCODING 8222
SWIDTH 500 0
DWIDTH 25 0
BBX 18 13 4 -8
BITMAP
3C0780
7C0FC0
FE1FC0
FE1FC0
FC1FC0
1C0380
0C0180
0C0180
180300
380700
700E00
E01C00
801000
ENDCHAR
STARTCHAR 2020
ENCODING 8224
SWIDTH 560 0
DWIDTH 28 0
BBX 21 47 8 -12
BITMAP
003C00
003C00
003C00
003C00
003C00
003800
007800
007800
007800
7FFFF8
7FFFF8
7FFFF0
FFFFF0
00F000
00F000
00F000
00F000
00E000
01E000
01E000
01E000
01E000
01E000
01C000
03C000
03C000
03C000
03C000
03C000
038000
078000
078000
078000
078000
070000
0F0000
0F0000
0F0000
0F0000
0F0000
0E0000
1E0000
1E0000
1E0000
1E0000
1E0000
1C0000
ENDCHAR
STARTCHAR 2021
ENCODING 8225
SWIDTH 560 0
DWIDTH 28 0
BBX 25 47 4 -12
BITMAP
0003C000
0003C000
0003C000
0003C000
0003C000
00038000
00078000
00078000
00078000
07FFFF80
07FFFF80
07FFFF00
0FFFFF00
000F0000
000F0000
000F0000
000E0000
001E0000
001E0000
001E0000
001E0000
001E0000
001C0000
003C0000
003C0000
003C0000
003C0000
003C0000
00380000
00780000
00780000
00780000
00780000
00780000
7FFFF000
FFFFF000
FFFFF000
FFFFF000
00F00000
00F00000
00E00000
01E00000
01E00000
01E00000
01E00000
01E00000
01C00000
ENDCHAR
STARTCHAR 2022
ENCODING 8226
SWIDTH 380 0
DWIDTH 19 0
BBX 10 10 7 14
BITMAP
0600
1F80
3FC0
7FC0
7FC0
FFC0
FFC0
7F80
7F00
3E00
ENDCHAR
STARTCHAR 2026
ENCODING 8230
SWIDTH 800 0
DWIDTH 40 0
BBX 32 5 4 0
BITMAP
7C03C01E
7C07E03F
FC07E03F
FC07C03E
7807C03C
ENDCHAR
STARTCHAR 2030
ENCODING 8240
SWIDTH 1180 0
DWIDTH 59 0
BBX 53 37 6 -1
BITMAP
00800000000000
07F0001E000000
1FF8001E000000
3C38003C000000
381C0078000000
701C0070000000
701C00F0000000
F01C01E0000000
F01C01C0000000
F03803C0000000
F0380780000000
70700700000000
7FF00F00000000
3FE01E00000000
1F803C00000000
00003C00000000
00007800000000
0000F000000000
0000F000000000
0001E000000000
0003C000000000
0003C000000000
0007801F0007C0
000F007FC01FF0
000E00FFC03FF0
001E01E1E07878
003C03C0E0F038
00380380E0E038
00780380E0E038
00F00780E0E038
00E00781E1E038
01E00781C0E070
03C00383C0E070
078003C780F1E0
078003FF007FC0
0F0001FE003F80
00000020000800
ENDCHAR
STARTCHAR 2039
ENCODING 8249
SWIDTH 360 0
DWIDTH 18 0
BBX 15 21 5 5
BITMAP
003E
007C
00F8
01F0
03E0
0780
0F00
1E00
3C00
F800
F800
7800
7C00
3E00
1F00
0F00
0780
07C0
03E0
01E0
00F0
ENDCHAR
STARTCHAR 203A
ENCODING 8250
SWIDTH 360 0
DWIDTH 18 0
BBX 16 21 3 5
BITMAP
0F80
0780
03C0
03E0
01F0
00F0
0078
007C
003E
001F
001F
003E
007C
00F0
01E0
03C0
0F80
1F00
3E00
7C00
F800
ENDCHAR
STARTCHAR 2044
ENCODING 8260
SWIDTH 460 0
DWIDTH 23 0
BBX 30 35 0 0
BITMAP
0000003C
00000078
000000F0
000001E0
000001E0
000003C0
00000780
00000F00
00001F00
00001E00
00003C00
00007800
0000F000
0000F000
0001E000
0003C000
00078000
00078000
000F0000
001E0000
003C0000
003C0000
00780000
00F00000
01E00000
03C00000
03C00000
07800000
0F000000
1E000000
1E000000
3C000000
78000000
F0000000
F0000000
ENDCHAR
STARTCHAR 2070
ENCODING 8304
SWIDTH 320 0
DWIDTH 16 0
BBX 14 19 6 19
BITMAP
03F0
0FF8
1F78
1C1C
381C
781C
701C
701C
E01C
E01C
E01C
E01C
E038
E038
E078
F070
71E0
7FC0
3F80
ENDCHAR
STARTCHAR 2074
ENCODING 8308
SWIDTH 320 0
DWIDTH 16 0
BBX 14 19 6 19
BITMAP
0078
00F8
01F8
01B8
0330
0770
0E70
1C70
3870
3060
60E0
E0E0
FFFC
FFF8
00E0
00C0
01C0
01C0
01C0
ENDCHAR
STARTCHAR 2075
ENCODING 8309
SWIDTH 300 0
DWIDTH 15 0
BBX 14 19 6 19
BITMAP
3FFC
3FFC
3FF8
3000
3000
7000
73C0
6FF0
7CF0
F078
0038
0038
0038
0070
E070
E0E0
FFE0
7F80
1E00
ENDCHAR
STARTCHAR 2076
ENCODING 8310
SWIDTH 300 0
DWIDTH 15 0
BBX 13 19 6 19
BITMAP
01C0
01C0
0380
0700
0E00
1C00
1800
37E0
7FF0
7070
E038
E038
C038
C030
C070
E0F0
FBE0
7FC0
3F00
ENDCHAR
STARTCHAR 2077
ENCODING 8311
SWIDTH 280 0
DWIDTH 14 0
BBX 13 19 7 19
BITMAP
7FF8
7FF8
FFF8
0070
0060
00E0
01C0
01C0
0380
0300
0700
0E00
0E00
1C00
3800
3800
7000
6000
E000
ENDCHAR
STARTCHAR 2078
ENCODING 8312
SWIDTH 320 0
DWIDTH 16 0
BBX 15 19 5 19
BITMAP
01F8
07FC
0F1E
1C0E
180E
180E
180C
1C1C
0FF8
0FF0
3C38
701C
701C
601C
E01C
F038
7878
7FF0
1FC0
ENDCHAR
STARTCHAR 2079
ENCODING 8313
SWIDTH 300 0
DWIDTH 15 0
BBX 13 19 7 19
BITMAP
07C0
1FF0
3CF0
7038
E038
E038
C038
C038
E070
F0F0
7FE0
3FE0
01C0
0380
0700
0700
0E00
1C00
3800
ENDCHAR
STARTCHAR 2080
ENCODING 8320
SWIDTH 320 0
DWIDTH 16 0
BBX 14 19 1 -13
BITMAP
01C0
0FF0
1FF8
3C38
381C
701C
701C
F01C
E01C
E01C
E01C
E03C
E038
E038
E070
E0F0
F1E0
7FC0
3F80
ENDCHAR
STARTCHAR 2081
ENCODING 8321
SWIDTH 240 0
DWIDTH 12 0
BBX 11 19 -1 -13
BITMAP
03C0
07C0
0FC0
1D80
1980
3380
2380
0380
0380
0300
0300
0700
0700
0700
0700
0600
7FE0
FFE0
FFC0
ENDCHAR
STARTCHAR 2082
ENCODING 8322
SWIDTH 300 0
DWIDTH 15 0
BBX 15 19 -1 -13
BITMAP
03F8
07FC
0E1E
1C0E
1C0E
180E
000C
001C
0038
0070
00E0
03C0
0780
0E00
3C00
7800
7FF8
FFF8
FFF8
ENDCHAR
STARTCHAR 2083
ENCODING 8323
SWIDTH 300 0
DWIDTH 15 0
BBX 15 20 0 -13
BITMAP
01E0
07F8
0FFC
1C1C
380E
000C
001C
001C
00F8
03E0
03F0
0038
0038
0038
E038
E038
F0F0
7FE0
3FC0
0600
ENDCHAR
STARTCHAR 2084
ENCODING 8324
SWIDTH 320 0
DWIDTH 16 0
BBX 14 19 0 -13
BITMAP
003C
0078
00F8
01F8
03B8
0738
0638
0C30
1C70
3870
7070
E070
FFFC
FFFC
00E0
00E0
00E0
00E0
00C0
ENDCHAR
STARTCHAR 2085
ENCODING 8325
SWIDTH 300 0
DWIDTH 15 0
BBX 14 19 0 -13
BITMAP
1FFC
1FFC
3800
3800
3800
3000
33E0
7FF0
7878
7038
0018
0018
0038
E038
E070
F0F0
7FE0
3FC0
0400
ENDCHAR
STARTCHAR 2086
ENCODING 8326
SWIDTH 300 0
DWIDTH 15 0
BBX 13 19 0 -13
BITMAP
00E0
01C0
0380
0700
0E00
0C00
1C80
3FF0
3FF8
7838
7038
E018
E018
E038
E038
F070
7FE0
3FC0
0400
ENDCHAR
STARTCHAR 2087
ENCODING 8327
SWIDTH 280 0
DWIDTH 14 0
BBX 12 19 2 -13
BITMAP
FFF0
FFF0
0070
0070
00E0
00C0
01C0
0380
0380
0700
0E00
0E00
1C00
1800
3800
7000
7000
E000
C000
ENDCHAR
STARTCHAR 2088
ENCODING 8328
SWIDTH 320 0
DWIDTH 16 0
BBX 15 20 0 -13
BITMAP
01E0
07F8
0FFC
1C1C
380E
380E
381C
381C
1E78
0FE0
3FF8
7038
701C
E01C
E01C
E038
F078
7FF0
3FE0
0700
ENDCHAR
STARTCHAR 2089
ENCODING 8329
SWIDTH 300 0
DWIDTH 15 0
BBX 14 19 1 -13
BITMAP
0FE0
1FF8
3838
7038
701C
601C
E018
E038
7078
79F0
3FF0
1EE0
01C0
0380
0380
0700
0E00
1C00
3800
ENDCHAR
STARTCHAR 20AB
ENCODING 8363
SWIDTH 580 0
DWIDTH 29 0
BBX 30 41 5 0
BITMAP
000001F0
000001F0
000001F0
000001E0
0000FFFC
0001FFFC
0001FFFC
000003E0
000003C0
003F03C0
01FFC3C0
03FFF3C0
07FFF7C0
0FC07FC0
1F003F80
3E001F80
3C000F80
7C000F80
78000F80
F8000F80
F8000F00
F0000F00
F0000F00
F0001F00
F8001F00
F8003F00
F8007E00
FC00FE00
7E01FE00
7FFFDE00
3FFF3E00
1FFE3E00
03F03C00
00000000
00000000
00000000
00000000
00000000
FFFFFC00
FFFFFC00
FFFFF800
ENDCHAR
STARTCHAR 20AC
ENCODING 8364
SWIDTH 700 0
DWIDTH 35 0
BBX 34 35 3 0
BITMAP
00000F8000
0000FFF000
0003FFFC00
0007FFFE00
000FE0FE00
001F803F00
003E001F80
007C000F80
00F8000780
00F80007C0
01F00003C0
01E00003C0
03E0000000
7FFFF00000
7FFFF00000
07C0000000
07C0000000
0780000000
0780000000
0780000000
FFFFE00000
FFFFE00000
0780000000
0780000000
0780001E00
0780001E00
07C0003C00
07C0007C00
03E000F800
03F001F000
01F807F000
01FFFFE000
00FFFF8000
003FFF0000
001FFC0000
ENDCHAR
STARTCHAR 2122
ENCODING 8482
SWIDTH 380 0
DWIDTH 19 0
BBX 17 8 7 27
BITMAP
FEE380
FEE780
31EF80
31BF00
31BB00
31BB00
718300
618300
ENDCHAR
STARTCHAR 215B
ENCODING 8539
SWIDTH 880 0
DWIDTH 44 0
BBX 40 35 5 0
BITMAP
03C00001E0
07800001E0
1F800003C0
3F80000780
3B80000F00
3380000F00
2380001E00
0700003C00
0700007800
070000F800
070000F000
070001E000
070003C000
0E00078000
0E00078000
FFC00F0000
FFC01E0000
FFC03C00F8
00003C03FC
00007807FE
0000F00F0F
0001E00E07
0001E00E0E
0003C00E0E
0007800F1C
000F0007F8
001E000FF8
001E001E1C
003C00380E
007800380E
00F000380E
00F000381C
01E0003C7C
03C0001FF8
0780000FE0
ENDCHAR
STARTCHAR 215C
ENCODING 8540
SWIDTH 840 0
DWIDTH 42 0
BBX 37 35 6 0
BITMAP
07F00003C0
0FF8000780
1E78000F00
383C001E00
383C003E00
0038003C00
0038007800
01F000F000
07E001E000
07E001E000
007003C000
0070078000
00700F0000
E0700F0000
F0F01E0000
FFE03C0000
7FC0780000
3F007807C0
0000F01FE0
0001E03FF0
0003C07878
0007807038
0007807030
000F007070
001E0070E0
003C003FC0
003C007FC0
007800F0E0
00F001E070
01E001C070
01E001C070
03C001C0E0
078001E3E0
0F0000FFC0
0E00007F00
ENDCHAR
STARTCHAR 215D
ENCODING 8541
SWIDTH 880 0
DWIDTH 44 0
BBX 39 35 6 0
BITMAP
3FF80003C0
3FF8000780
3FF8000780
3800000F00
3000001E00
7000003C00
77E0003C00
7FF0007800
787000F000
F07001E000
007003C000
007003C000
E070078000
E0F00F0000
FBE01E0000
7FC01E0000
3F803C0000
00007801F0
0000F007F8
0000F00FFC
0001E01E1C
0003C01C1E
0007801C1C
000F001C1C
000F001C38
001E000FF0
003C001FF0
0078003C38
007800701C
00F000701C
01E000703C
03C0007038
03C00078F8
0780003FF0
0F00001FC0
ENDCHAR
STARTCHAR 215E
ENCODING 8542
SWIDTH 900 0
DWIDTH 45 0
BBX 38 35 7 0
BITMAP
7FF8000780
7FF0000F00
7FF0000F00
0070001E00
00E0003C00
00E0007800
01C000F000
03C000F000
038001E000
070003C000
0F00078000
0E00078000
1C000F0000
1C001E0000
38003C0000
78003C0000
7000780000
E000F001E0
0001E00FF8
0003C01FFC
0003C01C3C
000780381C
000F00381C
001E003838
001E003C78
003C001FF0
0078001FF0
00F0003878
00F0007038
01E000E038
03C000E038
078000F078
070000F8F0
0F00007FE0
1E00003FC0
ENDCHAR
STARTCHAR 2212
ENCODING 8722
SWIDTH 600 0
DWIDTH 30 0
BBX 20 4 8 14
BITMAP
FFFFF0
FFFFF0
FFFFF0
FFFFE0
ENDCHAR
STARTCHAR 2215
ENCODING 8725
SWIDTH 500 0
DWIDTH 25 0
BBX 27 35 3 0
BITMAP
000001E0
000003C0
000007C0
00000780
00000F00
00001F00
00001E00
00003C00
00007C00
00007800
0000F000
0001F000
0001E000
0003C000
0007C000
00078000
000F0000
001F0000
001E0000
003C0000
007C0000
00780000
00F00000
01F00000
01E00000
03C00000
07C00000
07800000
0F000000
1F000000
1E000000
3C000000
7C000000
78000000
F0000000
ENDCHAR
STARTCHAR 2248
ENCODING 8776
SWIDTH 560 0
DWIDTH 28 0
BBX 21 16 6 8
BITMAP
03C038
07F038
1FFEF0
1E7FF0
381FE0
380700
000000
000000
000000
000000
000000
0FC0E0
3FE0E0
7FFFC0
70FF80
E03F00
ENDCHAR
STARTCHAR 2260
ENCODING 8800
SWIDTH 720 0
DWIDTH 36 0
BBX 26 30 8 1
BITMAP
000003C0
00000780
00000F00
00000F00
00001E00
00003C00
00007800
00007800
3FFFFFC0
3FFFFFC0
3FFFFF80
3FFFFF80
00078000
000F0000
001E0000
001E0000
003C0000
00780000
00F00000
FFFFFF00
FFFFFF00
FFFFFF00
FFFFFE00
07800000
0F000000
1E000000
3C000000
3C000000
78000000
F0000000
ENDCHAR
STARTCHAR 2264
ENCODING 8804
SWIDTH 600 0
DWIDTH 30 0
BBX 25 30 5 0
BITMAP
00000180
00000780
00001F00
00007F00
0001FE00
0007F800
001FE000
007F0000
01FC0000
07F00000
07C00000
07C00000
0FF00000
03F80000
00FE0000
007F8000
001FE000
0007F000
0003FC00
0000FC00
00003800
00000800
00000000
00000000
00000000
00000000
00000000
FFFFFC00
FFFFFC00
FFFFF800
ENDCHAR
STARTCHAR 2265
ENCODING 8805
SWIDTH 620 0
DWIDTH 31 0
BBX 23 30 5 0
BITMAP
030000
03C000
03E000
03F800
01FE00
007F00
001FC0
000FF0
0003FC
0000FE
00003E
00003E
0000FE
0003F8
001FE0
007F80
01FE00
07F800
1FE000
1F8000
1E0000
180000
000000
000000
000000
000000
000000
FFFFFC
FFFFF8
FFFFF8
ENDCHAR
ENDFONT
